<?xml version="1.0" encoding="UTF-8"?>
<svg xmlns="http://www.w3.org/2000/svg" xmlns:xlink="http://www.w3.org/1999/xlink" width="300pt" height="299.999988pt" viewBox="0 0 300 299.999988" version="1.2">
<defs>
<clipPath id="clip1">
  <path d="M 20.539062 100.488281 L 279.125 100.488281 L 279.125 199.429688 L 20.539062 199.429688 Z M 20.539062 100.488281 "/>
</clipPath>
</defs>
<g id="surface1">
<g clip-path="url(#clip1)" clip-rule="nonzero">
<path style=" stroke:none;fill-rule:evenodd;fill:rgb(0%,0%,0%);fill-opacity:1;" d="M 258.6875 100.492188 C 261.230469 100.957031 259.390625 103.578125 259.542969 104.785156 C 260.09375 109.027344 262.121094 114.328125 263.402344 118.945312 C 266.816406 131.195312 272.039062 142.230469 275.417969 154.996094 C 276.949219 160.796875 281.203125 167.492188 277.988281 173.878906 C 275.476562 175.402344 272.585938 173.429688 269.410156 173.449219 C 262.972656 173.496094 255.820312 175.851562 249.679688 176.453125 C 248.179688 178.65625 246.175781 182.453125 244.105469 186.753906 C 242.398438 190.292969 241.707031 195.886719 238.957031 197.480469 C 236.058594 199.160156 227.234375 198.167969 223.515625 198.339844 C 207.90625 199.082031 193.472656 200.128906 177.621094 198.769531 C 133.925781 195.027344 80.066406 194.222656 35.222656 194.476562 C 24.464844 194.539062 21.46875 192.273438 20.640625 182.890625 C 19.996094 175.609375 22.574219 167.25 23.644531 158.855469 C 26.039062 140.0625 26.011719 121.414062 30.933594 103.929688 C 59.328125 98.957031 89.539062 103.441406 121.007812 103.929688 C 144.523438 104.289062 169.160156 102.878906 192.636719 102.640625 C 200.664062 102.5625 208.972656 103.699219 216.652344 103.070312 C 218.878906 102.886719 221.246094 101.964844 223.515625 101.78125 C 235.355469 100.820312 247.558594 102.898438 258.6875 100.492188 M 253.109375 107.363281 C 233.519531 110.53125 214.1875 108.296875 197.351562 108.648438 C 165.660156 109.308594 132.671875 112.195312 97.417969 109.507812 C 74.941406 107.792969 56.878906 107.011719 35.222656 109.933594 C 31.058594 129.6875 29.199219 149.539062 27.507812 170.878906 C 27.089844 176.050781 27.320312 181.765625 27.074219 187.179688 C 36.425781 188.933594 47.3125 187.15625 57.527344 187.179688 C 115.039062 187.328125 174.253906 195.007812 236.382812 191.902344 C 244.9375 178.898438 246.28125 162.425781 249.25 142.121094 C 250.8125 131.457031 254.15625 116.347656 254.398438 107.363281 C 254.222656 106.628906 253.847656 107.449219 253.109375 107.363281 M 251.824219 169.160156 C 260.035156 168.949219 265.734375 166.386719 273.699219 167.871094 C 269.96875 151.578125 263.734375 137.789062 258.6875 122.808594 C 255.199219 138.148438 249.277344 153.363281 251.824219 169.160156 "/>
</g>
<path style=" stroke:none;fill-rule:evenodd;fill:rgb(100%,100%,100%);fill-opacity:1;" d="M 254.398438 107.363281 C 254.15625 116.34375 250.8125 131.457031 249.25 142.121094 C 246.28125 162.421875 244.9375 178.898438 236.382812 191.902344 C 174.253906 195.007812 115.039062 187.328125 57.53125 187.179688 C 47.3125 187.15625 36.425781 188.933594 27.074219 187.179688 C 27.320312 181.765625 27.09375 176.050781 27.503906 170.878906 C 29.199219 149.539062 31.058594 129.6875 35.222656 109.9375 C 56.875 107.011719 74.941406 107.792969 97.414062 109.507812 C 132.671875 112.195312 165.660156 109.308594 197.351562 108.648438 C 214.1875 108.296875 233.519531 110.53125 253.109375 107.363281 C 253.847656 107.453125 254.222656 106.628906 254.398438 107.363281 M 66.105469 116.804688 C 64.910156 121.765625 59.625 129.527344 63.105469 132.679688 C 64.402344 132.117188 64.808594 130.667969 64.816406 128.820312 C 66.429688 130.671875 67.898438 127.375 70.824219 127.960938 C 70.671875 129.542969 71.890625 129.75 72.96875 130.105469 C 73.511719 125.09375 69.351562 121.164062 67.820312 116.804688 Z M 56.671875 127.53125 C 54.105469 124.519531 51.925781 121.117188 47.660156 119.804688 C 47.382812 121.097656 46.011719 121.304688 46.378906 123.238281 C 50.238281 124.933594 47.335938 131.339844 48.09375 134.398438 C 53.445312 135.640625 49.933594 126.578125 51.519531 125.386719 C 54.820312 126.804688 54.339844 132.007812 59.242188 131.824219 C 59.769531 128.75 61.015625 120.433594 58.386719 117.230469 C 55.5625 118.847656 59.125 125.058594 56.671875 127.53125 M 78.972656 117.664062 L 77.6875 117.664062 C 75.640625 118.914062 75.492188 120.988281 75.113281 124.097656 C 74.71875 127.355469 72.117188 132.863281 75.542969 133.539062 C 77.605469 130.605469 75.628906 124.378906 78.546875 121.523438 C 80.273438 123.082031 80.394531 126.25 81.976562 127.960938 C 84.082031 127.5 84.640625 125.472656 85.835938 124.097656 C 87.089844 126.273438 86.285156 130.511719 88.839844 131.394531 C 90.214844 131.773438 89.726562 130.28125 90.554688 130.105469 C 88.667969 126.558594 88.734375 121.054688 85.40625 118.945312 C 82.96875 118.941406 83.851562 122.257812 81.976562 122.808594 C 82.046875 120.023438 79.761719 119.585938 78.972656 117.664062 M 93.554688 131.824219 C 97.480469 132.0625 98.15625 132.921875 101.707031 133.539062 C 102.046875 132.738281 102.421875 131.96875 102.5625 130.964844 C 100.691406 128.972656 94.300781 131.507812 94.84375 127.101562 C 95.929688 126.230469 99.015625 128.199219 99.992188 125.8125 C 99.703125 122.894531 96.066406 125.546875 94.414062 123.667969 L 94.414062 121.097656 C 95.363281 119.613281 99.464844 121.289062 99.558594 118.945312 C 90.9375 114.046875 91.480469 126.59375 93.554688 131.824219 M 108.996094 124.097656 C 109.574219 123.675781 109.851562 122.953125 110.285156 122.378906 C 109.410156 121.828125 109.503906 120.304688 107.710938 120.664062 C 106.8125 121.777344 107.230469 124.324219 108.996094 124.097656 M 107.710938 131.394531 L 109.855469 131.394531 C 110.375 130.265625 110.148438 129.769531 109.429688 128.390625 L 107.710938 128.390625 C 107.097656 128.960938 107.097656 130.820312 107.710938 131.394531 M 46.804688 173.878906 C 48.761719 173.691406 51.527344 174.3125 52.8125 173.449219 C 52.574219 169.304688 49.914062 172.214844 47.234375 170.878906 C 46.609375 171.949219 46.195312 172.558594 46.804688 173.878906 M 108.136719 174.738281 C 110.664062 175.183594 114.039062 177.023438 115.859375 174.738281 C 114.417969 172.746094 110.460938 173.273438 107.710938 172.59375 C 107.355469 173.800781 108.3125 173.703125 108.136719 174.738281 M 89.699219 174.738281 C 91.898438 175.542969 95.742188 176.699219 97.414062 175.59375 C 97.40625 172.316406 93.222656 173.210938 90.121094 173.019531 C 90.15625 173.765625 90.027344 174.355469 89.699219 174.738281 M 128.296875 174.308594 C 127.71875 176.996094 134.75 176.289062 134.734375 175.59375 C 135.914062 172.871094 130.253906 173.3125 128.296875 174.308594 M 66.964844 175.167969 C 67.664062 178.398438 72.5625 177.203125 72.96875 174.308594 C 71.179688 173.289062 68.121094 174.175781 66.964844 175.167969 M 171.1875 175.59375 L 171.1875 177.3125 C 174.164062 178.078125 176.730469 177.625 178.910156 176.453125 C 177.949219 173.113281 174.285156 175.402344 171.1875 175.59375 M 145.882812 176.882812 C 149.289062 176.890625 153.601562 178.6875 155.316406 176.453125 C 153.671875 174.316406 146.457031 173.472656 145.882812 176.882812 M 192.636719 177.742188 C 194.6875 179.070312 199.464844 179.347656 199.496094 176.453125 C 198.386719 174.96875 192.625 175.347656 192.636719 177.742188 M 213.222656 177.742188 C 212.984375 181.109375 221.25 180.941406 222.226562 179.03125 C 220.957031 176.820312 215.339844 177.8125 213.222656 177.742188 "/>
<path style=" stroke:none;fill-rule:evenodd;fill:rgb(0%,0%,0%);fill-opacity:1;" d="M 67.820312 116.804688 C 69.351562 121.164062 73.511719 125.09375 72.96875 130.105469 C 71.890625 129.75 70.671875 129.542969 70.824219 127.960938 C 67.898438 127.375 66.429688 130.671875 64.816406 128.820312 C 64.808594 130.667969 64.402344 132.121094 63.105469 132.679688 C 59.625 129.527344 64.910156 121.765625 66.105469 116.804688 Z M 65.246094 126.671875 C 66.964844 126.671875 67.820312 125.816406 69.535156 125.8125 C 68.964844 123.667969 68.777344 121.140625 66.535156 120.664062 C 66.46875 123.035156 65.222656 124.214844 65.246094 126.671875 "/>
<path style=" stroke:none;fill-rule:evenodd;fill:rgb(0%,0%,0%);fill-opacity:1;" d="M 58.386719 117.230469 C 61.015625 120.433594 59.769531 128.75 59.242188 131.824219 C 54.339844 132.007812 54.820312 126.804688 51.523438 125.386719 C 49.933594 126.578125 53.445312 135.640625 48.09375 134.398438 C 47.335938 131.339844 50.238281 124.933594 46.378906 123.238281 C 46.011719 121.304688 47.382812 121.097656 47.660156 119.804688 C 51.925781 121.117188 54.105469 124.519531 56.671875 127.53125 C 59.125 125.058594 55.5625 118.847656 58.386719 117.230469 "/>
<path style=" stroke:none;fill-rule:evenodd;fill:rgb(0%,0%,0%);fill-opacity:1;" d="M 81.976562 122.808594 C 83.855469 122.257812 82.96875 118.941406 85.40625 118.945312 C 88.734375 121.054688 88.667969 126.558594 90.554688 130.105469 C 89.726562 130.28125 90.214844 131.773438 88.835938 131.394531 C 86.289062 130.511719 87.089844 126.273438 85.835938 124.097656 C 84.640625 125.472656 84.082031 127.496094 81.976562 127.960938 C 80.394531 126.25 80.273438 123.082031 78.546875 121.523438 C 75.628906 124.375 77.605469 130.605469 75.542969 133.539062 C 72.117188 132.863281 74.71875 127.355469 75.113281 124.097656 C 75.492188 120.988281 75.640625 118.914062 77.6875 117.664062 L 78.972656 117.664062 C 79.761719 119.585938 82.046875 120.023438 81.976562 122.808594 "/>
<path style=" stroke:none;fill-rule:evenodd;fill:rgb(0%,0%,0%);fill-opacity:1;" d="M 99.558594 118.945312 C 99.464844 121.289062 95.363281 119.613281 94.414062 121.097656 L 94.414062 123.667969 C 96.066406 125.546875 99.699219 122.894531 99.992188 125.8125 C 99.015625 128.195312 95.929688 126.230469 94.84375 127.101562 C 94.300781 131.507812 100.691406 128.972656 102.5625 130.964844 C 102.421875 131.96875 102.046875 132.738281 101.707031 133.539062 C 98.15625 132.921875 97.480469 132.0625 93.554688 131.824219 C 91.480469 126.59375 90.9375 114.046875 99.558594 118.945312 "/>
<path style=" stroke:none;fill-rule:evenodd;fill:rgb(100%,100%,100%);fill-opacity:1;" d="M 66.535156 120.664062 C 68.777344 121.140625 68.964844 123.667969 69.535156 125.8125 C 67.824219 125.816406 66.964844 126.671875 65.246094 126.671875 C 65.222656 124.210938 66.46875 123.035156 66.535156 120.664062 "/>
<path style=" stroke:none;fill-rule:evenodd;fill:rgb(0%,0%,0%);fill-opacity:1;" d="M 107.710938 120.664062 C 109.503906 120.304688 109.410156 121.828125 110.285156 122.378906 C 109.851562 122.953125 109.574219 123.675781 108.996094 124.097656 C 107.230469 124.324219 106.8125 121.777344 107.710938 120.664062 "/>
<path style=" stroke:none;fill-rule:evenodd;fill:rgb(100%,100%,100%);fill-opacity:1;" d="M 258.6875 122.808594 C 263.734375 137.789062 269.96875 151.578125 273.699219 167.871094 C 265.734375 166.386719 260.035156 168.949219 251.824219 169.160156 C 249.277344 153.363281 255.199219 138.148438 258.6875 122.808594 "/>
<path style=" stroke:none;fill-rule:evenodd;fill:rgb(0%,0%,0%);fill-opacity:1;" d="M 107.710938 128.390625 L 109.429688 128.390625 C 110.148438 129.769531 110.375 130.265625 109.855469 131.394531 L 107.710938 131.394531 C 107.097656 130.820312 107.097656 128.960938 107.710938 128.390625 "/>
<path style=" stroke:none;fill-rule:evenodd;fill:rgb(0%,0%,0%);fill-opacity:1;" d="M 47.234375 170.878906 C 49.914062 172.214844 52.574219 169.304688 52.808594 173.449219 C 51.527344 174.3125 48.761719 173.691406 46.804688 173.878906 C 46.195312 172.558594 46.613281 171.949219 47.234375 170.878906 "/>
<path style=" stroke:none;fill-rule:evenodd;fill:rgb(0%,0%,0%);fill-opacity:1;" d="M 107.710938 172.59375 C 110.464844 173.273438 114.417969 172.746094 115.859375 174.738281 C 114.039062 177.023438 110.664062 175.183594 108.136719 174.738281 C 108.3125 173.703125 107.355469 173.800781 107.710938 172.59375 "/>
<path style=" stroke:none;fill-rule:evenodd;fill:rgb(0%,0%,0%);fill-opacity:1;" d="M 90.121094 173.019531 C 93.222656 173.210938 97.40625 172.316406 97.414062 175.59375 C 95.742188 176.699219 91.898438 175.542969 89.699219 174.738281 C 90.027344 174.355469 90.15625 173.765625 90.121094 173.019531 "/>
<path style=" stroke:none;fill-rule:evenodd;fill:rgb(0%,0%,0%);fill-opacity:1;" d="M 134.734375 175.59375 C 134.75 176.289062 127.71875 176.996094 128.296875 174.308594 C 130.253906 173.3125 135.914062 172.871094 134.734375 175.59375 "/>
<path style=" stroke:none;fill-rule:evenodd;fill:rgb(0%,0%,0%);fill-opacity:1;" d="M 72.96875 174.308594 C 72.5625 177.203125 67.664062 178.398438 66.964844 175.167969 C 68.121094 174.175781 71.179688 173.289062 72.96875 174.308594 "/>
<path style=" stroke:none;fill-rule:evenodd;fill:rgb(0%,0%,0%);fill-opacity:1;" d="M 178.910156 176.453125 C 176.730469 177.625 174.164062 178.078125 171.1875 177.3125 L 171.1875 175.59375 C 174.285156 175.402344 177.949219 173.113281 178.910156 176.453125 "/>
<path style=" stroke:none;fill-rule:evenodd;fill:rgb(0%,0%,0%);fill-opacity:1;" d="M 155.316406 176.453125 C 153.601562 178.6875 149.289062 176.890625 145.882812 176.882812 C 146.457031 173.472656 153.671875 174.316406 155.316406 176.453125 "/>
<path style=" stroke:none;fill-rule:evenodd;fill:rgb(0%,0%,0%);fill-opacity:1;" d="M 199.496094 176.453125 C 199.464844 179.347656 194.6875 179.070312 192.636719 177.742188 C 192.625 175.347656 198.386719 174.96875 199.496094 176.453125 "/>
<path style=" stroke:none;fill-rule:evenodd;fill:rgb(0%,0%,0%);fill-opacity:1;" d="M 222.226562 179.03125 C 221.25 180.941406 212.984375 181.109375 213.222656 177.742188 C 215.339844 177.8125 220.957031 176.820312 222.226562 179.03125 "/>
</g>
</svg>
