<?xml version="1.0" encoding="UTF-8"?>
<svg xmlns="http://www.w3.org/2000/svg" xmlns:xlink="http://www.w3.org/1999/xlink" width="300pt" height="299.999988pt" viewBox="0 0 300 299.999988" version="1.2">
<defs>
<clipPath id="clip1">
  <path d="M 69.820312 69.820312 L 230.320312 69.820312 L 230.320312 230.320312 L 69.820312 230.320312 Z M 69.820312 69.820312 "/>
</clipPath>
</defs>
<g id="surface1">
<g clip-path="url(#clip1)" clip-rule="nonzero">
<path style=" stroke:none;fill-rule:evenodd;fill:rgb(21.179199%,46.669006%,63.919067%);fill-opacity:1;" d="M 150.140625 69.820312 C 194.5 69.820312 230.460938 105.78125 230.460938 150.140625 C 230.460938 194.5 194.5 230.460938 150.140625 230.460938 C 105.78125 230.460938 69.820312 194.5 69.820312 150.140625 C 69.820312 105.78125 105.78125 69.820312 150.140625 69.820312 "/>
</g>
<path style=" stroke:none;fill-rule:evenodd;fill:rgb(100%,100%,100%);fill-opacity:1;" d="M 146.15625 164.621094 C 141.917969 158.125 139.410156 151.628906 138.066406 146.8125 C 136.835938 147.289062 135.375 147.722656 133.792969 148.15625 C 129.796875 156.824219 130.648438 169.144531 133.980469 177.660156 C 136.632812 177.460938 138.882812 179.542969 138.882812 182.183594 C 138.882812 184.691406 136.84375 186.722656 134.328125 186.722656 C 130.304688 186.722656 128.289062 181.898438 131.046875 179.042969 C 127.601562 170.355469 126.632812 158.410156 129.871094 149.203125 C 123.78125 150.847656 117.214844 152.914062 115.035156 157.316406 C 111.078125 165.257812 109.542969 190.117188 109.554688 200.023438 L 190.722656 200.023438 C 190.734375 190.03125 189.25 165.359375 185.246094 157.316406 C 183.195312 153.1875 177.292969 151.109375 171.542969 149.515625 C 172.03125 152.691406 171.75 156.09375 170.96875 159.496094 C 175.058594 161.15625 177.589844 165.246094 176.769531 170.433594 C 175.65625 177.476562 177.191406 190.175781 168.128906 188.144531 C 166.046875 187.679688 166.753906 184.523438 168.839844 184.992188 C 170.886719 185.449219 171.796875 184.0625 172.28125 181.910156 C 172.976562 178.839844 172.984375 173.625 173.566406 169.941406 C 174.929688 161.328125 163.367188 158.722656 160.898438 167.097656 C 159.855469 170.628906 157.613281 175.359375 156.914062 178.46875 C 156.425781 180.621094 156.652344 182.261719 158.703125 182.722656 C 160.785156 183.1875 160.074219 186.339844 157.992188 185.875 C 148.9375 183.847656 155.75 173.070312 157.785156 166.183594 C 159.28125 161.109375 163.382812 158.503906 167.800781 158.773438 C 168.605469 155.285156 168.859375 151.757812 168.046875 148.574219 C 165.867188 147.996094 163.839844 147.441406 162.214844 146.8125 C 161.019531 151.171875 158.222656 158.070312 154.039062 164.617188 L 152.550781 156.316406 L 153.664062 153.644531 L 150.097656 150.65625 L 146.535156 153.644531 L 147.648438 156.316406 Z M 169.359375 117.992188 C 170.292969 117.824219 171.167969 117.980469 171.453125 119.003906 C 172.425781 122.488281 169.328125 127.347656 166.453125 127.054688 C 158.132812 148.089844 142.144531 148.089844 133.824219 127.054688 C 130.988281 127.339844 127.851562 122.488281 128.824219 119.003906 C 129.109375 117.984375 129.976562 117.824219 130.910156 117.992188 C 130.074219 114.328125 129.644531 109.800781 130.441406 106.125 C 133.851562 90.390625 162 87.664062 163.566406 97.726562 C 171.167969 100.257812 171.558594 108.464844 169.359375 117.992188 Z M 169.359375 117.992188 "/>
</g>
</svg>
