<?xml version="1.0" encoding="UTF-8"?>
<svg xmlns="http://www.w3.org/2000/svg" xmlns:xlink="http://www.w3.org/1999/xlink" width="300pt" height="299.999988pt" viewBox="0 0 300 299.999988" version="1.2">
<defs>
<clipPath id="clip1">
  <path d="M 144 58.976562 L 156 58.976562 L 156 66 L 144 66 Z M 144 58.976562 "/>
</clipPath>
<clipPath id="clip2">
  <path d="M 144 234 L 156 234 L 156 241.226562 L 144 241.226562 Z M 144 234 "/>
</clipPath>
<clipPath id="clip3">
  <path d="M 234 145 L 241.226562 145 L 241.226562 157 L 234 157 Z M 234 145 "/>
</clipPath>
</defs>
<g id="surface1">
<path style=" stroke:none;fill-rule:nonzero;fill:rgb(59.21936%,10.978699%,18.03894%);fill-opacity:1;" d="M 220.210938 150.207031 C 220.210938 188.871094 188.867188 220.214844 150.203125 220.214844 C 111.539062 220.214844 80.195312 188.871094 80.195312 150.207031 C 80.195312 111.542969 111.539062 80.199219 150.203125 80.199219 C 188.867188 80.199219 220.210938 111.542969 220.210938 150.207031 "/>
<path style=" stroke:none;fill-rule:nonzero;fill:rgb(48.629761%,9.01947%,14.118958%);fill-opacity:1;" d="M 150.726562 164.230469 C 157.023438 164.230469 162.144531 159.109375 162.144531 152.8125 C 162.144531 146.515625 157.023438 141.390625 150.726562 141.390625 C 144.429688 141.390625 139.304688 146.515625 139.304688 152.8125 C 139.304688 159.109375 144.429688 164.230469 150.726562 164.230469 "/>
<path style=" stroke:none;fill-rule:nonzero;fill:rgb(48.629761%,9.01947%,14.118958%);fill-opacity:1;" d="M 171.011719 142.460938 C 175.195312 142.460938 178.597656 139.6875 178.597656 136.277344 C 178.597656 132.867188 175.195312 130.09375 171.011719 130.09375 C 166.828125 130.09375 163.425781 132.867188 163.425781 136.277344 C 163.425781 139.6875 166.828125 142.460938 171.011719 142.460938 "/>
<path style=" stroke:none;fill-rule:nonzero;fill:rgb(48.629761%,9.01947%,14.118958%);fill-opacity:1;" d="M 176.023438 153.574219 C 171.078125 153.574219 167.054688 156.347656 167.054688 159.757812 C 167.054688 163.167969 171.078125 165.941406 176.023438 165.941406 C 180.96875 165.941406 184.996094 163.167969 184.996094 159.757812 C 184.996094 156.347656 180.96875 153.574219 176.023438 153.574219 "/>
<path style=" stroke:none;fill-rule:nonzero;fill:rgb(48.629761%,9.01947%,14.118958%);fill-opacity:1;" d="M 146.625 134.410156 C 151.023438 134.410156 154.597656 131.636719 154.597656 128.226562 C 154.597656 124.816406 151.023438 122.042969 146.625 122.042969 C 142.226562 122.042969 138.652344 124.816406 138.652344 128.226562 C 138.652344 131.636719 142.226562 134.410156 146.625 134.410156 "/>
<path style=" stroke:none;fill-rule:nonzero;fill:rgb(48.629761%,9.01947%,14.118958%);fill-opacity:1;" d="M 128.203125 112.847656 C 132.601562 112.847656 136.179688 110.070312 136.179688 106.664062 C 136.179688 103.253906 132.601562 100.476562 128.203125 100.476562 C 123.808594 100.476562 120.230469 103.253906 120.230469 106.664062 C 120.230469 110.070312 123.808594 112.847656 128.203125 112.847656 "/>
<path style=" stroke:none;fill-rule:nonzero;fill:rgb(48.629761%,9.01947%,14.118958%);fill-opacity:1;" d="M 154.171875 108.101562 C 158.566406 108.101562 162.144531 105.328125 162.144531 101.917969 C 162.144531 98.511719 158.566406 95.734375 154.171875 95.734375 C 149.773438 95.734375 146.195312 98.511719 146.195312 101.917969 C 146.195312 105.328125 149.773438 108.101562 154.171875 108.101562 "/>
<path style=" stroke:none;fill-rule:nonzero;fill:rgb(48.629761%,9.01947%,14.118958%);fill-opacity:1;" d="M 176.832031 115.964844 C 181.226562 115.964844 184.804688 113.191406 184.804688 109.78125 C 184.804688 106.371094 181.226562 103.597656 176.832031 103.597656 C 172.433594 103.597656 168.855469 106.371094 168.855469 109.78125 C 168.855469 113.191406 172.433594 115.964844 176.832031 115.964844 "/>
<path style=" stroke:none;fill-rule:nonzero;fill:rgb(48.629761%,9.01947%,14.118958%);fill-opacity:1;" d="M 195.308594 135.777344 C 199.703125 135.777344 203.28125 133 203.28125 129.59375 C 203.28125 126.183594 199.703125 123.40625 195.308594 123.40625 C 190.910156 123.40625 187.332031 126.183594 187.332031 129.59375 C 187.332031 133 190.910156 135.777344 195.308594 135.777344 "/>
<path style=" stroke:none;fill-rule:nonzero;fill:rgb(48.629761%,9.01947%,14.118958%);fill-opacity:1;" d="M 197.128906 115.699219 C 201.527344 115.699219 205.101562 112.925781 205.101562 109.515625 C 205.101562 106.105469 201.527344 103.332031 197.128906 103.332031 C 192.730469 103.332031 189.152344 106.105469 189.152344 109.515625 C 189.152344 112.925781 192.730469 115.699219 197.128906 115.699219 "/>
<path style=" stroke:none;fill-rule:nonzero;fill:rgb(48.629761%,9.01947%,14.118958%);fill-opacity:1;" d="M 189.628906 95.949219 C 191.015625 95.949219 192.320312 95.671875 193.460938 95.1875 C 189.914062 92.394531 186.09375 89.941406 182.042969 87.867188 C 181.792969 88.464844 181.652344 89.101562 181.652344 89.765625 C 181.652344 93.175781 185.230469 95.949219 189.628906 95.949219 "/>
<path style=" stroke:none;fill-rule:nonzero;fill:rgb(48.629761%,9.01947%,14.118958%);fill-opacity:1;" d="M 161.597656 89.363281 C 161.597656 93.738281 165.175781 97.300781 169.574219 97.300781 C 173.96875 97.300781 177.546875 93.738281 177.546875 89.363281 C 177.546875 87.871094 177.125 86.480469 176.398438 85.289062 C 173.171875 83.984375 169.824219 82.914062 166.378906 82.097656 C 163.566406 83.328125 161.597656 86.121094 161.597656 89.363281 "/>
<path style=" stroke:none;fill-rule:nonzero;fill:rgb(48.629761%,9.01947%,14.118958%);fill-opacity:1;" d="M 153.171875 84.960938 C 156.152344 84.960938 158.75 83.324219 160.117188 80.914062 C 156.878906 80.453125 153.570312 80.199219 150.203125 80.199219 C 148.769531 80.199219 147.351562 80.257812 145.9375 80.34375 C 147.203125 83.0625 149.964844 84.960938 153.171875 84.960938 "/>
<path style=" stroke:none;fill-rule:nonzero;fill:rgb(48.629761%,9.01947%,14.118958%);fill-opacity:1;" d="M 126.074219 89.765625 C 126.074219 94.140625 129.648438 97.703125 134.046875 97.703125 C 138.445312 97.703125 142.023438 94.140625 142.023438 89.765625 C 142.023438 85.695312 138.925781 82.335938 134.949219 81.886719 C 133.0625 82.304688 131.199219 82.78125 129.375 83.351562 C 127.378906 84.796875 126.074219 87.128906 126.074219 89.765625 "/>
<path style=" stroke:none;fill-rule:nonzero;fill:rgb(48.629761%,9.01947%,14.118958%);fill-opacity:1;" d="M 121.046875 88.132812 C 121.046875 87.621094 120.992188 87.117188 120.898438 86.628906 C 116.335938 88.734375 112.035156 91.308594 108.066406 94.304688 C 109.4375 95.40625 111.175781 96.070312 113.070312 96.070312 C 117.46875 96.070312 121.046875 92.507812 121.046875 88.132812 "/>
<path style=" stroke:none;fill-rule:nonzero;fill:rgb(48.629761%,9.01947%,14.118958%);fill-opacity:1;" d="M 102.863281 115.945312 C 107.257812 115.945312 110.835938 112.382812 110.835938 108.007812 C 110.835938 103.632812 107.257812 100.074219 102.863281 100.074219 C 102.28125 100.074219 101.714844 100.140625 101.167969 100.257812 C 98.933594 102.453125 96.851562 104.796875 94.925781 107.273438 C 94.902344 107.515625 94.886719 107.761719 94.886719 108.007812 C 94.886719 112.382812 98.464844 115.945312 102.863281 115.945312 "/>
<path style=" stroke:none;fill-rule:nonzero;fill:rgb(48.629761%,9.01947%,14.118958%);fill-opacity:1;" d="M 93.390625 116.832031 C 93.390625 114.957031 92.730469 113.234375 91.632812 111.875 C 88.996094 115.898438 86.765625 120.207031 84.988281 124.746094 C 85.132812 124.753906 85.273438 124.769531 85.417969 124.769531 C 89.8125 124.769531 93.390625 121.207031 93.390625 116.832031 "/>
<path style=" stroke:none;fill-rule:nonzero;fill:rgb(48.629761%,9.01947%,14.118958%);fill-opacity:1;" d="M 88.632812 144.789062 C 93.027344 144.789062 96.605469 141.230469 96.605469 136.855469 C 96.605469 132.476562 93.027344 128.917969 88.632812 128.917969 C 86.292969 128.917969 84.191406 129.933594 82.734375 131.53125 C 82.03125 134.066406 81.460938 136.652344 81.046875 139.292969 C 82.082031 142.476562 85.089844 144.789062 88.632812 144.789062 "/>
<path style=" stroke:none;fill-rule:nonzero;fill:rgb(48.629761%,9.01947%,14.118958%);fill-opacity:1;" d="M 85.417969 151.394531 C 85.417969 148.089844 83.375 145.253906 80.480469 144.0625 C 80.300781 146.089844 80.195312 148.136719 80.195312 150.207031 C 80.195312 153.058594 80.382812 155.863281 80.714844 158.625 C 83.484375 157.375 85.417969 154.609375 85.417969 151.394531 "/>
<path style=" stroke:none;fill-rule:nonzero;fill:rgb(48.629761%,9.01947%,14.118958%);fill-opacity:1;" d="M 88.632812 173.335938 C 92.25 173.335938 95.195312 169.777344 95.195312 165.402344 C 95.195312 161.027344 92.25 157.464844 88.632812 157.464844 C 85.011719 157.464844 82.066406 161.027344 82.066406 165.402344 C 82.066406 165.824219 82.101562 166.238281 82.152344 166.644531 C 82.328125 167.375 82.515625 168.101562 82.714844 168.824219 C 83.777344 171.488281 86.027344 173.335938 88.632812 173.335938 "/>
<path style=" stroke:none;fill-rule:nonzero;fill:rgb(48.629761%,9.01947%,14.118958%);fill-opacity:1;" d="M 88.226562 177.441406 C 87.414062 177.441406 86.640625 177.628906 85.921875 177.957031 C 87.871094 182.464844 90.285156 186.722656 93.097656 190.679688 C 94.148438 189.273438 94.792969 187.417969 94.792969 185.378906 C 94.792969 181 91.847656 177.441406 88.226562 177.441406 "/>
<path style=" stroke:none;fill-rule:nonzero;fill:rgb(48.629761%,9.01947%,14.118958%);fill-opacity:1;" d="M 107.371094 186.054688 C 103.75 186.054688 100.804688 189.613281 100.804688 193.992188 C 100.804688 198.367188 103.75 201.925781 107.371094 201.925781 C 110.992188 201.925781 113.9375 198.367188 113.9375 193.992188 C 113.9375 189.613281 110.992188 186.054688 107.371094 186.054688 "/>
<path style=" stroke:none;fill-rule:nonzero;fill:rgb(48.629761%,9.01947%,14.118958%);fill-opacity:1;" d="M 115.570312 205.941406 C 113.789062 205.941406 112.167969 206.804688 110.984375 208.207031 C 114.480469 210.574219 118.207031 212.621094 122.117188 214.335938 C 122.125 214.183594 122.136719 214.03125 122.136719 213.875 C 122.136719 209.5 119.191406 205.941406 115.570312 205.941406 "/>
<path style=" stroke:none;fill-rule:nonzero;fill:rgb(48.629761%,9.01947%,14.118958%);fill-opacity:1;" d="M 143.105469 211.792969 C 143.105469 207.417969 140.160156 203.859375 136.539062 203.859375 C 132.917969 203.859375 129.972656 207.417969 129.972656 211.792969 C 129.972656 214.253906 130.90625 216.457031 132.367188 217.914062 C 134.449219 218.460938 136.574219 218.90625 138.730469 219.265625 C 141.273438 218.171875 143.105469 215.238281 143.105469 211.792969 "/>
<path style=" stroke:none;fill-rule:nonzero;fill:rgb(48.629761%,9.01947%,14.118958%);fill-opacity:1;" d="M 152.34375 214.847656 C 149.503906 214.847656 147.089844 217.039062 146.171875 220.09375 C 147.507812 220.167969 148.847656 220.214844 150.203125 220.214844 C 152.976562 220.214844 155.710938 220.035156 158.398438 219.722656 C 157.40625 216.859375 155.066406 214.847656 152.34375 214.847656 "/>
<path style=" stroke:none;fill-rule:nonzero;fill:rgb(48.629761%,9.01947%,14.118958%);fill-opacity:1;" d="M 168.898438 202.714844 C 165.277344 202.714844 162.332031 206.273438 162.332031 210.648438 C 162.332031 214.175781 164.246094 217.167969 166.886719 218.199219 C 169.164062 217.640625 171.398438 216.976562 173.582031 216.203125 C 174.746094 214.769531 175.464844 212.808594 175.464844 210.648438 C 175.464844 206.273438 172.519531 202.714844 168.898438 202.714844 "/>
<path style=" stroke:none;fill-rule:nonzero;fill:rgb(48.629761%,9.01947%,14.118958%);fill-opacity:1;" d="M 178.28125 214.339844 C 182.039062 212.691406 185.628906 210.730469 189.007812 208.472656 C 187.871094 207.34375 186.417969 206.664062 184.835938 206.664062 C 181.289062 206.664062 178.394531 210.082031 178.28125 214.339844 "/>
<path style=" stroke:none;fill-rule:nonzero;fill:rgb(48.629761%,9.01947%,14.118958%);fill-opacity:1;" d="M 193.070312 186.984375 C 189.449219 186.984375 186.503906 190.546875 186.503906 194.921875 C 186.503906 199.296875 189.449219 202.855469 193.070312 202.855469 C 196.691406 202.855469 199.636719 199.296875 199.636719 194.921875 C 199.636719 190.546875 196.691406 186.984375 193.070312 186.984375 "/>
<path style=" stroke:none;fill-rule:nonzero;fill:rgb(48.629761%,9.01947%,14.118958%);fill-opacity:1;" d="M 205.480469 188.75 C 205.480469 190.011719 205.730469 191.203125 206.167969 192.265625 C 208.828125 188.730469 211.15625 184.9375 213.113281 180.933594 C 212.765625 180.863281 212.410156 180.816406 212.046875 180.816406 C 208.425781 180.816406 205.480469 184.378906 205.480469 188.75 "/>
<path style=" stroke:none;fill-rule:nonzero;fill:rgb(48.629761%,9.01947%,14.118958%);fill-opacity:1;" d="M 209.96875 175.628906 C 213.589844 175.628906 216.535156 172.066406 216.535156 167.691406 C 216.535156 163.316406 213.589844 159.757812 209.96875 159.757812 C 206.351562 159.757812 203.402344 163.316406 203.402344 167.691406 C 203.402344 172.066406 206.351562 175.628906 209.96875 175.628906 "/>
<path style=" stroke:none;fill-rule:nonzero;fill:rgb(48.629761%,9.01947%,14.118958%);fill-opacity:1;" d="M 215.222656 152.8125 C 215.222656 156.207031 217 159.097656 219.484375 160.230469 C 219.953125 156.957031 220.207031 153.613281 220.207031 150.207031 C 220.207031 148.515625 220.128906 146.84375 220.007812 145.179688 C 217.253906 146.121094 215.222656 149.183594 215.222656 152.8125 "/>
<path style=" stroke:none;fill-rule:nonzero;fill:rgb(48.629761%,9.01947%,14.118958%);fill-opacity:1;" d="M 211.214844 144.734375 C 214.835938 144.734375 217.78125 141.71875 217.78125 138.011719 C 217.78125 134.300781 214.835938 131.285156 211.214844 131.285156 C 207.59375 131.285156 204.648438 134.300781 204.648438 138.011719 C 204.648438 141.71875 207.59375 144.734375 211.214844 144.734375 "/>
<path style=" stroke:none;fill-rule:nonzero;fill:rgb(48.629761%,9.01947%,14.118958%);fill-opacity:1;" d="M 215.222656 124.621094 C 215.269531 124.621094 215.3125 124.609375 215.359375 124.605469 C 213.878906 120.847656 212.105469 117.242188 210.027344 113.832031 C 209.179688 114.964844 208.660156 116.363281 208.660156 117.894531 C 208.660156 121.601562 211.601562 124.621094 215.222656 124.621094 "/>
<path style=" stroke:none;fill-rule:nonzero;fill:rgb(48.629761%,9.01947%,14.118958%);fill-opacity:1;" d="M 200.324219 148.683594 C 195.925781 148.683594 192.351562 151.457031 192.351562 154.867188 C 192.351562 158.277344 195.925781 161.050781 200.324219 161.050781 C 204.722656 161.050781 208.300781 158.277344 208.300781 154.867188 C 208.300781 151.457031 204.722656 148.683594 200.324219 148.683594 "/>
<path style=" stroke:none;fill-rule:nonzero;fill:rgb(48.629761%,9.01947%,14.118958%);fill-opacity:1;" d="M 192.65625 169.789062 C 188.257812 169.789062 184.679688 172.5625 184.679688 175.972656 C 184.679688 179.378906 188.257812 182.15625 192.65625 182.15625 C 197.050781 182.15625 200.628906 179.378906 200.628906 175.972656 C 200.628906 172.5625 197.050781 169.789062 192.65625 169.789062 "/>
<path style=" stroke:none;fill-rule:nonzero;fill:rgb(48.629761%,9.01947%,14.118958%);fill-opacity:1;" d="M 175.027344 187.570312 C 170.628906 187.570312 167.054688 190.34375 167.054688 193.753906 C 167.054688 197.164062 170.628906 199.9375 175.027344 199.9375 C 179.421875 199.9375 183 197.164062 183 193.753906 C 183 190.34375 179.421875 187.570312 175.027344 187.570312 "/>
<path style=" stroke:none;fill-rule:nonzero;fill:rgb(48.629761%,9.01947%,14.118958%);fill-opacity:1;" d="M 149.78125 191.492188 C 145.382812 191.492188 141.804688 194.265625 141.804688 197.675781 C 141.804688 201.082031 145.382812 203.859375 149.78125 203.859375 C 154.179688 203.859375 157.753906 201.082031 157.753906 197.675781 C 157.753906 194.265625 154.179688 191.492188 149.78125 191.492188 "/>
<path style=" stroke:none;fill-rule:nonzero;fill:rgb(48.629761%,9.01947%,14.118958%);fill-opacity:1;" d="M 125.972656 185.722656 C 121.574219 185.722656 118 188.5 118 191.90625 C 118 195.316406 121.574219 198.089844 125.972656 198.089844 C 130.371094 198.089844 133.945312 195.316406 133.945312 191.90625 C 133.945312 188.5 130.371094 185.722656 125.972656 185.722656 "/>
<path style=" stroke:none;fill-rule:nonzero;fill:rgb(48.629761%,9.01947%,14.118958%);fill-opacity:1;" d="M 109.027344 172.003906 C 104.632812 172.003906 101.054688 174.777344 101.054688 178.1875 C 101.054688 181.597656 104.632812 184.371094 109.027344 184.371094 C 113.425781 184.371094 117.003906 181.597656 117.003906 178.1875 C 117.003906 174.777344 113.425781 172.003906 109.027344 172.003906 "/>
<path style=" stroke:none;fill-rule:nonzero;fill:rgb(48.629761%,9.01947%,14.118958%);fill-opacity:1;" d="M 107.988281 154.804688 C 107.988281 151.394531 104.410156 148.621094 100.011719 148.621094 C 95.617188 148.621094 92.039062 151.394531 92.039062 154.804688 C 92.039062 158.214844 95.617188 160.988281 100.011719 160.988281 C 104.410156 160.988281 107.988281 158.214844 107.988281 154.804688 "/>
<path style=" stroke:none;fill-rule:nonzero;fill:rgb(48.629761%,9.01947%,14.118958%);fill-opacity:1;" d="M 105.082031 135.742188 C 109.480469 135.742188 113.058594 132.96875 113.058594 129.558594 C 113.058594 126.148438 109.480469 123.375 105.082031 123.375 C 100.6875 123.375 97.109375 126.148438 97.109375 129.558594 C 97.109375 132.96875 100.6875 135.742188 105.082031 135.742188 "/>
<path style=" stroke:none;fill-rule:nonzero;fill:rgb(48.629761%,9.01947%,14.118958%);fill-opacity:1;" d="M 122.742188 146.761719 C 122.742188 150.773438 125.191406 154.039062 128.203125 154.039062 C 131.214844 154.039062 133.664062 150.773438 133.664062 146.761719 C 133.664062 142.75 131.214844 139.484375 128.203125 139.484375 C 125.191406 139.484375 122.742188 142.75 122.742188 146.761719 "/>
<path style=" stroke:none;fill-rule:nonzero;fill:rgb(48.629761%,9.01947%,14.118958%);fill-opacity:1;" d="M 134.449219 162.96875 C 131.003906 162.96875 128.203125 166.699219 128.203125 171.285156 C 128.203125 175.871094 131.003906 179.601562 134.449219 179.601562 C 137.890625 179.601562 140.691406 175.871094 140.691406 171.285156 C 140.691406 166.699219 137.890625 162.96875 134.449219 162.96875 "/>
<path style=" stroke:none;fill-rule:nonzero;fill:rgb(48.629761%,9.01947%,14.118958%);fill-opacity:1;" d="M 159.699219 166.75 C 155.640625 166.75 152.34375 171.289062 152.34375 176.867188 C 152.34375 182.445312 155.640625 186.984375 159.699219 186.984375 C 163.753906 186.984375 167.054688 182.445312 167.054688 176.867188 C 167.054688 171.289062 163.753906 166.75 159.699219 166.75 "/>
<path style=" stroke:none;fill-rule:nonzero;fill:rgb(65.489197%,12.548828%,20.388794%);fill-opacity:1;" d="M 155.160156 84.355469 L 153.390625 65.40625 C 153.125 65.476562 152.851562 65.527344 152.566406 65.527344 L 147.839844 65.527344 C 147.53125 65.527344 147.238281 65.46875 146.957031 65.390625 L 145.199219 84.359375 C 145.199219 84.359375 145.242188 85.867188 150.203125 85.867188 C 155.160156 85.867188 155.160156 84.355469 155.160156 84.355469 "/>
<path style=" stroke:none;fill-rule:nonzero;fill:rgb(65.489197%,12.548828%,20.388794%);fill-opacity:1;" d="M 145.199219 216.058594 L 146.957031 235.023438 C 147.238281 234.945312 147.53125 234.886719 147.839844 234.886719 L 152.566406 234.886719 C 152.851562 234.886719 153.125 234.9375 153.390625 235.007812 L 155.160156 216.058594 C 155.371094 213.4375 147.121094 212.871094 145.199219 216.058594 "/>
<path style=" stroke:none;fill-rule:nonzero;fill:rgb(65.489197%,12.548828%,20.388794%);fill-opacity:1;" d="M 195.632812 78.535156 C 195.367188 78.460938 195.109375 78.363281 194.859375 78.21875 L 190.773438 75.839844 C 190.511719 75.6875 190.285156 75.492188 190.082031 75.28125 L 179.035156 90.761719 C 179.035156 90.761719 181.914062 97.15625 187.628906 95.785156 L 195.632812 78.535156 "/>
<path style=" stroke:none;fill-rule:nonzero;fill:rgb(65.489197%,12.548828%,20.388794%);fill-opacity:1;" d="M 234.761719 148.519531 C 234.753906 148.210938 234.808594 147.917969 234.882812 147.636719 L 216.144531 146.417969 C 216.144531 146.417969 212.253906 150.207031 215.960938 156.375 L 234.949219 154.070312 C 234.875 153.804688 234.824219 153.53125 234.820312 153.246094 L 234.761719 148.519531 "/>
<path style=" stroke:none;fill-rule:nonzero;fill:rgb(65.489197%,12.548828%,20.388794%);fill-opacity:1;" d="M 226.105469 112.320312 C 225.917969 112.121094 225.742188 111.902344 225.605469 111.652344 L 223.34375 107.5 C 223.195312 107.230469 223.105469 106.949219 223.042969 106.664062 L 205.546875 114.164062 C 205.546875 114.164062 204.527344 120.882812 210.34375 122.890625 L 226.105469 112.320312 "/>
<path style=" stroke:none;fill-rule:nonzero;fill:rgb(65.489197%,12.548828%,20.388794%);fill-opacity:1;" d="M 190.082031 225.136719 C 190.285156 224.925781 190.507812 224.730469 190.773438 224.574219 L 194.859375 222.195312 C 195.109375 222.050781 195.367188 221.957031 195.632812 221.882812 L 187.628906 204.632812 C 186.457031 202.820312 180.320312 205.546875 179.03125 209.652344 L 190.082031 225.136719 "/>
<path style=" stroke:none;fill-rule:nonzero;fill:rgb(65.489197%,12.548828%,20.388794%);fill-opacity:1;" d="M 223.042969 193.753906 C 223.105469 193.46875 223.195312 193.183594 223.34375 192.914062 L 225.605469 188.761719 C 225.742188 188.511719 225.917969 188.292969 226.105469 188.097656 L 210.34375 177.523438 C 210.34375 177.523438 204.8125 180.558594 205.546875 186.25 L 223.042969 193.753906 "/>
<path style=" stroke:none;fill-rule:nonzero;fill:rgb(65.489197%,12.548828%,20.388794%);fill-opacity:1;" d="M 110.324219 75.28125 C 110.117188 75.492188 109.894531 75.6875 109.628906 75.839844 L 105.542969 78.21875 C 105.296875 78.363281 105.035156 78.460938 104.773438 78.535156 L 112.773438 95.785156 C 116.492188 96.28125 119.457031 94.820312 121.371094 90.761719 L 110.324219 75.28125 "/>
<path style=" stroke:none;fill-rule:nonzero;fill:rgb(65.489197%,12.548828%,20.388794%);fill-opacity:1;" d="M 84.261719 146.417969 L 65.519531 147.636719 C 65.59375 147.917969 65.648438 148.210938 65.644531 148.519531 L 65.582031 153.246094 C 65.578125 153.53125 65.527344 153.804688 65.453125 154.070312 L 84.441406 156.375 C 86.039062 155.710938 86.363281 146.769531 84.261719 146.417969 "/>
<path style=" stroke:none;fill-rule:nonzero;fill:rgb(65.489197%,12.548828%,20.388794%);fill-opacity:1;" d="M 77.359375 106.664062 C 77.296875 106.949219 77.207031 107.230469 77.058594 107.5 L 74.796875 111.652344 C 74.660156 111.902344 74.488281 112.121094 74.300781 112.320312 L 90.0625 122.890625 C 91.367188 123.539062 95.277344 118.042969 94.855469 114.164062 L 77.359375 106.664062 "/>
<path style=" stroke:none;fill-rule:nonzero;fill:rgb(65.489197%,12.548828%,20.388794%);fill-opacity:1;" d="M 104.773438 221.882812 C 105.035156 221.957031 105.296875 222.050781 105.542969 222.195312 L 109.628906 224.574219 C 109.894531 224.730469 110.117188 224.925781 110.324219 225.136719 L 121.371094 209.652344 C 122.277344 208.078125 116.96875 203.957031 112.773438 204.632812 L 104.773438 221.882812 "/>
<path style=" stroke:none;fill-rule:nonzero;fill:rgb(65.489197%,12.548828%,20.388794%);fill-opacity:1;" d="M 74.300781 188.097656 C 74.488281 188.292969 74.660156 188.511719 74.796875 188.761719 L 77.058594 192.914062 C 77.207031 193.183594 77.296875 193.46875 77.359375 193.753906 L 94.855469 186.25 C 96.015625 184.816406 93.410156 178.128906 90.0625 177.523438 L 74.300781 188.097656 "/>
<g clip-path="url(#clip1)" clip-rule="nonzero">
<path style=" stroke:none;fill-rule:nonzero;fill:rgb(86.669922%,16.859436%,28.62854%);fill-opacity:1;" d="M 152.566406 65.527344 C 152.851562 65.527344 153.125 65.476562 153.390625 65.410156 C 154.792969 65.039062 155.839844 63.765625 155.839844 62.253906 C 155.839844 60.453125 154.367188 58.980469 152.566406 58.980469 L 147.835938 58.980469 C 146.035156 58.980469 144.5625 60.453125 144.5625 62.253906 C 144.5625 63.746094 145.582031 65.003906 146.957031 65.390625 C 147.238281 65.46875 147.53125 65.527344 147.835938 65.527344 L 152.566406 65.527344 "/>
</g>
<g clip-path="url(#clip2)" clip-rule="nonzero">
<path style=" stroke:none;fill-rule:nonzero;fill:rgb(86.669922%,16.859436%,28.62854%);fill-opacity:1;" d="M 147.839844 234.886719 C 147.53125 234.886719 147.238281 234.945312 146.957031 235.023438 C 145.582031 235.414062 144.5625 236.667969 144.5625 238.164062 C 144.5625 239.964844 146.035156 241.4375 147.839844 241.4375 L 152.566406 241.4375 C 154.367188 241.4375 155.839844 239.964844 155.839844 238.164062 C 155.839844 236.648438 154.792969 235.375 153.390625 235.007812 C 153.125 234.9375 152.851562 234.886719 152.566406 234.886719 L 147.839844 234.886719 "/>
</g>
<path style=" stroke:none;fill-rule:nonzero;fill:rgb(86.669922%,16.859436%,28.62854%);fill-opacity:1;" d="M 190.773438 75.839844 L 194.859375 78.222656 C 195.109375 78.363281 195.367188 78.460938 195.628906 78.53125 C 197.03125 78.917969 198.574219 78.347656 199.335938 77.039062 C 200.242188 75.484375 199.710938 73.46875 198.15625 72.5625 L 194.070312 70.183594 C 192.511719 69.277344 190.5 69.808594 189.59375 71.363281 C 188.839844 72.65625 189.089844 74.253906 190.082031 75.28125 C 190.285156 75.492188 190.507812 75.6875 190.773438 75.839844 "/>
<g clip-path="url(#clip3)" clip-rule="nonzero">
<path style=" stroke:none;fill-rule:nonzero;fill:rgb(86.669922%,16.859436%,28.62854%);fill-opacity:1;" d="M 241.308594 148.433594 C 241.285156 146.632812 239.792969 145.179688 237.992188 145.199219 C 236.496094 145.21875 235.257812 146.257812 234.886719 147.636719 C 234.808594 147.917969 234.757812 148.210938 234.761719 148.515625 L 234.820312 153.246094 C 234.824219 153.53125 234.878906 153.804688 234.949219 154.066406 C 235.335938 155.464844 236.625 156.496094 238.136719 156.476562 C 239.9375 156.453125 241.390625 154.960938 241.367188 153.160156 L 241.308594 148.433594 "/>
</g>
<path style=" stroke:none;fill-rule:nonzero;fill:rgb(86.669922%,16.859436%,28.62854%);fill-opacity:1;" d="M 225.605469 111.652344 C 225.742188 111.902344 225.914062 112.121094 226.105469 112.320312 C 227.101562 113.375 228.714844 113.6875 230.046875 112.960938 C 231.628906 112.101562 232.21875 110.101562 231.355469 108.519531 L 229.09375 104.367188 C 228.230469 102.789062 226.234375 102.199219 224.652344 103.058594 C 223.339844 103.773438 222.726562 105.269531 223.042969 106.664062 C 223.105469 106.949219 223.195312 107.230469 223.34375 107.5 L 225.605469 111.652344 "/>
<path style=" stroke:none;fill-rule:nonzero;fill:rgb(86.669922%,16.859436%,28.62854%);fill-opacity:1;" d="M 190.773438 224.574219 C 190.507812 224.730469 190.285156 224.925781 190.082031 225.136719 C 189.089844 226.160156 188.839844 227.757812 189.59375 229.050781 C 190.5 230.605469 192.511719 231.136719 194.070312 230.234375 L 198.15625 227.851562 C 199.710938 226.945312 200.242188 224.933594 199.335938 223.375 C 198.574219 222.066406 197.03125 221.496094 195.632812 221.882812 C 195.367188 221.957031 195.109375 222.050781 194.859375 222.195312 L 190.773438 224.574219 "/>
<path style=" stroke:none;fill-rule:nonzero;fill:rgb(86.669922%,16.859436%,28.62854%);fill-opacity:1;" d="M 225.605469 188.761719 L 223.34375 192.917969 C 223.195312 193.183594 223.105469 193.46875 223.042969 193.753906 C 222.726562 195.144531 223.339844 196.640625 224.652344 197.355469 C 226.234375 198.21875 228.230469 197.628906 229.09375 196.046875 L 231.355469 191.894531 C 232.21875 190.3125 231.628906 188.316406 230.046875 187.453125 C 228.714844 186.730469 227.101562 187.039062 226.105469 188.097656 C 225.914062 188.292969 225.742188 188.511719 225.605469 188.761719 "/>
<path style=" stroke:none;fill-rule:nonzero;fill:rgb(86.669922%,16.859436%,28.62854%);fill-opacity:1;" d="M 109.628906 75.839844 C 109.894531 75.6875 110.117188 75.492188 110.324219 75.28125 C 111.3125 74.253906 111.5625 72.65625 110.8125 71.363281 C 109.90625 69.808594 107.890625 69.277344 106.335938 70.183594 L 102.25 72.5625 C 100.691406 73.46875 100.160156 75.484375 101.066406 77.039062 C 101.828125 78.347656 103.375 78.917969 104.773438 78.53125 C 105.035156 78.460938 105.296875 78.363281 105.542969 78.222656 L 109.628906 75.839844 "/>
<path style=" stroke:none;fill-rule:nonzero;fill:rgb(86.669922%,16.859436%,28.62854%);fill-opacity:1;" d="M 65.644531 148.519531 C 65.648438 148.210938 65.59375 147.917969 65.519531 147.636719 C 65.148438 146.257812 63.90625 145.21875 62.414062 145.203125 C 60.613281 145.179688 59.121094 146.632812 59.097656 148.433594 L 59.035156 153.160156 C 59.011719 154.960938 60.464844 156.453125 62.269531 156.476562 C 63.78125 156.496094 65.066406 155.46875 65.453125 154.070312 C 65.527344 153.804688 65.578125 153.53125 65.582031 153.246094 L 65.644531 148.519531 "/>
<path style=" stroke:none;fill-rule:nonzero;fill:rgb(86.669922%,16.859436%,28.62854%);fill-opacity:1;" d="M 74.796875 111.652344 L 77.058594 107.5 C 77.207031 107.230469 77.296875 106.949219 77.359375 106.664062 C 77.675781 105.269531 77.0625 103.773438 75.75 103.058594 C 74.171875 102.199219 72.171875 102.785156 71.308594 104.367188 L 69.046875 108.519531 C 68.1875 110.101562 68.773438 112.101562 70.355469 112.960938 C 71.6875 113.6875 73.304688 113.375 74.300781 112.320312 C 74.488281 112.121094 74.660156 111.902344 74.796875 111.652344 "/>
<path style=" stroke:none;fill-rule:nonzero;fill:rgb(86.669922%,16.859436%,28.62854%);fill-opacity:1;" d="M 109.628906 224.574219 L 105.542969 222.195312 C 105.296875 222.050781 105.035156 221.957031 104.773438 221.882812 C 103.375 221.496094 101.828125 222.066406 101.066406 223.375 C 100.160156 224.933594 100.691406 226.945312 102.25 227.851562 L 106.335938 230.234375 C 107.890625 231.136719 109.90625 230.605469 110.8125 229.050781 C 111.5625 227.757812 111.3125 226.160156 110.324219 225.136719 C 110.117188 224.925781 109.894531 224.730469 109.628906 224.574219 "/>
<path style=" stroke:none;fill-rule:nonzero;fill:rgb(86.669922%,16.859436%,28.62854%);fill-opacity:1;" d="M 74.796875 188.761719 C 74.660156 188.511719 74.488281 188.292969 74.300781 188.097656 C 73.304688 187.039062 71.6875 186.730469 70.355469 187.453125 C 68.773438 188.316406 68.1875 190.3125 69.046875 191.894531 L 71.308594 196.046875 C 72.171875 197.628906 74.171875 198.21875 75.75 197.355469 C 77.0625 196.640625 77.675781 195.144531 77.359375 193.753906 C 77.296875 193.46875 77.207031 193.183594 77.058594 192.914062 L 74.796875 188.761719 "/>
<path style=" stroke:none;fill-rule:nonzero;fill:rgb(72.938538%,14.118958%,23.139954%);fill-opacity:1;" d="M 171.992188 77.730469 L 167.949219 76.636719 C 167.785156 76.589844 167.613281 76.515625 167.414062 76.398438 L 166.710938 75.984375 L 159.492188 94.757812 L 159.710938 95.058594 C 160.824219 96.609375 163.308594 98.785156 166.351562 98.785156 C 167.480469 98.785156 168.683594 98.488281 169.925781 97.75 L 170.203125 97.585938 L 173.445312 77.773438 L 172.613281 77.789062 C 172.363281 77.796875 172.167969 77.777344 171.992188 77.730469 "/>
<path style=" stroke:none;fill-rule:nonzero;fill:rgb(72.938538%,14.118958%,23.139954%);fill-opacity:1;" d="M 193.527344 114.808594 L 193.910156 114.863281 L 206.738281 99.308594 L 206.007812 98.90625 C 205.796875 98.789062 205.636719 98.671875 205.503906 98.539062 L 202.5625 95.5625 C 202.445312 95.441406 202.332031 95.289062 202.222656 95.085938 L 201.820312 94.375 L 186.164062 106.945312 L 186.164062 107.277344 C 186.164062 107.339844 186.246094 113.761719 193.527344 114.808594 "/>
<path style=" stroke:none;fill-rule:nonzero;fill:rgb(72.938538%,14.118958%,23.139954%);fill-opacity:1;" d="M 203.320312 131.695312 L 203.152344 132.003906 C 203.121094 132.066406 199.988281 138.011719 205.605469 142.238281 L 205.902344 142.460938 L 224.851562 135.859375 L 224.433594 135.136719 C 224.3125 134.921875 224.234375 134.742188 224.191406 134.5625 L 223.21875 130.488281 C 223.179688 130.324219 223.164062 130.136719 223.171875 129.902344 L 223.199219 129.09375 L 203.320312 131.695312 "/>
<path style=" stroke:none;fill-rule:nonzero;fill:rgb(72.938538%,14.118958%,23.139954%);fill-opacity:1;" d="M 168.703125 201.996094 C 166.519531 201.609375 161.796875 202.839844 159.738281 205.316406 L 159.480469 205.628906 L 166.714844 224.433594 L 167.414062 224.019531 C 167.613281 223.898438 167.785156 223.824219 167.949219 223.777344 L 171.992188 222.683594 C 172.167969 222.636719 172.371094 222.617188 172.613281 222.625 L 173.445312 222.644531 L 170.21875 203.023438 C 170.085938 202.652344 169.710938 202.171875 168.703125 201.996094 "/>
<path style=" stroke:none;fill-rule:nonzero;fill:rgb(72.938538%,14.118958%,23.139954%);fill-opacity:1;" d="M 194.054688 185.75 C 193.265625 185.125 191.84375 185.292969 190.25 186.203125 C 187.917969 187.535156 185.753906 190.226562 186.171875 193.234375 L 186.207031 193.507812 L 201.820312 206.039062 L 202.222656 205.328125 C 202.332031 205.125 202.445312 204.972656 202.5625 204.851562 L 205.503906 201.875 C 205.632812 201.742188 205.796875 201.628906 206.007812 201.507812 L 206.738281 201.105469 L 194.15625 185.851562 L 194.054688 185.75 "/>
<path style=" stroke:none;fill-rule:nonzero;fill:rgb(72.938538%,14.118958%,23.139954%);fill-opacity:1;" d="M 205.507812 158.265625 C 205.34375 158.449219 201.480469 162.847656 203.097656 168.277344 L 203.226562 168.707031 L 223.199219 171.324219 L 223.171875 170.511719 C 223.164062 170.277344 223.179688 170.09375 223.21875 169.925781 L 224.191406 165.855469 C 224.234375 165.675781 224.3125 165.492188 224.433594 165.28125 L 224.851562 164.558594 L 205.816406 157.925781 L 205.507812 158.265625 "/>
<path style=" stroke:none;fill-rule:nonzero;fill:rgb(72.938538%,14.118958%,23.139954%);fill-opacity:1;" d="M 132.988281 76.398438 C 132.789062 76.515625 132.621094 76.589844 132.453125 76.636719 L 128.414062 77.730469 C 128.234375 77.777344 128.035156 77.796875 127.789062 77.789062 L 126.960938 77.773438 L 130.15625 97.289062 C 130.21875 97.601562 130.464844 98.160156 131.421875 98.410156 C 131.769531 98.503906 132.183594 98.546875 132.652344 98.546875 C 135.042969 98.546875 138.722656 97.375 140.65625 95.105469 L 140.921875 94.792969 L 133.691406 75.984375 L 132.988281 76.398438 "/>
<path style=" stroke:none;fill-rule:nonzero;fill:rgb(72.938538%,14.118958%,23.139954%);fill-opacity:1;" d="M 107.601562 115.125 C 107.894531 115.125 108.234375 115.070312 108.625 114.929688 C 111.007812 114.070312 113.914062 110.644531 114.238281 107.34375 L 114.273438 106.972656 L 98.578125 94.375 L 98.179688 95.089844 C 98.070312 95.289062 97.960938 95.4375 97.839844 95.5625 L 94.898438 98.539062 C 94.769531 98.671875 94.609375 98.789062 94.394531 98.90625 L 93.664062 99.308594 L 106.292969 114.613281 C 106.511719 114.832031 106.933594 115.125 107.601562 115.125 "/>
<path style=" stroke:none;fill-rule:nonzero;fill:rgb(72.938538%,14.118958%,23.139954%);fill-opacity:1;" d="M 94.304688 142.394531 L 94.464844 142.371094 C 94.964844 142.3125 95.421875 141.9375 95.855469 141.234375 C 97.050781 139.300781 98.183594 134.617188 97.292969 132.105469 L 97.152344 131.703125 L 77.199219 129.089844 L 77.230469 129.90625 C 77.238281 130.132812 77.222656 130.320312 77.183594 130.488281 L 76.210938 134.5625 C 76.167969 134.742188 76.089844 134.925781 75.96875 135.136719 L 75.554688 135.859375 L 94.152344 142.339844 L 94.304688 142.394531 "/>
<path style=" stroke:none;fill-rule:nonzero;fill:rgb(72.938538%,14.118958%,23.139954%);fill-opacity:1;" d="M 138.46875 202.988281 C 136.085938 201.722656 132.5625 201.210938 130.4375 202.691406 L 130.199219 202.859375 L 126.960938 222.644531 L 127.792969 222.625 C 128.027344 222.617188 128.234375 222.636719 128.414062 222.683594 L 132.453125 223.777344 C 132.621094 223.824219 132.789062 223.902344 132.988281 224.019531 L 133.691406 224.433594 L 140.777344 206.003906 L 140.820312 205.765625 C 140.835938 204.789062 140 203.800781 138.46875 202.988281 "/>
<path style=" stroke:none;fill-rule:nonzero;fill:rgb(72.938538%,14.118958%,23.139954%);fill-opacity:1;" d="M 106.734375 185.601562 L 106.4375 185.621094 L 93.664062 201.105469 L 94.394531 201.507812 C 94.609375 201.628906 94.769531 201.742188 94.898438 201.871094 L 97.839844 204.851562 C 97.960938 204.976562 98.070312 205.128906 98.179688 205.328125 L 98.578125 206.042969 L 113.980469 193.679688 L 114.109375 193.542969 C 114.800781 192.585938 114.148438 191.070312 113.699219 190.257812 C 112.394531 187.886719 109.671875 185.429688 106.734375 185.601562 "/>
<path style=" stroke:none;fill-rule:nonzero;fill:rgb(72.938538%,14.118958%,23.139954%);fill-opacity:1;" d="M 96.734375 168.765625 L 96.9375 168.707031 C 98.007812 168.203125 98.128906 166.132812 98.132812 165.265625 C 98.144531 162.730469 97.246094 159.332031 94.675781 158.105469 L 94.421875 157.980469 L 75.554688 164.558594 L 75.96875 165.28125 C 76.089844 165.492188 76.167969 165.675781 76.210938 165.855469 L 77.183594 169.921875 C 77.222656 170.09375 77.238281 170.28125 77.230469 170.507812 L 77.199219 171.324219 L 96.734375 168.765625 "/>
<path style=" stroke:none;fill-rule:nonzero;fill:rgb(86.669922%,16.859436%,28.62854%);fill-opacity:1;" d="M 173.324219 72.800781 L 169.285156 71.707031 C 167.746094 71.289062 166.144531 72.207031 165.730469 73.746094 C 165.382812 75.03125 165.96875 76.34375 167.0625 76.992188 C 167.28125 77.121094 167.511719 77.234375 167.769531 77.300781 L 171.808594 78.394531 C 172.082031 78.46875 172.359375 78.488281 172.625 78.480469 C 173.878906 78.453125 175.023438 77.621094 175.363281 76.355469 C 175.78125 74.816406 174.863281 73.21875 173.324219 72.800781 "/>
<path style=" stroke:none;fill-rule:nonzero;fill:rgb(86.669922%,16.859436%,28.62854%);fill-opacity:1;" d="M 206.195312 91.976562 C 205.078125 90.839844 203.234375 90.828125 202.097656 91.949219 C 201.152344 92.882812 201 94.3125 201.617188 95.421875 C 201.742188 95.644531 201.886719 95.859375 202.074219 96.046875 L 205.015625 99.023438 C 205.214844 99.226562 205.441406 99.378906 205.675781 99.511719 C 206.773438 100.113281 208.179688 99.972656 209.113281 99.050781 C 210.246094 97.929688 210.257812 96.085938 209.136719 94.953125 L 206.195312 91.976562 "/>
<path style=" stroke:none;fill-rule:nonzero;fill:rgb(86.669922%,16.859436%,28.62854%);fill-opacity:1;" d="M 223.523438 134.722656 C 223.585938 134.996094 223.703125 135.246094 223.835938 135.480469 C 224.460938 136.566406 225.738281 137.171875 227.015625 136.867188 C 228.5625 136.496094 229.53125 134.925781 229.160156 133.375 L 228.1875 129.304688 C 227.816406 127.753906 226.246094 126.789062 224.695312 127.15625 C 223.402344 127.46875 222.53125 128.613281 222.484375 129.882812 C 222.472656 130.136719 222.488281 130.390625 222.550781 130.648438 L 223.523438 134.722656 "/>
<path style=" stroke:none;fill-rule:nonzero;fill:rgb(86.669922%,16.859436%,28.62854%);fill-opacity:1;" d="M 172.628906 221.933594 C 172.359375 221.925781 172.082031 221.945312 171.808594 222.019531 L 167.769531 223.113281 C 167.511719 223.183594 167.28125 223.292969 167.0625 223.425781 C 165.96875 224.070312 165.382812 225.386719 165.730469 226.667969 C 166.144531 228.207031 167.746094 229.125 169.285156 228.707031 L 173.324219 227.613281 C 174.863281 227.199219 175.78125 225.597656 175.367188 224.058594 C 175.023438 222.796875 173.878906 221.964844 172.628906 221.933594 "/>
<path style=" stroke:none;fill-rule:nonzero;fill:rgb(86.669922%,16.859436%,28.62854%);fill-opacity:1;" d="M 205.675781 200.902344 C 205.441406 201.035156 205.214844 201.1875 205.015625 201.390625 L 202.074219 204.367188 C 201.886719 204.558594 201.742188 204.769531 201.617188 204.992188 C 201 206.101562 201.152344 207.535156 202.097656 208.464844 C 203.234375 209.585938 205.078125 209.574219 206.195312 208.441406 L 209.136719 205.460938 C 210.257812 204.328125 210.246094 202.484375 209.113281 201.363281 C 208.179688 200.441406 206.773438 200.300781 205.675781 200.902344 "/>
<path style=" stroke:none;fill-rule:nonzero;fill:rgb(86.669922%,16.859436%,28.62854%);fill-opacity:1;" d="M 227.015625 163.546875 C 225.738281 163.242188 224.460938 163.851562 223.835938 164.933594 C 223.703125 165.167969 223.585938 165.417969 223.523438 165.695312 L 222.550781 169.765625 C 222.488281 170.023438 222.472656 170.28125 222.484375 170.535156 C 222.53125 171.804688 223.402344 172.949219 224.695312 173.257812 C 226.246094 173.628906 227.816406 172.664062 228.1875 171.113281 L 229.160156 167.039062 C 229.53125 165.488281 228.5625 163.917969 227.015625 163.546875 "/>
<path style=" stroke:none;fill-rule:nonzero;fill:rgb(86.669922%,16.859436%,28.62854%);fill-opacity:1;" d="M 131.121094 71.707031 L 127.078125 72.800781 C 125.539062 73.21875 124.621094 74.816406 125.039062 76.355469 C 125.382812 77.621094 126.523438 78.453125 127.773438 78.480469 C 128.046875 78.488281 128.320312 78.46875 128.59375 78.394531 L 132.632812 77.300781 C 132.890625 77.234375 133.121094 77.121094 133.339844 76.992188 C 134.433594 76.34375 135.023438 75.03125 134.675781 73.746094 C 134.257812 72.207031 132.65625 71.289062 131.121094 71.707031 "/>
<path style=" stroke:none;fill-rule:nonzero;fill:rgb(86.669922%,16.859436%,28.62854%);fill-opacity:1;" d="M 94.207031 91.976562 L 91.265625 94.953125 C 90.144531 96.085938 90.15625 97.929688 91.292969 99.050781 C 92.222656 99.972656 93.628906 100.113281 94.726562 99.511719 C 94.964844 99.378906 95.191406 99.226562 95.390625 99.023438 L 98.332031 96.046875 C 98.519531 95.859375 98.660156 95.644531 98.785156 95.421875 C 99.402344 94.3125 99.25 92.882812 98.304688 91.949219 C 97.171875 90.828125 95.328125 90.839844 94.207031 91.976562 "/>
<path style=" stroke:none;fill-rule:nonzero;fill:rgb(86.669922%,16.859436%,28.62854%);fill-opacity:1;" d="M 75.710938 127.15625 C 74.160156 126.785156 72.585938 127.753906 72.214844 129.304688 L 71.242188 133.375 C 70.875 134.925781 71.839844 136.496094 73.390625 136.867188 C 74.664062 137.171875 75.941406 136.566406 76.566406 135.480469 C 76.699219 135.246094 76.816406 134.996094 76.882812 134.722656 L 77.855469 130.648438 C 77.917969 130.390625 77.929688 130.132812 77.917969 129.882812 C 77.875 128.613281 77 127.46875 75.710938 127.15625 "/>
<path style=" stroke:none;fill-rule:nonzero;fill:rgb(86.669922%,16.859436%,28.62854%);fill-opacity:1;" d="M 133.339844 223.425781 C 133.121094 223.292969 132.890625 223.183594 132.632812 223.113281 L 128.59375 222.019531 C 128.320312 221.945312 128.046875 221.925781 127.777344 221.933594 C 126.527344 221.964844 125.382812 222.796875 125.039062 224.058594 C 124.621094 225.597656 125.539062 227.199219 127.078125 227.613281 L 131.121094 228.707031 C 132.660156 229.125 134.257812 228.207031 134.675781 226.667969 C 135.023438 225.386719 134.433594 224.070312 133.339844 223.425781 "/>
<path style=" stroke:none;fill-rule:nonzero;fill:rgb(86.669922%,16.859436%,28.62854%);fill-opacity:1;" d="M 98.332031 204.367188 L 95.390625 201.390625 C 95.191406 201.1875 94.964844 201.035156 94.726562 200.902344 C 93.628906 200.300781 92.222656 200.441406 91.292969 201.363281 C 90.15625 202.484375 90.144531 204.328125 91.265625 205.460938 L 94.207031 208.441406 C 95.328125 209.574219 97.171875 209.585938 98.304688 208.464844 C 99.25 207.535156 99.402344 206.101562 98.785156 204.992188 C 98.660156 204.769531 98.519531 204.558594 98.332031 204.367188 "/>
<path style=" stroke:none;fill-rule:nonzero;fill:rgb(86.669922%,16.859436%,28.62854%);fill-opacity:1;" d="M 76.882812 165.695312 C 76.816406 165.417969 76.699219 165.167969 76.566406 164.933594 C 75.941406 163.851562 74.664062 163.242188 73.390625 163.546875 C 71.839844 163.917969 70.875 165.488281 71.242188 167.039062 L 72.214844 171.113281 C 72.585938 172.664062 74.160156 173.628906 75.710938 173.257812 C 77 172.949219 77.875 171.804688 77.917969 170.535156 C 77.929688 170.28125 77.917969 170.023438 77.855469 169.765625 L 76.882812 165.695312 "/>
<path style=" stroke:none;fill-rule:nonzero;fill:rgb(79.998779%,15.689087%,25.878906%);fill-opacity:1;" d="M 150.203125 109.515625 C 154.171875 109.515625 154.601562 108.007812 154.597656 107.3125 L 154.128906 94.886719 L 153.183594 94.726562 C 150.960938 94.355469 149.261719 94.03125 147.671875 93.671875 L 146.292969 93.359375 L 145.773438 107.398438 C 145.796875 108.1875 146.40625 109.515625 150.203125 109.515625 "/>
<path style=" stroke:none;fill-rule:nonzero;fill:rgb(79.998779%,15.689087%,25.878906%);fill-opacity:1;" d="M 152.597656 190.765625 C 150.667969 190.144531 147.1875 190.382812 145.941406 192.449219 L 145.761719 192.75 L 146.210938 204.804688 L 147.296875 204.847656 C 147.898438 204.871094 148.507812 204.882812 149.117188 204.882812 C 150.453125 204.882812 151.792969 204.828125 153.128906 204.71875 L 154.164062 204.628906 L 154.597656 193.152344 C 154.628906 192.753906 154.582031 191.40625 152.597656 190.765625 "/>
<path style=" stroke:none;fill-rule:nonzero;fill:rgb(79.998779%,15.689087%,25.878906%);fill-opacity:1;" d="M 175.761719 100.617188 L 174.800781 100.113281 L 167.628906 111.433594 L 167.890625 112.011719 C 168.582031 113.542969 170.5625 116.09375 173.535156 116.09375 C 173.949219 116.09375 174.378906 116.046875 174.828125 115.9375 L 175.34375 115.816406 L 180.972656 105.242188 L 181.367188 104.316406 L 180.59375 103.707031 C 179.1875 102.601562 177.609375 101.59375 175.761719 100.617188 "/>
<path style=" stroke:none;fill-rule:nonzero;fill:rgb(79.998779%,15.689087%,25.878906%);fill-opacity:1;" d="M 205.863281 147.96875 L 205.8125 146.878906 L 192.644531 146.554688 L 192.289062 146.902344 C 191.183594 147.980469 189.699219 151.019531 191.984375 154.824219 L 192.347656 155.429688 L 204.75 154.796875 L 205.820312 154.621094 L 205.867188 153.558594 C 205.894531 152.941406 205.921875 152.320312 205.933594 151.707031 C 205.953125 150.574219 205.933594 149.386719 205.863281 147.96875 "/>
<path style=" stroke:none;fill-rule:nonzero;fill:rgb(79.998779%,15.689087%,25.878906%);fill-opacity:1;" d="M 188.949219 133.542969 L 189.464844 133.71875 L 200.324219 127.257812 L 199.769531 126.261719 C 198.847656 124.613281 197.816406 122.957031 196.699219 121.347656 L 196.121094 120.515625 L 185.144531 125.976562 L 185.054688 126.578125 C 184.773438 128.425781 185.226562 132.253906 188.949219 133.542969 "/>
<path style=" stroke:none;fill-rule:nonzero;fill:rgb(79.998779%,15.689087%,25.878906%);fill-opacity:1;" d="M 175.542969 184.980469 C 175.273438 184.574219 174.613281 183.914062 173.183594 184.109375 C 171.1875 184.378906 168.566406 186.222656 167.839844 188.535156 L 167.679688 189.054688 L 173.777344 198.683594 L 174.730469 198.199219 C 176.449219 197.324219 178.160156 196.371094 179.820312 195.363281 L 180.769531 194.785156 L 175.59375 185.066406 L 175.542969 184.980469 "/>
<path style=" stroke:none;fill-rule:nonzero;fill:rgb(79.998779%,15.689087%,25.878906%);fill-opacity:1;" d="M 188.769531 166.953125 C 188.59375 167.050781 184.472656 169.363281 185.050781 173.8125 L 185.128906 174.433594 L 197.015625 180.34375 L 197.597656 179.527344 C 198.742188 177.921875 199.761719 176.277344 200.628906 174.632812 L 201.144531 173.644531 L 189.359375 166.628906 L 188.769531 166.953125 "/>
<path style=" stroke:none;fill-rule:nonzero;fill:rgb(79.998779%,15.689087%,25.878906%);fill-opacity:1;" d="M 125.140625 101.542969 C 123.320312 102.660156 121.828125 103.632812 120.453125 104.609375 L 121.132812 105.566406 L 120.308594 104.714844 L 119.464844 105.3125 L 125.09375 115.878906 L 125.691406 115.957031 C 126.046875 116.007812 126.390625 116.03125 126.726562 116.03125 C 129.277344 116.03125 131.261719 114.664062 132.503906 112.027344 L 132.78125 111.445312 L 126.125 100.941406 L 125.140625 101.542969 "/>
<path style=" stroke:none;fill-rule:nonzero;fill:rgb(79.998779%,15.689087%,25.878906%);fill-opacity:1;" d="M 107.863281 155.304688 C 109.867188 154.46875 109.367188 149.578125 109.363281 149.527344 C 109.160156 147.75 108.527344 146.757812 107.488281 146.585938 L 107.378906 146.566406 L 94.320312 146.886719 L 94.265625 147.972656 C 94.171875 149.832031 94.199219 151.757812 94.34375 153.703125 L 94.421875 154.734375 L 107.617188 155.40625 L 107.863281 155.304688 "/>
<path style=" stroke:none;fill-rule:nonzero;fill:rgb(79.998779%,15.689087%,25.878906%);fill-opacity:1;" d="M 111.222656 133.640625 C 111.546875 133.640625 111.941406 133.542969 112.390625 133.230469 C 113.753906 132.277344 115.628906 129.160156 115.355469 126.628906 L 115.289062 125.988281 L 104.152344 120.453125 L 103.574219 121.285156 C 102.578125 122.714844 101.589844 124.332031 100.558594 126.226562 L 100.011719 127.21875 L 110.546875 133.484375 C 110.703125 133.558594 110.933594 133.640625 111.222656 133.640625 "/>
<path style=" stroke:none;fill-rule:nonzero;fill:rgb(79.998779%,15.689087%,25.878906%);fill-opacity:1;" d="M 125.660156 184.460938 L 125.085938 184.550781 L 119.261719 195.488281 L 120.179688 196.070312 C 121.800781 197.101562 123.496094 198.066406 125.210938 198.9375 L 126.160156 199.417969 L 132.460938 189.472656 C 132.675781 189.097656 132.929688 188.316406 132.207031 187.273438 C 131.226562 185.851562 128.339844 184.03125 125.660156 184.460938 "/>
<path style=" stroke:none;fill-rule:nonzero;fill:rgb(79.998779%,15.689087%,25.878906%);fill-opacity:1;" d="M 101.882812 178.1875 L 102.867188 177.542969 Z M 111.277344 166.828125 L 110.847656 166.75 L 100.027344 173.1875 L 99.199219 173.824219 L 99.679688 174.996094 C 100.050781 175.871094 100.453125 176.742188 100.871094 177.605469 L 101.257812 178.308594 L 101.9375 178.269531 C 102.132812 178.5625 102.335938 178.855469 102.539062 179.144531 L 103.378906 180.347656 L 114.941406 174.597656 L 115.101562 174.398438 C 115.890625 173.425781 115.449219 171.773438 115.113281 170.875 C 114.464844 169.136719 113.117188 167.160156 111.277344 166.828125 "/>
<path style=" stroke:none;fill-rule:nonzero;fill:rgb(86.669922%,16.859436%,28.62854%);fill-opacity:1;" d="M 151.667969 89.765625 L 148.738281 89.765625 C 145.460938 89.765625 142.796875 92.429688 142.796875 95.707031 C 142.796875 98.347656 144.578125 100.695312 147.113281 101.410156 C 147.667969 101.570312 148.199219 101.648438 148.738281 101.648438 L 151.667969 101.648438 C 152.160156 101.648438 152.652344 101.582031 153.175781 101.445312 C 155.785156 100.757812 157.609375 98.398438 157.609375 95.707031 C 157.609375 92.429688 154.941406 89.765625 151.667969 89.765625 "/>
<path style=" stroke:none;fill-rule:nonzero;fill:rgb(86.669922%,16.859436%,28.62854%);fill-opacity:1;" d="M 153.183594 198.972656 C 152.664062 198.832031 152.167969 198.769531 151.667969 198.769531 L 148.738281 198.769531 C 148.199219 198.769531 147.667969 198.84375 147.128906 199 C 144.578125 199.71875 142.796875 202.066406 142.796875 204.707031 C 142.796875 207.984375 145.460938 210.648438 148.738281 210.648438 L 151.667969 210.648438 C 154.941406 210.648438 157.609375 207.984375 157.609375 204.707031 C 157.609375 202.015625 155.78125 199.65625 153.183594 198.972656 "/>
<path style=" stroke:none;fill-rule:nonzero;fill:rgb(86.669922%,16.859436%,28.62854%);fill-opacity:1;" d="M 181.886719 98.714844 L 179.351562 97.242188 C 176.527344 95.59375 172.878906 96.554688 171.226562 99.386719 C 169.902344 101.664062 170.257812 104.585938 172.101562 106.5 C 172.503906 106.914062 172.917969 107.242188 173.375 107.507812 L 175.914062 108.988281 C 176.34375 109.234375 176.804688 109.425781 177.308594 109.566406 C 177.835938 109.710938 178.371094 109.78125 178.898438 109.78125 C 180.976562 109.78125 182.949219 108.691406 184.027344 106.839844 C 184.824219 105.46875 185.042969 103.871094 184.636719 102.332031 C 184.230469 100.796875 183.253906 99.511719 181.886719 98.714844 "/>
<path style=" stroke:none;fill-rule:nonzero;fill:rgb(86.669922%,16.859436%,28.62854%);fill-opacity:1;" d="M 210.566406 149.054688 C 210.523438 145.804688 207.867188 143.195312 204.625 143.195312 C 204.597656 143.195312 204.574219 143.195312 204.546875 143.195312 C 201.910156 143.226562 199.585938 145.039062 198.898438 147.597656 C 198.746094 148.152344 198.675781 148.679688 198.6875 149.210938 L 198.722656 152.152344 C 198.730469 152.636719 198.800781 153.121094 198.945312 153.644531 C 199.65625 156.222656 202.003906 158.003906 204.664062 158.003906 C 204.6875 158.003906 204.714844 158.003906 204.742188 158.003906 C 208.011719 157.960938 210.644531 155.265625 210.605469 151.988281 L 210.566406 149.054688 "/>
<path style=" stroke:none;fill-rule:nonzero;fill:rgb(86.669922%,16.859436%,28.62854%);fill-opacity:1;" d="M 192.089844 125.617188 L 193.488281 128.1875 L 193.492188 128.191406 C 193.734375 128.632812 194.03125 129.039062 194.390625 129.417969 C 195.546875 130.640625 197.125 131.285156 198.722656 131.285156 C 199.6875 131.285156 200.660156 131.050781 201.546875 130.5625 C 202.9375 129.804688 203.953125 128.550781 204.402344 127.027344 C 204.851562 125.503906 204.683594 123.894531 203.921875 122.503906 L 202.519531 119.929688 C 200.953125 117.054688 197.339844 115.988281 194.460938 117.554688 C 192.144531 118.820312 190.9375 121.503906 191.523438 124.09375 C 191.648438 124.660156 191.835938 125.160156 192.089844 125.617188 "/>
<path style=" stroke:none;fill-rule:nonzero;fill:rgb(86.669922%,16.859436%,28.62854%);fill-opacity:1;" d="M 177.316406 190.847656 C 176.796875 190.992188 176.335938 191.183594 175.90625 191.433594 L 173.375 192.90625 C 172.917969 193.171875 172.5 193.5 172.09375 193.921875 C 170.257812 195.828125 169.902344 198.75 171.230469 201.03125 C 172.332031 202.925781 174.324219 203.980469 176.371094 203.980469 C 177.386719 203.980469 178.414062 203.71875 179.351562 203.175781 L 181.886719 201.699219 C 183.253906 200.902344 184.230469 199.617188 184.636719 198.082031 C 185.042969 196.546875 184.824219 194.945312 184.03125 193.578125 C 182.675781 191.25 179.914062 190.125 177.316406 190.847656 "/>
<path style=" stroke:none;fill-rule:nonzero;fill:rgb(86.669922%,16.859436%,28.62854%);fill-opacity:1;" d="M 201.546875 169.851562 C 199.1875 168.5625 196.242188 169.035156 194.390625 170.996094 C 194.027344 171.386719 193.730469 171.785156 193.492188 172.222656 L 192.097656 174.785156 C 191.839844 175.253906 191.652344 175.753906 191.519531 176.324219 C 190.9375 178.910156 192.144531 181.597656 194.464844 182.859375 C 195.363281 183.347656 196.335938 183.582031 197.292969 183.582031 C 199.402344 183.582031 201.445312 182.460938 202.519531 180.484375 L 203.921875 177.910156 C 204.679688 176.519531 204.851562 174.914062 204.402344 173.390625 C 203.953125 171.867188 202.9375 170.609375 201.546875 169.851562 "/>
<path style=" stroke:none;fill-rule:nonzero;fill:rgb(86.669922%,16.859436%,28.62854%);fill-opacity:1;" d="M 121.507812 109.78125 C 122.035156 109.78125 122.566406 109.710938 123.097656 109.566406 C 123.613281 109.421875 124.074219 109.230469 124.496094 108.984375 L 127.03125 107.507812 C 127.496094 107.238281 127.914062 106.902344 128.304688 106.496094 C 130.144531 104.589844 130.503906 101.664062 129.175781 99.386719 C 127.527344 96.554688 123.882812 95.59375 121.050781 97.238281 L 118.519531 98.714844 C 115.6875 100.363281 114.726562 104.007812 116.375 106.839844 C 117.457031 108.695312 119.433594 109.78125 121.507812 109.78125 "/>
<path style=" stroke:none;fill-rule:nonzero;fill:rgb(86.669922%,16.859436%,28.62854%);fill-opacity:1;" d="M 101.453125 153.65625 C 101.601562 153.144531 101.675781 152.648438 101.679688 152.140625 L 101.71875 149.1875 C 101.722656 148.664062 101.652344 148.144531 101.507812 147.601562 C 100.820312 145.039062 98.496094 143.226562 95.855469 143.195312 C 94.234375 143.203125 92.769531 143.773438 91.632812 144.882812 C 90.496094 145.992188 89.859375 147.476562 89.839844 149.058594 L 89.800781 151.984375 C 89.78125 153.570312 90.378906 155.070312 91.488281 156.207031 C 92.59375 157.34375 94.078125 157.984375 95.664062 158.003906 C 95.691406 158.003906 95.714844 158.003906 95.742188 158.003906 C 98.398438 158.003906 100.746094 156.222656 101.453125 153.65625 "/>
<path style=" stroke:none;fill-rule:nonzero;fill:rgb(86.669922%,16.859436%,28.62854%);fill-opacity:1;" d="M 98.851562 130.5625 C 99.742188 131.046875 100.714844 131.285156 101.679688 131.285156 C 103.28125 131.285156 104.863281 130.636719 106.019531 129.410156 C 106.386719 129.023438 106.675781 128.625 106.914062 128.191406 L 108.324219 125.605469 C 108.570312 125.144531 108.753906 124.648438 108.882812 124.089844 C 109.46875 121.503906 108.257812 118.820312 105.941406 117.554688 C 103.066406 115.988281 99.449219 117.054688 97.882812 119.929688 L 96.480469 122.503906 C 95.71875 123.894531 95.550781 125.503906 96 127.027344 C 96.449219 128.550781 97.464844 129.804688 98.851562 130.5625 "/>
<path style=" stroke:none;fill-rule:nonzero;fill:rgb(86.669922%,16.859436%,28.62854%);fill-opacity:1;" d="M 127.03125 192.90625 L 124.511719 191.441406 C 124.082031 191.1875 123.617188 190.996094 123.09375 190.851562 C 120.492188 190.128906 117.730469 191.25 116.375 193.578125 C 114.726562 196.410156 115.691406 200.050781 118.519531 201.699219 L 121.050781 203.175781 C 121.96875 203.710938 122.992188 203.984375 124.027344 203.984375 C 124.539062 203.984375 125.050781 203.917969 125.554688 203.78125 C 127.09375 203.378906 128.378906 202.398438 129.175781 201.03125 C 130.503906 198.75 130.144531 195.828125 128.3125 193.925781 C 127.914062 193.511719 127.496094 193.179688 127.03125 192.90625 "/>
<path style=" stroke:none;fill-rule:nonzero;fill:rgb(86.669922%,16.859436%,28.62854%);fill-opacity:1;" d="M 108.316406 174.800781 L 106.914062 172.226562 L 106.914062 172.222656 C 106.679688 171.796875 106.390625 171.402344 106.015625 171 C 104.160156 169.035156 101.21875 168.5625 98.855469 169.851562 C 97.464844 170.609375 96.449219 171.867188 96 173.390625 C 95.550781 174.914062 95.722656 176.519531 96.480469 177.910156 L 97.882812 180.484375 C 98.957031 182.460938 101 183.582031 103.109375 183.582031 C 104.066406 183.582031 105.039062 183.347656 105.941406 182.859375 C 108.261719 181.59375 109.472656 178.90625 108.882812 176.320312 C 108.753906 175.761719 108.570312 175.269531 108.316406 174.800781 "/>
<path style=" stroke:none;fill-rule:nonzero;fill:rgb(86.669922%,16.859436%,28.62854%);fill-opacity:1;" d="M 170 139.277344 L 178.105469 130.484375 C 179 129.519531 179.398438 128.195312 179.183594 126.898438 C 179.003906 125.769531 178.378906 124.773438 177.464844 124.113281 L 176.621094 123.253906 C 175.964844 122.34375 174.972656 121.722656 173.851562 121.535156 C 172.570312 121.320312 171.253906 121.703125 170.285156 122.574219 L 161.394531 130.5625 C 160.488281 131.375 159.972656 132.53125 159.972656 133.746094 C 159.972656 136.710938 162.128906 140.019531 166.242188 140.609375 C 166.445312 140.640625 166.648438 140.652344 166.851562 140.652344 C 168.039062 140.652344 169.179688 140.160156 170 139.277344 "/>
<path style=" stroke:none;fill-rule:nonzero;fill:rgb(86.669922%,16.859436%,28.62854%);fill-opacity:1;" d="M 161.808594 169.625 C 161.769531 169.441406 161.71875 169.265625 161.65625 169.089844 C 161.085938 167.523438 159.714844 166.410156 157.984375 166.109375 C 155.851562 165.734375 152.550781 166.625 150.769531 168.769531 C 149.832031 169.898438 149.539062 171.425781 149.988281 172.820312 L 153.652344 184.195312 C 154.050781 185.433594 154.988281 186.425781 156.207031 186.886719 C 156.699219 187.070312 157.210938 187.164062 157.726562 187.164062 C 158.320312 187.164062 158.917969 187.039062 159.46875 186.792969 L 160.628906 186.480469 C 161.75 186.367188 162.785156 185.820312 163.511719 184.945312 C 164.351562 183.929688 164.675781 182.582031 164.390625 181.292969 L 161.808594 169.625 "/>
<path style=" stroke:none;fill-rule:nonzero;fill:rgb(86.669922%,16.859436%,28.62854%);fill-opacity:1;" d="M 187.039062 155.183594 C 186.546875 153.960938 185.519531 153.03125 184.25 152.664062 L 172.792969 149.359375 C 171.210938 148.902344 169.511719 149.394531 168.414062 150.617188 C 167.007812 152.1875 165.699219 155.136719 166.632812 158.28125 C 167.089844 159.816406 168.367188 160.972656 169.941406 161.269531 L 181.664062 163.488281 C 181.929688 163.535156 182.195312 163.5625 182.460938 163.5625 C 183.472656 163.5625 184.464844 163.199219 185.25 162.527344 C 186.113281 161.785156 186.640625 160.734375 186.730469 159.613281 L 187.007812 158.449219 C 187.445312 157.414062 187.460938 156.238281 187.039062 155.183594 "/>
<path style=" stroke:none;fill-rule:nonzero;fill:rgb(86.669922%,16.859436%,28.62854%);fill-opacity:1;" d="M 150.417969 127.59375 L 146.75 116.21875 C 146.351562 114.976562 145.40625 113.988281 144.1875 113.527344 C 143.125 113.125 141.953125 113.164062 140.929688 113.625 L 139.769531 113.9375 C 138.648438 114.046875 137.609375 114.597656 136.886719 115.480469 C 136.050781 116.496094 135.730469 117.839844 136.011719 119.125 L 138.574219 130.699219 C 138.914062 132.417969 140.222656 133.773438 141.988281 134.234375 C 142.4375 134.351562 142.941406 134.410156 143.476562 134.410156 C 145.53125 134.410156 148.027344 133.53125 149.597656 131.6875 C 150.5625 130.558594 150.875 129.007812 150.417969 127.59375 "/>
<path style=" stroke:none;fill-rule:nonzero;fill:rgb(86.669922%,16.859436%,28.62854%);fill-opacity:1;" d="M 128.796875 151.222656 C 128.972656 151.222656 129.148438 151.210938 129.320312 151.191406 C 130.140625 151.089844 131.683594 150.65625 132.78125 148.878906 C 133.675781 147.433594 134.550781 144.320312 133.703125 141.925781 C 133.195312 140.488281 131.960938 139.429688 130.460938 139.148438 L 118.742188 136.929688 C 117.460938 136.6875 116.140625 137.039062 115.152344 137.886719 C 114.289062 138.628906 113.761719 139.679688 113.675781 140.800781 L 113.398438 141.964844 C 112.957031 143 112.941406 144.175781 113.367188 145.230469 C 113.855469 146.453125 114.886719 147.382812 116.152344 147.75 L 127.609375 151.054688 C 127.996094 151.167969 128.398438 151.222656 128.796875 151.222656 "/>
<path style=" stroke:none;fill-rule:nonzero;fill:rgb(86.669922%,16.859436%,28.62854%);fill-opacity:1;" d="M 133.289062 159.769531 C 132.1875 159.835938 131.152344 160.328125 130.40625 161.140625 L 122.296875 169.929688 C 121.40625 170.894531 121.007812 172.210938 121.214844 173.507812 C 121.398438 174.636719 122.019531 175.640625 122.933594 176.300781 L 123.78125 177.15625 C 124.4375 178.070312 125.429688 178.695312 126.550781 178.878906 C 126.789062 178.917969 127.019531 178.9375 127.257812 178.9375 C 128.304688 178.9375 129.328125 178.554688 130.117188 177.839844 L 139.007812 169.855469 C 139.234375 169.652344 139.4375 169.425781 139.617188 169.179688 C 140.742188 167.625 140.78125 165.550781 139.726562 163.628906 C 138.683594 161.730469 136.332031 159.578125 133.289062 159.769531 "/>
<path style=" stroke:none;fill-rule:nonzero;fill:rgb(93.728638%,18.429565%,31.369019%);fill-opacity:1;" d="M 180.914062 128.132812 C 180.929688 126.238281 180.203125 124.457031 178.875 123.113281 L 177.65625 121.878906 C 176.332031 120.535156 174.558594 119.785156 172.667969 119.773438 C 172.652344 119.773438 172.636719 119.773438 172.621094 119.773438 C 170.746094 119.773438 168.984375 120.496094 167.65625 121.8125 C 165.398438 124.035156 164.902344 127.523438 166.453125 130.296875 C 166.765625 130.855469 167.144531 131.363281 167.585938 131.816406 L 168.835938 133.082031 C 169.304688 133.546875 169.84375 133.953125 170.429688 134.269531 C 171.492188 134.859375 172.667969 135.144531 173.839844 135.144531 C 175.664062 135.144531 177.46875 134.449219 178.8125 133.117188 C 180.15625 131.792969 180.90625 130.019531 180.914062 128.132812 "/>
<path style=" stroke:none;fill-rule:nonzero;fill:rgb(93.728638%,18.429565%,31.369019%);fill-opacity:1;" d="M 159.664062 174.15625 C 158.972656 174.140625 158.304688 174.21875 157.667969 174.390625 L 155.964844 174.851562 C 155.367188 175.015625 154.785156 175.261719 154.230469 175.589844 C 151.496094 177.203125 150.164062 180.464844 150.992188 183.53125 C 151.847656 186.675781 154.710938 188.75 157.820312 188.75 C 158.433594 188.75 159.050781 188.671875 159.664062 188.503906 L 161.34375 188.050781 C 165.109375 187.035156 167.34375 183.144531 166.324219 179.371094 C 165.511719 176.371094 162.769531 174.230469 159.664062 174.15625 "/>
<path style=" stroke:none;fill-rule:nonzero;fill:rgb(93.728638%,18.429565%,31.369019%);fill-opacity:1;" d="M 183.496094 150.046875 L 183.492188 150.042969 C 180.472656 149.324219 177.273438 150.707031 175.734375 153.390625 C 175.394531 153.976562 175.140625 154.597656 174.972656 155.28125 L 174.566406 156.972656 C 174.425781 157.566406 174.363281 158.164062 174.382812 158.867188 C 174.496094 162.03125 176.726562 164.757812 179.804688 165.496094 C 180.355469 165.628906 180.90625 165.691406 181.457031 165.691406 C 182.75 165.691406 184.019531 165.335938 185.148438 164.644531 C 186.761719 163.652344 187.890625 162.097656 188.328125 160.261719 L 188.730469 158.566406 C 189.636719 154.773438 187.285156 150.949219 183.496094 150.046875 "/>
<path style=" stroke:none;fill-rule:nonzero;fill:rgb(93.728638%,18.429565%,31.369019%);fill-opacity:1;" d="M 146.105469 112.605469 C 144.464844 111.660156 142.554688 111.417969 140.734375 111.910156 L 139.058594 112.363281 C 135.292969 113.382812 133.058594 117.273438 134.078125 121.046875 C 134.890625 124.042969 137.632812 126.183594 140.738281 126.257812 C 140.796875 126.261719 140.855469 126.261719 140.917969 126.261719 C 141.546875 126.261719 142.164062 126.179688 142.753906 126.019531 L 144.40625 125.570312 C 145.019531 125.410156 145.597656 125.167969 146.179688 124.820312 C 148.910156 123.207031 150.238281 119.945312 149.414062 116.894531 C 148.921875 115.070312 147.746094 113.546875 146.105469 112.605469 "/>
<path style=" stroke:none;fill-rule:nonzero;fill:rgb(93.728638%,18.429565%,31.369019%);fill-opacity:1;" d="M 124.691406 146.988281 C 125.035156 146.390625 125.285156 145.757812 125.429688 145.132812 L 125.835938 143.441406 L 125.835938 143.433594 C 125.980469 142.820312 126.042969 142.183594 126.019531 141.546875 C 125.90625 138.378906 123.675781 135.648438 120.601562 134.917969 C 118.765625 134.476562 116.867188 134.78125 115.253906 135.773438 C 113.640625 136.761719 112.511719 138.320312 112.074219 140.152344 L 111.671875 141.847656 C 110.765625 145.640625 113.113281 149.460938 116.90625 150.371094 C 117.441406 150.496094 117.984375 150.558594 118.519531 150.558594 C 121.007812 150.558594 123.398438 149.230469 124.691406 146.988281 "/>
<path style=" stroke:none;fill-rule:nonzero;fill:rgb(93.728638%,18.429565%,31.369019%);fill-opacity:1;" d="M 132.816406 168.597656 L 131.597656 167.367188 C 131.132812 166.894531 130.59375 166.484375 129.976562 166.144531 C 127.253906 164.636719 123.804688 165.113281 121.589844 167.296875 C 118.816406 170.035156 118.785156 174.519531 121.527344 177.300781 L 122.75 178.539062 C 124.078125 179.882812 125.847656 180.628906 127.738281 180.640625 C 127.753906 180.640625 127.769531 180.640625 127.785156 180.640625 C 129.660156 180.640625 131.425781 179.914062 132.75 178.605469 C 135.003906 176.378906 135.5 172.890625 133.957031 170.136719 C 133.636719 169.550781 133.242188 169.027344 132.816406 168.597656 "/>
<path style=" stroke:none;fill-rule:nonzero;fill:rgb(93.728638%,18.429565%,31.369019%);fill-opacity:1;" d="M 150.179688 138.785156 C 143.882812 138.785156 138.757812 143.910156 138.757812 150.207031 C 138.757812 156.503906 143.882812 161.628906 150.179688 161.628906 C 156.476562 161.628906 161.597656 156.503906 161.597656 150.207031 C 161.597656 143.910156 156.476562 138.785156 150.179688 138.785156 "/>
</g>
</svg>
