<?xml version="1.0" encoding="UTF-8"?>
<svg xmlns="http://www.w3.org/2000/svg" xmlns:xlink="http://www.w3.org/1999/xlink" width="300pt" height="299.999988pt" viewBox="0 0 300 299.999988" version="1.2">
<defs>
<clipPath id="clip1">
  <path d="M 74.65625 71.105469 L 225.40625 71.105469 L 225.40625 228.324219 L 74.65625 228.324219 Z M 74.65625 71.105469 "/>
</clipPath>
</defs>
<g id="surface1">
<g clip-path="url(#clip1)" clip-rule="nonzero">
<path style=" stroke:none;fill-rule:nonzero;fill:rgb(0%,0%,0%);fill-opacity:1;" d="M 150.066406 71.191406 L 74.863281 98.640625 L 74.863281 198.566406 L 150.066406 228.507812 L 225.269531 198.566406 L 225.269531 98.640625 L 223.679688 98.058594 Z M 150.066406 76.332031 L 220.417969 102.015625 L 220.417969 195.292969 L 150.066406 223.3125 L 79.714844 195.292969 L 79.714844 102.015625 Z M 150.066406 78.59375 C 149.746094 78.59375 149.433594 78.652344 149.136719 78.777344 C 148.839844 78.898438 148.578125 79.074219 148.351562 79.300781 C 148.125 79.527344 147.949219 79.789062 147.824219 80.082031 C 147.703125 80.378906 147.640625 80.6875 147.640625 81.007812 C 147.640625 81.328125 147.703125 81.636719 147.824219 81.929688 C 147.949219 82.226562 148.125 82.488281 148.351562 82.714844 C 148.578125 82.941406 148.839844 83.117188 149.136719 83.238281 C 149.433594 83.359375 149.746094 83.421875 150.066406 83.421875 C 150.386719 83.421875 150.695312 83.359375 150.996094 83.238281 C 151.292969 83.117188 151.554688 82.941406 151.78125 82.714844 C 152.007812 82.488281 152.183594 82.226562 152.308594 81.929688 C 152.429688 81.636719 152.492188 81.328125 152.492188 81.007812 C 152.492188 80.6875 152.429688 80.378906 152.308594 80.082031 C 152.183594 79.789062 152.007812 79.527344 151.78125 79.300781 C 151.554688 79.074219 151.292969 78.898438 150.996094 78.777344 C 150.695312 78.652344 150.386719 78.59375 150.066406 78.59375 Z M 150.066406 88.253906 C 149.746094 88.253906 149.433594 88.3125 149.136719 88.4375 C 148.839844 88.558594 148.578125 88.734375 148.351562 88.960938 C 148.125 89.1875 147.949219 89.449219 147.824219 89.742188 C 147.703125 90.039062 147.640625 90.347656 147.640625 90.667969 C 147.640625 90.988281 147.703125 91.296875 147.824219 91.589844 C 147.949219 91.886719 148.125 92.148438 148.351562 92.375 C 148.578125 92.601562 148.839844 92.777344 149.136719 92.898438 C 149.433594 93.019531 149.746094 93.082031 150.066406 93.082031 C 150.386719 93.082031 150.695312 93.019531 150.996094 92.898438 C 151.292969 92.777344 151.554688 92.601562 151.78125 92.375 C 152.007812 92.148438 152.183594 91.886719 152.308594 91.589844 C 152.429688 91.296875 152.492188 90.988281 152.492188 90.667969 C 152.492188 90.347656 152.429688 90.039062 152.308594 89.742188 C 152.183594 89.449219 152.007812 89.1875 151.78125 88.960938 C 151.554688 88.734375 151.292969 88.558594 150.996094 88.4375 C 150.695312 88.3125 150.386719 88.253906 150.066406 88.253906 Z M 150.066406 97.914062 C 149.746094 97.914062 149.433594 97.972656 149.136719 98.097656 C 148.839844 98.21875 148.578125 98.394531 148.351562 98.621094 C 148.125 98.847656 147.949219 99.109375 147.824219 99.402344 C 147.703125 99.699219 147.640625 100.007812 147.640625 100.328125 C 147.640625 100.648438 147.703125 100.957031 147.824219 101.25 C 147.949219 101.546875 148.125 101.808594 148.351562 102.035156 C 148.578125 102.261719 148.839844 102.4375 149.136719 102.558594 C 149.433594 102.679688 149.746094 102.742188 150.066406 102.742188 C 150.386719 102.742188 150.695312 102.679688 150.996094 102.558594 C 151.292969 102.4375 151.554688 102.261719 151.78125 102.035156 C 152.007812 101.808594 152.183594 101.546875 152.308594 101.25 C 152.429688 100.957031 152.492188 100.648438 152.492188 100.328125 C 152.492188 100.007812 152.429688 99.699219 152.308594 99.402344 C 152.183594 99.109375 152.007812 98.847656 151.78125 98.621094 C 151.554688 98.394531 151.292969 98.21875 150.996094 98.097656 C 150.695312 97.972656 150.386719 97.914062 150.066406 97.914062 Z M 150.066406 107.574219 C 149.746094 107.574219 149.433594 107.632812 149.136719 107.757812 C 148.839844 107.878906 148.578125 108.054688 148.351562 108.28125 C 148.125 108.507812 147.949219 108.769531 147.824219 109.0625 C 147.703125 109.359375 147.640625 109.667969 147.640625 109.988281 C 147.640625 110.308594 147.703125 110.617188 147.824219 110.910156 C 147.949219 111.207031 148.125 111.46875 148.351562 111.695312 C 148.578125 111.921875 148.839844 112.097656 149.136719 112.21875 C 149.433594 112.339844 149.746094 112.402344 150.066406 112.402344 C 150.386719 112.402344 150.695312 112.339844 150.996094 112.21875 C 151.292969 112.097656 151.554688 111.921875 151.78125 111.695312 C 152.007812 111.46875 152.183594 111.207031 152.308594 110.910156 C 152.429688 110.617188 152.492188 110.308594 152.492188 109.988281 C 152.492188 109.667969 152.429688 109.359375 152.308594 109.0625 C 152.183594 108.769531 152.007812 108.507812 151.78125 108.28125 C 151.554688 108.054688 151.292969 107.878906 150.996094 107.757812 C 150.695312 107.632812 150.386719 107.574219 150.066406 107.574219 Z M 133.085938 111.839844 L 94.269531 127.007812 L 94.269531 159.898438 L 97.621094 158.519531 L 133.085938 143.980469 Z M 171.898438 116.171875 L 171.898438 179.246094 L 176.871094 181.222656 L 177.097656 181.3125 L 186.105469 184.902344 L 186.214844 184.945312 L 186.332031 184.992188 L 195.339844 188.574219 L 195.570312 188.671875 L 201.011719 190.835938 L 201.011719 126.972656 Z M 150.066406 117.234375 C 149.746094 117.234375 149.433594 117.292969 149.136719 117.417969 C 148.839844 117.539062 148.578125 117.714844 148.351562 117.941406 C 148.125 118.167969 147.949219 118.429688 147.824219 118.722656 C 147.703125 119.019531 147.640625 119.328125 147.640625 119.648438 C 147.640625 119.96875 147.703125 120.277344 147.824219 120.570312 C 147.949219 120.867188 148.125 121.128906 148.351562 121.355469 C 148.578125 121.582031 148.839844 121.757812 149.136719 121.878906 C 149.433594 122 149.746094 122.0625 150.066406 122.0625 C 150.386719 122.0625 150.695312 122 150.996094 121.878906 C 151.292969 121.757812 151.554688 121.582031 151.78125 121.355469 C 152.007812 121.128906 152.183594 120.867188 152.308594 120.570312 C 152.429688 120.277344 152.492188 119.96875 152.492188 119.648438 C 152.492188 119.328125 152.429688 119.019531 152.308594 118.722656 C 152.183594 118.429688 152.007812 118.167969 151.78125 117.941406 C 151.554688 117.714844 151.292969 117.539062 150.996094 117.417969 C 150.695312 117.292969 150.386719 117.234375 150.066406 117.234375 Z M 128.234375 118.925781 L 128.234375 140.75 L 99.121094 152.683594 L 99.121094 130.296875 Z M 176.75 123.128906 L 196.160156 130.328125 L 196.160156 183.703125 L 188.136719 180.503906 L 188.132812 180.503906 L 187.90625 180.414062 L 178.6875 176.742188 L 178.671875 176.738281 L 176.75 175.972656 Z M 150.066406 126.894531 C 149.746094 126.894531 149.433594 126.953125 149.136719 127.078125 C 148.839844 127.199219 148.578125 127.375 148.351562 127.601562 C 148.125 127.828125 147.949219 128.089844 147.824219 128.382812 C 147.703125 128.679688 147.640625 128.988281 147.640625 129.308594 C 147.640625 129.628906 147.703125 129.9375 147.824219 130.230469 C 147.949219 130.527344 148.125 130.789062 148.351562 131.015625 C 148.578125 131.242188 148.839844 131.417969 149.136719 131.539062 C 149.433594 131.660156 149.746094 131.722656 150.066406 131.722656 C 150.386719 131.722656 150.695312 131.660156 150.996094 131.539062 C 151.292969 131.417969 151.554688 131.242188 151.78125 131.015625 C 152.007812 130.789062 152.183594 130.527344 152.308594 130.230469 C 152.429688 129.9375 152.492188 129.628906 152.492188 129.308594 C 152.492188 128.988281 152.429688 128.679688 152.308594 128.382812 C 152.183594 128.089844 152.007812 127.828125 151.78125 127.601562 C 151.554688 127.375 151.292969 127.199219 150.996094 127.078125 C 150.695312 126.953125 150.386719 126.894531 150.066406 126.894531 Z M 150.066406 136.554688 C 149.746094 136.554688 149.433594 136.613281 149.136719 136.738281 C 148.839844 136.859375 148.578125 137.035156 148.351562 137.261719 C 148.125 137.488281 147.949219 137.75 147.824219 138.042969 C 147.703125 138.339844 147.640625 138.648438 147.640625 138.96875 C 147.640625 139.289062 147.703125 139.597656 147.824219 139.890625 C 147.949219 140.1875 148.125 140.449219 148.351562 140.675781 C 148.578125 140.902344 148.839844 141.078125 149.136719 141.199219 C 149.433594 141.320312 149.746094 141.382812 150.066406 141.382812 C 150.386719 141.382812 150.695312 141.320312 150.996094 141.199219 C 151.292969 141.078125 151.554688 140.902344 151.78125 140.675781 C 152.007812 140.449219 152.183594 140.1875 152.308594 139.890625 C 152.429688 139.597656 152.492188 139.289062 152.492188 138.96875 C 152.492188 138.648438 152.429688 138.339844 152.308594 138.042969 C 152.183594 137.75 152.007812 137.488281 151.78125 137.261719 C 151.554688 137.035156 151.292969 136.859375 150.996094 136.738281 C 150.695312 136.613281 150.386719 136.554688 150.066406 136.554688 Z M 150.066406 146.214844 C 149.746094 146.214844 149.433594 146.273438 149.136719 146.398438 C 148.839844 146.519531 148.578125 146.695312 148.351562 146.921875 C 148.125 147.148438 147.949219 147.410156 147.824219 147.703125 C 147.703125 148 147.640625 148.308594 147.640625 148.628906 C 147.640625 148.949219 147.703125 149.257812 147.824219 149.550781 C 147.949219 149.847656 148.125 150.109375 148.351562 150.335938 C 148.578125 150.5625 148.839844 150.738281 149.136719 150.859375 C 149.433594 150.980469 149.746094 151.042969 150.066406 151.042969 C 150.386719 151.042969 150.695312 150.980469 150.996094 150.859375 C 151.292969 150.738281 151.554688 150.5625 151.78125 150.335938 C 152.007812 150.109375 152.183594 149.847656 152.308594 149.550781 C 152.429688 149.257812 152.492188 148.949219 152.492188 148.628906 C 152.492188 148.308594 152.429688 148 152.308594 147.703125 C 152.183594 147.410156 152.007812 147.148438 151.78125 146.921875 C 151.554688 146.695312 151.292969 146.519531 150.996094 146.398438 C 150.695312 146.273438 150.386719 146.214844 150.066406 146.214844 Z M 150.066406 155.875 C 149.746094 155.875 149.433594 155.933594 149.136719 156.058594 C 148.839844 156.179688 148.578125 156.355469 148.351562 156.582031 C 148.125 156.808594 147.949219 157.070312 147.824219 157.363281 C 147.703125 157.660156 147.640625 157.96875 147.640625 158.289062 C 147.640625 158.609375 147.703125 158.917969 147.824219 159.210938 C 147.949219 159.507812 148.125 159.769531 148.351562 159.996094 C 148.578125 160.222656 148.839844 160.398438 149.136719 160.519531 C 149.433594 160.640625 149.746094 160.703125 150.066406 160.703125 C 150.386719 160.703125 150.695312 160.640625 150.996094 160.519531 C 151.292969 160.398438 151.554688 160.222656 151.78125 159.996094 C 152.007812 159.769531 152.183594 159.507812 152.308594 159.210938 C 152.429688 158.917969 152.492188 158.609375 152.492188 158.289062 C 152.492188 157.96875 152.429688 157.660156 152.308594 157.363281 C 152.183594 157.070312 152.007812 156.808594 151.78125 156.582031 C 151.554688 156.355469 151.292969 156.179688 150.996094 156.058594 C 150.695312 155.933594 150.386719 155.875 150.066406 155.875 Z M 150.003906 165.535156 L 149.164062 165.707031 L 148.9375 165.796875 L 148.863281 165.882812 L 148.800781 165.886719 L 148.664062 166.105469 L 147.496094 167.414062 L 147.933594 169.535156 L 148.628906 169.859375 L 149.164062 170.1875 L 149.386719 170.277344 L 149.511719 170.269531 L 149.90625 170.453125 L 150.742188 170.277344 L 150.964844 170.1875 L 151.003906 170.148438 L 151.558594 170.101562 L 152.707031 168.265625 L 151.917969 166.246094 L 151.195312 165.796875 L 150.964844 165.707031 L 150.464844 165.75 Z M 140.769531 169.214844 L 139.929688 169.382812 L 139.703125 169.472656 L 138.261719 171.089844 L 138.699219 173.210938 L 140.671875 174.128906 L 141.507812 173.957031 L 141.730469 173.867188 L 143.175781 172.25 L 142.734375 170.132812 Z M 160.199219 169.382812 L 158.035156 169.566406 L 156.882812 171.402344 L 157.675781 173.421875 L 158.402344 173.867188 L 158.625 173.957031 L 160.792969 173.777344 L 161.941406 171.9375 L 161.152344 169.925781 L 160.429688 169.472656 Z M 131.53125 172.886719 L 130.695312 173.0625 L 130.46875 173.152344 L 129.027344 174.769531 L 129.464844 176.886719 L 131.4375 177.808594 L 132.269531 177.636719 L 132.496094 177.546875 L 133.941406 175.925781 L 133.5 173.808594 Z M 169.4375 173.0625 L 167.269531 173.242188 L 166.117188 175.082031 L 166.910156 177.09375 L 167.636719 177.546875 L 167.863281 177.636719 L 170.027344 177.453125 L 171.175781 175.617188 L 170.386719 173.601562 L 169.664062 173.152344 Z M 122.296875 176.566406 L 121.460938 176.738281 L 121.234375 176.832031 L 119.792969 178.449219 L 120.230469 180.566406 L 122.199219 181.484375 L 123.035156 181.3125 L 123.261719 181.222656 L 124.703125 179.605469 L 124.265625 177.488281 Z M 113.0625 180.246094 L 112.226562 180.414062 L 112 180.503906 L 110.558594 182.121094 L 110.996094 184.246094 L 112.964844 185.160156 L 113.800781 184.992188 L 114.027344 184.902344 L 115.46875 183.285156 L 115.03125 181.160156 Z M 103.828125 183.921875 L 102.992188 184.09375 L 102.765625 184.183594 L 101.324219 185.800781 L 101.761719 187.921875 L 103.730469 188.839844 L 104.566406 188.671875 L 104.792969 188.574219 L 106.234375 186.957031 L 105.796875 184.839844 Z M 94.589844 187.597656 L 93.753906 187.769531 L 93.53125 187.859375 L 92.085938 189.480469 L 92.527344 191.597656 L 94.496094 192.519531 L 95.332031 192.34375 L 95.558594 192.253906 L 97 190.636719 L 96.5625 188.519531 Z M 206.378906 187.769531 L 204.207031 187.953125 L 203.0625 189.789062 L 203.847656 191.808594 L 204.574219 192.253906 L 204.800781 192.34375 L 206.964844 192.164062 L 208.117188 190.324219 L 207.328125 188.3125 L 206.601562 187.859375 Z M 85.355469 191.277344 L 84.519531 191.449219 L 84.296875 191.539062 L 82.851562 193.15625 L 83.292969 195.273438 L 85.257812 196.195312 L 86.097656 196.023438 L 86.324219 195.933594 L 87.765625 194.316406 L 87.328125 192.195312 Z M 215.613281 191.449219 L 213.445312 191.628906 L 212.296875 193.46875 L 213.082031 195.480469 L 213.808594 195.933594 L 214.035156 196.023438 L 216.203125 195.839844 L 217.351562 194.003906 L 216.5625 191.992188 L 215.835938 191.539062 Z M 215.613281 191.449219 "/>
</g>
</g>
</svg>
