<?xml version="1.0" encoding="UTF-8"?>
<svg xmlns="http://www.w3.org/2000/svg" xmlns:xlink="http://www.w3.org/1999/xlink" width="300pt" height="299.999988pt" viewBox="0 0 300 299.999988" version="1.2">
<defs>
<clipPath id="clip1">
  <path d="M 41.472656 74.03125 L 258.222656 74.03125 L 258.222656 226.28125 L 41.472656 226.28125 Z M 41.472656 74.03125 "/>
</clipPath>
</defs>
<g id="surface1">
<path style=" stroke:none;fill-rule:nonzero;fill:rgb(0%,0%,0%);fill-opacity:1;" d="M 79.402344 193.65625 C 79.761719 193.65625 80.113281 193.621094 80.460938 193.550781 C 80.8125 193.480469 81.148438 193.378906 81.476562 193.242188 C 81.808594 193.105469 82.121094 192.9375 82.414062 192.738281 C 82.710938 192.542969 82.984375 192.316406 83.238281 192.0625 C 83.488281 191.8125 83.714844 191.535156 83.910156 191.238281 C 84.109375 190.941406 84.273438 190.628906 84.410156 190.300781 C 84.546875 189.96875 84.648438 189.628906 84.71875 189.277344 C 84.789062 188.929688 84.824219 188.574219 84.824219 188.21875 L 84.824219 161.03125 L 106.496094 161.03125 L 106.496094 188.21875 C 106.496094 188.574219 106.53125 188.929688 106.601562 189.277344 C 106.671875 189.628906 106.773438 189.96875 106.910156 190.296875 C 107.046875 190.628906 107.214844 190.941406 107.410156 191.238281 C 107.609375 191.535156 107.832031 191.808594 108.085938 192.0625 C 108.335938 192.316406 108.609375 192.539062 108.90625 192.738281 C 109.203125 192.9375 109.515625 193.105469 109.84375 193.242188 C 110.171875 193.378906 110.511719 193.480469 110.859375 193.550781 C 111.207031 193.621094 111.5625 193.65625 111.917969 193.65625 C 112.273438 193.65625 112.625 193.621094 112.972656 193.550781 C 113.324219 193.480469 113.660156 193.378906 113.992188 193.242188 C 114.320312 193.105469 114.632812 192.9375 114.925781 192.738281 C 115.222656 192.539062 115.496094 192.316406 115.75 192.0625 C 116 191.808594 116.222656 191.535156 116.421875 191.238281 C 116.621094 190.941406 116.785156 190.628906 116.921875 190.296875 C 117.058594 189.96875 117.160156 189.628906 117.230469 189.277344 C 117.300781 188.929688 117.335938 188.574219 117.335938 188.21875 L 117.335938 128.40625 C 117.335938 127.695312 117.300781 126.984375 117.230469 126.273438 C 117.160156 125.566406 117.058594 124.863281 116.917969 124.164062 C 116.78125 123.464844 116.609375 122.773438 116.402344 122.09375 C 116.195312 121.410156 115.957031 120.742188 115.683594 120.082031 C 115.414062 119.425781 115.109375 118.78125 114.777344 118.152344 C 114.441406 117.527344 114.078125 116.914062 113.683594 116.324219 C 113.289062 115.730469 112.867188 115.160156 112.414062 114.609375 C 111.964844 114.058594 111.488281 113.53125 110.988281 113.027344 C 110.484375 112.523438 109.960938 112.046875 109.410156 111.59375 C 108.863281 111.140625 108.292969 110.71875 107.703125 110.324219 C 107.113281 109.925781 106.503906 109.5625 105.878906 109.226562 C 105.25 108.890625 104.609375 108.585938 103.953125 108.3125 C 103.300781 108.039062 102.632812 107.800781 101.953125 107.59375 C 101.273438 107.386719 100.585938 107.214844 99.890625 107.074219 C 99.191406 106.9375 98.492188 106.832031 97.785156 106.761719 C 97.078125 106.691406 96.371094 106.65625 95.660156 106.65625 C 94.949219 106.65625 94.242188 106.691406 93.535156 106.761719 C 92.828125 106.832031 92.128906 106.9375 91.433594 107.074219 C 90.734375 107.214844 90.046875 107.386719 89.367188 107.59375 C 88.6875 107.800781 88.023438 108.039062 87.367188 108.3125 C 86.710938 108.585938 86.070312 108.890625 85.441406 109.226562 C 84.816406 109.5625 84.207031 109.925781 83.617188 110.324219 C 83.027344 110.71875 82.457031 111.140625 81.910156 111.59375 C 81.359375 112.046875 80.835938 112.523438 80.332031 113.027344 C 79.832031 113.53125 79.355469 114.058594 78.90625 114.609375 C 78.453125 115.160156 78.03125 115.730469 77.636719 116.324219 C 77.242188 116.914062 76.878906 117.527344 76.542969 118.152344 C 76.210938 118.78125 75.90625 119.425781 75.636719 120.082031 C 75.363281 120.742188 75.125 121.410156 74.917969 122.09375 C 74.710938 122.773438 74.539062 123.464844 74.402344 124.164062 C 74.261719 124.863281 74.160156 125.566406 74.089844 126.273438 C 74.019531 126.984375 73.984375 127.695312 73.984375 128.40625 L 73.984375 188.21875 C 73.984375 188.574219 74.019531 188.929688 74.089844 189.277344 C 74.160156 189.628906 74.261719 189.96875 74.398438 190.300781 C 74.53125 190.628906 74.699219 190.941406 74.898438 191.238281 C 75.09375 191.535156 75.320312 191.8125 75.570312 192.0625 C 75.824219 192.316406 76.097656 192.542969 76.394531 192.738281 C 76.6875 192.9375 77 193.105469 77.328125 193.242188 C 77.660156 193.378906 77.996094 193.480469 78.347656 193.550781 C 78.695312 193.621094 79.046875 193.65625 79.402344 193.65625 Z M 95.660156 117.53125 C 96.371094 117.53125 97.074219 117.601562 97.773438 117.742188 C 98.472656 117.882812 99.148438 118.089844 99.804688 118.363281 C 100.460938 118.636719 101.085938 118.972656 101.679688 119.367188 C 102.269531 119.765625 102.816406 120.214844 103.320312 120.722656 C 103.824219 121.226562 104.273438 121.773438 104.667969 122.367188 C 105.0625 122.960938 105.398438 123.585938 105.667969 124.246094 C 105.941406 124.90625 106.148438 125.585938 106.289062 126.285156 C 106.425781 126.984375 106.496094 127.691406 106.496094 128.40625 L 106.496094 150.15625 L 84.824219 150.15625 L 84.824219 128.40625 C 84.824219 127.691406 84.894531 126.984375 85.035156 126.285156 C 85.171875 125.585938 85.378906 124.90625 85.652344 124.246094 C 85.925781 123.585938 86.257812 122.960938 86.652344 122.367188 C 87.050781 121.773438 87.5 121.226562 88 120.722656 C 88.503906 120.214844 89.050781 119.765625 89.644531 119.367188 C 90.234375 118.972656 90.859375 118.636719 91.515625 118.363281 C 92.171875 118.089844 92.847656 117.882812 93.546875 117.742188 C 94.246094 117.601562 94.949219 117.53125 95.660156 117.53125 Z M 95.660156 117.53125 "/>
<path style=" stroke:none;fill-rule:nonzero;fill:rgb(0%,0%,0%);fill-opacity:1;" d="M 187.777344 193.65625 L 220.292969 193.65625 C 220.648438 193.65625 221 193.621094 221.347656 193.550781 C 221.699219 193.480469 222.035156 193.378906 222.367188 193.242188 C 222.695312 193.105469 223.007812 192.9375 223.300781 192.738281 C 223.597656 192.539062 223.871094 192.316406 224.125 192.0625 C 224.375 191.808594 224.597656 191.535156 224.796875 191.238281 C 224.996094 190.941406 225.160156 190.628906 225.296875 190.296875 C 225.433594 189.96875 225.535156 189.628906 225.605469 189.277344 C 225.675781 188.929688 225.710938 188.574219 225.710938 188.21875 C 225.710938 187.859375 225.675781 187.507812 225.605469 187.15625 C 225.535156 186.808594 225.433594 186.464844 225.296875 186.136719 C 225.160156 185.808594 224.996094 185.492188 224.796875 185.195312 C 224.597656 184.898438 224.375 184.625 224.125 184.371094 C 223.871094 184.121094 223.597656 183.894531 223.300781 183.695312 C 223.007812 183.5 222.695312 183.332031 222.367188 183.195312 C 222.035156 183.058594 221.699219 182.953125 221.347656 182.882812 C 221 182.816406 220.648438 182.78125 220.292969 182.78125 L 193.199219 182.78125 L 193.199219 155.59375 L 220.292969 155.59375 C 220.648438 155.59375 221 155.558594 221.347656 155.488281 C 221.699219 155.417969 222.035156 155.316406 222.367188 155.179688 C 222.695312 155.042969 223.007812 154.875 223.300781 154.675781 C 223.597656 154.480469 223.871094 154.253906 224.125 154 C 224.375 153.75 224.597656 153.472656 224.796875 153.175781 C 224.996094 152.878906 225.160156 152.566406 225.296875 152.238281 C 225.433594 151.90625 225.535156 151.566406 225.605469 151.214844 C 225.675781 150.867188 225.710938 150.511719 225.710938 150.15625 C 225.710938 149.800781 225.675781 149.445312 225.605469 149.09375 C 225.535156 148.746094 225.433594 148.40625 225.296875 148.074219 C 225.160156 147.746094 224.996094 147.433594 224.796875 147.136719 C 224.597656 146.839844 224.375 146.5625 224.125 146.3125 C 223.871094 146.058594 223.597656 145.832031 223.300781 145.636719 C 223.007812 145.4375 222.695312 145.269531 222.367188 145.132812 C 222.035156 144.996094 221.699219 144.894531 221.347656 144.824219 C 221 144.753906 220.648438 144.71875 220.292969 144.71875 L 193.199219 144.71875 L 193.199219 117.53125 L 220.292969 117.53125 C 220.648438 117.53125 221 117.496094 221.347656 117.425781 C 221.699219 117.359375 222.035156 117.253906 222.367188 117.117188 C 222.695312 116.980469 223.007812 116.8125 223.300781 116.617188 C 223.597656 116.417969 223.871094 116.191406 224.125 115.9375 C 224.375 115.6875 224.597656 115.410156 224.796875 115.113281 C 224.996094 114.816406 225.160156 114.503906 225.296875 114.175781 C 225.433594 113.84375 225.535156 113.503906 225.605469 113.15625 C 225.675781 112.804688 225.710938 112.453125 225.710938 112.09375 C 225.710938 111.738281 225.675781 111.382812 225.605469 111.035156 C 225.535156 110.683594 225.433594 110.34375 225.296875 110.011719 C 225.160156 109.683594 224.996094 109.371094 224.796875 109.074219 C 224.597656 108.777344 224.375 108.503906 224.125 108.25 C 223.871094 107.996094 223.597656 107.773438 223.300781 107.574219 C 223.007812 107.375 222.695312 107.207031 222.367188 107.070312 C 222.035156 106.933594 221.699219 106.832031 221.347656 106.761719 C 221 106.691406 220.648438 106.65625 220.292969 106.65625 L 187.777344 106.65625 C 187.421875 106.65625 187.070312 106.691406 186.722656 106.761719 C 186.371094 106.832031 186.035156 106.933594 185.703125 107.070312 C 185.375 107.207031 185.0625 107.375 184.769531 107.574219 C 184.472656 107.769531 184.199219 107.996094 183.945312 108.25 C 183.695312 108.5 183.46875 108.777344 183.273438 109.074219 C 183.074219 109.371094 182.90625 109.683594 182.773438 110.011719 C 182.636719 110.34375 182.535156 110.683594 182.464844 111.035156 C 182.394531 111.382812 182.359375 111.738281 182.359375 112.09375 L 182.359375 188.21875 C 182.359375 188.574219 182.394531 188.929688 182.464844 189.277344 C 182.535156 189.628906 182.636719 189.96875 182.773438 190.300781 C 182.90625 190.628906 183.074219 190.941406 183.273438 191.238281 C 183.46875 191.535156 183.695312 191.8125 183.945312 192.0625 C 184.199219 192.316406 184.472656 192.542969 184.769531 192.738281 C 185.0625 192.9375 185.375 193.105469 185.703125 193.242188 C 186.035156 193.378906 186.371094 193.480469 186.722656 193.550781 C 187.070312 193.621094 187.421875 193.65625 187.777344 193.65625 Z M 187.777344 193.65625 "/>
<path style=" stroke:none;fill-rule:nonzero;fill:rgb(0%,0%,0%);fill-opacity:1;" d="M 149.847656 193.65625 C 150.558594 193.652344 151.265625 193.617188 151.972656 193.546875 C 152.679688 193.476562 153.378906 193.371094 154.074219 193.234375 C 154.769531 193.09375 155.457031 192.921875 156.136719 192.714844 C 156.816406 192.507812 157.484375 192.265625 158.140625 191.992188 C 158.792969 191.722656 159.433594 191.417969 160.0625 191.082031 C 160.6875 190.746094 161.292969 190.378906 161.886719 189.984375 C 162.476562 189.585938 163.042969 189.164062 163.59375 188.710938 C 164.140625 188.257812 164.667969 187.78125 165.167969 187.277344 C 165.671875 186.773438 166.144531 186.246094 166.597656 185.699219 C 167.046875 185.148438 167.46875 184.574219 167.863281 183.984375 C 168.257812 183.390625 168.621094 182.78125 168.957031 182.152344 C 169.292969 181.527344 169.59375 180.882812 169.867188 180.226562 C 170.140625 179.566406 170.378906 178.898438 170.585938 178.214844 C 170.792969 177.535156 170.964844 176.84375 171.101562 176.148438 C 171.242188 175.449219 171.347656 174.746094 171.417969 174.035156 C 171.488281 173.328125 171.523438 172.617188 171.523438 171.90625 L 171.523438 155.59375 C 171.523438 155.234375 171.488281 154.882812 171.417969 154.53125 C 171.351562 154.183594 171.246094 153.84375 171.109375 153.511719 C 170.976562 153.183594 170.808594 152.867188 170.609375 152.570312 C 170.414062 152.273438 170.1875 152 169.9375 151.746094 C 169.683594 151.496094 169.410156 151.269531 169.117188 151.070312 C 168.820312 150.871094 168.507812 150.707031 168.179688 150.570312 C 167.847656 150.433594 167.511719 150.328125 167.160156 150.261719 C 166.8125 150.191406 166.460938 150.15625 166.105469 150.15625 L 155.265625 150.15625 C 154.910156 150.15625 154.558594 150.191406 154.210938 150.261719 C 153.859375 150.332031 153.523438 150.433594 153.191406 150.570312 C 152.863281 150.707031 152.550781 150.875 152.257812 151.074219 C 151.960938 151.269531 151.6875 151.496094 151.433594 151.75 C 151.183594 152 150.957031 152.277344 150.761719 152.574219 C 150.5625 152.871094 150.394531 153.183594 150.261719 153.511719 C 150.125 153.84375 150.019531 154.183594 149.953125 154.53125 C 149.882812 154.882812 149.847656 155.238281 149.847656 155.59375 C 149.847656 155.949219 149.882812 156.304688 149.953125 156.652344 C 150.019531 157.003906 150.125 157.34375 150.261719 157.675781 C 150.394531 158.003906 150.5625 158.316406 150.761719 158.613281 C 150.957031 158.910156 151.183594 159.1875 151.433594 159.4375 C 151.6875 159.691406 151.960938 159.914062 152.257812 160.113281 C 152.550781 160.3125 152.863281 160.480469 153.191406 160.617188 C 153.523438 160.753906 153.859375 160.855469 154.210938 160.925781 C 154.558594 160.996094 154.910156 161.03125 155.265625 161.03125 L 160.683594 161.03125 L 160.683594 171.90625 C 160.683594 172.621094 160.617188 173.328125 160.476562 174.027344 C 160.339844 174.726562 160.132812 175.40625 159.859375 176.066406 C 159.589844 176.726562 159.253906 177.351562 158.859375 177.945312 C 158.464844 178.539062 158.015625 179.089844 157.511719 179.59375 C 157.007812 180.101562 156.460938 180.550781 155.867188 180.949219 C 155.277344 181.34375 154.652344 181.679688 153.996094 181.953125 C 153.335938 182.226562 152.660156 182.433594 151.960938 182.570312 C 151.265625 182.710938 150.558594 182.78125 149.847656 182.78125 C 149.136719 182.78125 148.429688 182.710938 147.734375 182.570312 C 147.035156 182.433594 146.359375 182.226562 145.699219 181.953125 C 145.042969 181.679688 144.417969 181.34375 143.828125 180.949219 C 143.234375 180.550781 142.6875 180.101562 142.183594 179.59375 C 141.679688 179.089844 141.230469 178.539062 140.835938 177.945312 C 140.441406 177.351562 140.109375 176.726562 139.835938 176.066406 C 139.5625 175.40625 139.355469 174.726562 139.21875 174.027344 C 139.078125 173.328125 139.011719 172.621094 139.011719 171.90625 L 139.011719 128.40625 C 139.011719 127.691406 139.078125 126.984375 139.21875 126.285156 C 139.355469 125.585938 139.5625 124.90625 139.835938 124.246094 C 140.109375 123.585938 140.441406 122.957031 140.835938 122.363281 C 141.230469 121.769531 141.679688 121.222656 142.183594 120.71875 C 142.6875 120.210938 143.234375 119.761719 143.828125 119.363281 C 144.417969 118.96875 145.042969 118.632812 145.699219 118.359375 C 146.359375 118.085938 147.035156 117.878906 147.734375 117.742188 C 148.429688 117.601562 149.136719 117.53125 149.847656 117.53125 C 150.558594 117.53125 151.265625 117.601562 151.960938 117.742188 C 152.660156 117.878906 153.335938 118.085938 153.996094 118.359375 C 154.652344 118.632812 155.277344 118.96875 155.867188 119.363281 C 156.460938 119.761719 157.007812 120.210938 157.511719 120.71875 C 158.015625 121.222656 158.464844 121.769531 158.859375 122.363281 C 159.253906 122.957031 159.589844 123.585938 159.859375 124.246094 C 160.132812 124.90625 160.339844 125.585938 160.476562 126.285156 C 160.617188 126.984375 160.683594 127.691406 160.683594 128.40625 C 160.683594 128.761719 160.71875 129.117188 160.789062 129.46875 C 160.859375 129.816406 160.960938 130.15625 161.097656 130.488281 C 161.234375 130.816406 161.402344 131.128906 161.597656 131.425781 C 161.796875 131.722656 162.019531 132 162.273438 132.25 C 162.523438 132.503906 162.796875 132.730469 163.09375 132.925781 C 163.390625 133.125 163.703125 133.292969 164.03125 133.429688 C 164.359375 133.566406 164.699219 133.667969 165.046875 133.738281 C 165.394531 133.808594 165.75 133.84375 166.105469 133.84375 C 166.460938 133.84375 166.8125 133.808594 167.160156 133.738281 C 167.511719 133.667969 167.847656 133.566406 168.179688 133.429688 C 168.507812 133.292969 168.820312 133.125 169.113281 132.925781 C 169.410156 132.730469 169.683594 132.503906 169.9375 132.25 C 170.1875 132 170.410156 131.722656 170.609375 131.425781 C 170.808594 131.128906 170.972656 130.816406 171.109375 130.488281 C 171.246094 130.15625 171.347656 129.816406 171.417969 129.46875 C 171.488281 129.117188 171.523438 128.761719 171.523438 128.40625 C 171.523438 127.695312 171.488281 126.984375 171.417969 126.273438 C 171.347656 125.566406 171.246094 124.863281 171.105469 124.164062 C 170.96875 123.464844 170.796875 122.773438 170.589844 122.09375 C 170.382812 121.410156 170.144531 120.742188 169.871094 120.082031 C 169.601562 119.425781 169.296875 118.78125 168.964844 118.152344 C 168.628906 117.527344 168.265625 116.914062 167.871094 116.324219 C 167.476562 115.730469 167.054688 115.160156 166.601562 114.609375 C 166.152344 114.058594 165.675781 113.53125 165.175781 113.027344 C 164.671875 112.523438 164.148438 112.046875 163.597656 111.59375 C 163.050781 111.140625 162.480469 110.71875 161.890625 110.324219 C 161.300781 109.925781 160.691406 109.5625 160.066406 109.226562 C 159.4375 108.890625 158.796875 108.585938 158.140625 108.3125 C 157.488281 108.039062 156.820312 107.800781 156.140625 107.59375 C 155.460938 107.386719 154.773438 107.214844 154.078125 107.074219 C 153.378906 106.9375 152.679688 106.832031 151.972656 106.761719 C 151.265625 106.691406 150.558594 106.65625 149.847656 106.65625 C 149.136719 106.65625 148.429688 106.691406 147.722656 106.761719 C 147.015625 106.832031 146.316406 106.9375 145.621094 107.074219 C 144.921875 107.214844 144.234375 107.386719 143.554688 107.59375 C 142.875 107.800781 142.210938 108.039062 141.554688 108.3125 C 140.898438 108.585938 140.257812 108.890625 139.628906 109.226562 C 139.003906 109.5625 138.394531 109.925781 137.804688 110.324219 C 137.214844 110.71875 136.644531 111.140625 136.097656 111.59375 C 135.546875 112.046875 135.023438 112.523438 134.519531 113.027344 C 134.019531 113.53125 133.542969 114.058594 133.09375 114.609375 C 132.640625 115.160156 132.21875 115.730469 131.824219 116.324219 C 131.429688 116.914062 131.066406 117.527344 130.730469 118.152344 C 130.398438 118.78125 130.09375 119.425781 129.824219 120.082031 C 129.550781 120.742188 129.3125 121.410156 129.105469 122.09375 C 128.898438 122.773438 128.726562 123.464844 128.589844 124.164062 C 128.449219 124.863281 128.347656 125.566406 128.277344 126.273438 C 128.207031 126.984375 128.171875 127.695312 128.171875 128.40625 L 128.171875 171.90625 C 128.171875 172.617188 128.210938 173.328125 128.277344 174.035156 C 128.347656 174.746094 128.453125 175.449219 128.59375 176.148438 C 128.730469 176.84375 128.90625 177.535156 129.109375 178.214844 C 129.316406 178.898438 129.554688 179.566406 129.828125 180.226562 C 130.101562 180.882812 130.402344 181.527344 130.738281 182.152344 C 131.074219 182.78125 131.4375 183.390625 131.832031 183.984375 C 132.226562 184.574219 132.648438 185.148438 133.097656 185.699219 C 133.550781 186.246094 134.027344 186.773438 134.527344 187.277344 C 135.03125 187.78125 135.554688 188.257812 136.101562 188.710938 C 136.652344 189.164062 137.222656 189.585938 137.8125 189.984375 C 138.402344 190.378906 139.007812 190.746094 139.632812 191.082031 C 140.261719 191.417969 140.902344 191.722656 141.554688 191.992188 C 142.210938 192.265625 142.878906 192.507812 143.558594 192.714844 C 144.238281 192.921875 144.925781 193.09375 145.621094 193.234375 C 146.316406 193.371094 147.019531 193.476562 147.722656 193.546875 C 148.429688 193.617188 149.136719 193.652344 149.847656 193.65625 Z M 149.847656 193.65625 "/>
<g clip-path="url(#clip1)" clip-rule="nonzero">
<path style=" stroke:none;fill-rule:nonzero;fill:rgb(0%,0%,0%);fill-opacity:1;" d="M 252.804688 74.03125 L 46.890625 74.03125 C 46.535156 74.03125 46.183594 74.066406 45.835938 74.136719 C 45.484375 74.207031 45.144531 74.308594 44.816406 74.445312 C 44.488281 74.582031 44.175781 74.75 43.878906 74.949219 C 43.585938 75.144531 43.3125 75.371094 43.058594 75.625 C 42.808594 75.875 42.582031 76.152344 42.386719 76.449219 C 42.1875 76.746094 42.019531 77.058594 41.882812 77.390625 C 41.75 77.71875 41.644531 78.058594 41.578125 78.410156 C 41.507812 78.757812 41.472656 79.113281 41.472656 79.46875 L 41.472656 220.84375 C 41.472656 221.199219 41.507812 221.550781 41.578125 221.902344 C 41.644531 222.253906 41.75 222.59375 41.882812 222.921875 C 42.019531 223.253906 42.1875 223.566406 42.386719 223.863281 C 42.582031 224.160156 42.808594 224.433594 43.058594 224.6875 C 43.3125 224.941406 43.585938 225.164062 43.878906 225.363281 C 44.175781 225.5625 44.488281 225.730469 44.816406 225.867188 C 45.144531 226.003906 45.484375 226.105469 45.835938 226.175781 C 46.183594 226.246094 46.535156 226.28125 46.890625 226.277344 L 252.804688 226.277344 C 253.160156 226.28125 253.511719 226.246094 253.863281 226.175781 C 254.210938 226.105469 254.550781 226.003906 254.878906 225.867188 C 255.207031 225.730469 255.519531 225.5625 255.816406 225.363281 C 256.109375 225.164062 256.386719 224.941406 256.636719 224.6875 C 256.886719 224.433594 257.113281 224.160156 257.3125 223.863281 C 257.507812 223.566406 257.675781 223.253906 257.8125 222.921875 C 257.949219 222.59375 258.050781 222.253906 258.121094 221.902344 C 258.1875 221.550781 258.222656 221.199219 258.222656 220.84375 L 258.222656 79.46875 C 258.222656 79.113281 258.1875 78.757812 258.121094 78.410156 C 258.050781 78.058594 257.949219 77.71875 257.8125 77.390625 C 257.675781 77.058594 257.507812 76.746094 257.3125 76.449219 C 257.113281 76.152344 256.886719 75.875 256.636719 75.625 C 256.386719 75.371094 256.109375 75.144531 255.816406 74.949219 C 255.519531 74.75 255.207031 74.582031 254.878906 74.445312 C 254.550781 74.308594 254.210938 74.207031 253.863281 74.136719 C 253.511719 74.066406 253.160156 74.03125 252.804688 74.03125 Z M 247.386719 215.40625 L 52.308594 215.40625 L 52.308594 84.90625 L 247.386719 84.90625 Z M 247.386719 215.40625 "/>
</g>
</g>
</svg>
