<?xml version="1.0" encoding="UTF-8"?>
<svg xmlns="http://www.w3.org/2000/svg" xmlns:xlink="http://www.w3.org/1999/xlink" width="300pt" height="299.999988pt" viewBox="0 0 300 299.999988" version="1.2">
<defs>
<clipPath id="clip1">
  <path d="M 66.886719 29.53125 L 233.386719 29.53125 L 233.386719 270.28125 L 66.886719 270.28125 Z M 66.886719 29.53125 "/>
</clipPath>
</defs>
<g id="surface1">
<g clip-path="url(#clip1)" clip-rule="nonzero">
<path style=" stroke:none;fill-rule:nonzero;fill:rgb(0%,0%,0%);fill-opacity:1;" d="M 233.5625 33.984375 C 233.527344 33.816406 233.46875 33.660156 233.421875 33.503906 C 233.371094 33.328125 233.332031 33.15625 233.261719 32.992188 C 233.179688 32.796875 233.074219 32.621094 232.96875 32.4375 C 232.902344 32.320312 232.851562 32.1875 232.773438 32.074219 C 232.382812 31.488281 231.875 30.984375 231.289062 30.59375 C 231.171875 30.511719 231.042969 30.460938 230.921875 30.390625 C 230.738281 30.289062 230.5625 30.183594 230.371094 30.105469 C 230.203125 30.035156 230.027344 29.996094 229.855469 29.945312 C 229.695312 29.894531 229.542969 29.832031 229.378906 29.804688 C 229.035156 29.734375 228.683594 29.695312 228.332031 29.695312 L 189.730469 29.695312 C 186.78125 29.695312 184.394531 32.082031 184.394531 35.027344 C 184.394531 37.96875 186.78125 40.355469 189.730469 40.355469 L 215.457031 40.355469 L 186.210938 69.570312 C 177.617188 63.644531 167.207031 60.160156 155.996094 60.160156 C 130.089844 60.160156 108.445312 78.710938 103.652344 103.214844 C 82.292969 110.175781 66.8125 130.25 66.8125 153.882812 C 66.8125 181.46875 87.902344 204.222656 114.820312 206.90625 L 114.820312 236.1875 L 95.707031 236.1875 C 92.757812 236.1875 90.371094 238.574219 90.371094 241.515625 C 90.371094 244.460938 92.757812 246.847656 95.707031 246.847656 L 114.820312 246.847656 L 114.820312 265.199219 C 114.820312 268.144531 117.207031 270.527344 120.152344 270.527344 C 123.101562 270.527344 125.488281 268.144531 125.488281 265.199219 L 125.488281 246.847656 L 145.492188 246.847656 C 148.4375 246.847656 150.824219 244.460938 150.824219 241.519531 C 150.824219 238.574219 148.4375 236.191406 145.492188 236.191406 L 125.488281 236.191406 L 125.488281 206.910156 C 148.988281 204.566406 168.035156 186.921875 172.496094 164.121094 C 193.855469 157.164062 209.335938 137.085938 209.335938 113.453125 C 209.335938 99.113281 203.628906 86.085938 194.371094 76.492188 L 223 47.890625 L 223 73.597656 C 223 76.539062 225.390625 78.925781 228.332031 78.925781 C 231.28125 78.925781 233.667969 76.539062 233.667969 73.597656 L 233.667969 35.027344 C 233.667969 35.019531 233.667969 35.015625 233.667969 35.015625 C 233.667969 34.667969 233.628906 34.324219 233.5625 33.984375 Z M 120.15625 196.515625 C 96.625 196.515625 77.480469 177.390625 77.480469 153.882812 C 77.480469 136.589844 87.851562 121.679688 102.695312 114.996094 C 103.519531 143.667969 127.105469 166.746094 155.996094 166.746094 C 157.65625 166.746094 159.296875 166.65625 160.917969 166.507812 C 155.515625 183.871094 139.285156 196.515625 120.15625 196.515625 Z M 162.785156 155.542969 C 160.574219 155.894531 158.308594 156.089844 155.996094 156.089844 C 132.46875 156.089844 113.324219 136.960938 113.324219 113.453125 C 113.324219 112.898438 113.34375 112.347656 113.363281 111.796875 C 115.578125 111.441406 117.84375 111.25 120.152344 111.25 C 143.683594 111.25 162.828125 130.375 162.828125 153.882812 C 162.828125 154.441406 162.804688 154.988281 162.785156 155.542969 Z M 198.667969 113.453125 C 198.667969 130.746094 188.304688 145.660156 173.457031 152.339844 C 172.632812 123.667969 149.046875 100.59375 120.152344 100.59375 C 118.492188 100.59375 116.855469 100.679688 115.234375 100.828125 C 120.632812 83.464844 136.863281 70.820312 155.992188 70.820312 C 179.527344 70.820312 198.667969 89.945312 198.667969 113.453125 Z M 198.667969 113.453125 "/>
</g>
</g>
</svg>
