<?xml version="1.0" encoding="UTF-8"?>
<svg xmlns="http://www.w3.org/2000/svg" xmlns:xlink="http://www.w3.org/1999/xlink" width="300pt" height="299.999988pt" viewBox="0 0 300 299.999988" version="1.2">
<defs>
<clipPath id="clip1">
  <path d="M 66 51.144531 L 249 51.144531 L 249 235 L 66 235 Z M 66 51.144531 "/>
</clipPath>
</defs>
<g id="surface1">
<g clip-path="url(#clip1)" clip-rule="nonzero">
<path style=" stroke:none;fill-rule:nonzero;fill:rgb(0%,0%,0%);fill-opacity:1;" d="M 202.839844 170.035156 C 199.617188 168.144531 195.660156 168.183594 192.457031 170.089844 L 176.226562 179.757812 C 172.59375 181.921875 168.058594 181.667969 164.726562 179.066406 C 158.96875 174.570312 149.695312 167.003906 141.628906 158.9375 C 133.5625 150.871094 125.996094 141.597656 121.5 135.839844 C 118.898438 132.507812 118.644531 127.972656 120.808594 124.339844 L 130.476562 108.109375 C 132.390625 104.90625 132.40625 100.917969 130.515625 97.695312 L 106.707031 57.023438 C 104.398438 53.085938 99.8125 51.152344 95.378906 52.238281 C 91.074219 53.285156 85.480469 55.839844 79.621094 61.710938 C 61.265625 80.0625 51.515625 111.019531 120.539062 180.042969 C 189.5625 249.066406 220.511719 239.324219 238.871094 220.964844 C 244.75 215.085938 247.296875 209.484375 248.351562 205.171875 C 249.421875 200.746094 247.519531 196.191406 243.59375 193.890625 C 233.789062 188.15625 212.644531 175.777344 202.839844 170.035156 Z M 202.839844 170.035156 "/>
</g>
</g>
</svg>
