<?xml version="1.0" encoding="UTF-8"?>
<svg xmlns="http://www.w3.org/2000/svg" xmlns:xlink="http://www.w3.org/1999/xlink" width="300pt" height="299.999988pt" viewBox="0 0 300 299.999988" version="1.2">
<defs>
<clipPath id="clip1">
  <path d="M 33.257812 191 L 266.273438 191 L 266.273438 272.683594 L 33.257812 272.683594 Z M 33.257812 191 "/>
</clipPath>
<clipPath id="clip2">
  <path d="M 79 27.433594 L 220 27.433594 L 220 227 L 79 227 Z M 79 27.433594 "/>
</clipPath>
</defs>
<g id="surface1">
<g clip-path="url(#clip1)" clip-rule="nonzero">
<path style=" stroke:none;fill-rule:nonzero;fill:rgb(0%,0%,0%);fill-opacity:1;" d="M 233.636719 191.019531 L 205.820312 191.019531 C 200.171875 199.5625 194.507812 207.472656 189.289062 214.390625 L 217.875 214.390625 L 231.855469 249.445312 L 67.675781 249.445312 L 81.652344 214.390625 L 110.238281 214.390625 C 105.019531 207.472656 99.359375 199.5625 93.710938 191.019531 L 65.890625 191.019531 L 33.273438 272.8125 L 266.253906 272.8125 Z M 233.636719 191.019531 "/>
</g>
<g clip-path="url(#clip2)" clip-rule="nonzero">
<path style=" stroke:none;fill-rule:nonzero;fill:rgb(0%,0%,0%);fill-opacity:1;" d="M 149.765625 27.433594 C 111.160156 27.433594 79.871094 58.820312 79.871094 97.542969 C 79.871094 147.625 149.765625 226.074219 149.765625 226.074219 C 149.765625 226.074219 219.660156 147.625 219.660156 97.542969 C 219.660156 58.820312 188.371094 27.433594 149.765625 27.433594 Z M 149.753906 189.375 C 127.375 160.21875 103.167969 121.101562 103.167969 97.542969 C 103.167969 71.765625 124.066406 50.804688 149.765625 50.804688 C 175.460938 50.804688 196.359375 71.765625 196.359375 97.542969 C 196.359375 121.03125 172.128906 160.171875 149.753906 189.375 Z M 149.753906 189.375 "/>
</g>
<path style=" stroke:none;fill-rule:nonzero;fill:rgb(0%,0%,0%);fill-opacity:1;" d="M 149.765625 74.175781 C 149 74.175781 148.242188 74.210938 147.480469 74.285156 C 146.722656 74.363281 145.96875 74.472656 145.21875 74.621094 C 144.472656 74.773438 143.730469 74.957031 143 75.179688 C 142.269531 75.402344 141.554688 75.660156 140.847656 75.953125 C 140.144531 76.246094 139.453125 76.574219 138.78125 76.933594 C 138.109375 77.292969 137.457031 77.6875 136.820312 78.113281 C 136.1875 78.539062 135.574219 78.992188 134.984375 79.476562 C 134.394531 79.964844 133.832031 80.476562 133.289062 81.019531 C 132.75 81.558594 132.238281 82.125 131.753906 82.71875 C 131.269531 83.308594 130.816406 83.921875 130.394531 84.558594 C 129.96875 85.195312 129.578125 85.851562 129.21875 86.527344 C 128.859375 87.203125 128.53125 87.894531 128.238281 88.601562 C 127.949219 89.308594 127.691406 90.027344 127.46875 90.757812 C 127.25 91.492188 127.0625 92.234375 126.914062 92.984375 C 126.765625 93.734375 126.652344 94.492188 126.578125 95.253906 C 126.503906 96.015625 126.464844 96.777344 126.464844 97.542969 C 126.464844 98.308594 126.503906 99.070312 126.578125 99.832031 C 126.652344 100.59375 126.765625 101.351562 126.914062 102.101562 C 127.0625 102.851562 127.25 103.59375 127.46875 104.328125 C 127.691406 105.058594 127.949219 105.777344 128.238281 106.488281 C 128.53125 107.195312 128.859375 107.882812 129.21875 108.558594 C 129.578125 109.234375 129.96875 109.890625 130.394531 110.527344 C 130.816406 111.164062 131.269531 111.777344 131.753906 112.367188 C 132.238281 112.960938 132.75 113.527344 133.289062 114.066406 C 133.832031 114.609375 134.394531 115.121094 134.984375 115.609375 C 135.574219 116.09375 136.1875 116.550781 136.820312 116.972656 C 137.457031 117.398438 138.109375 117.792969 138.78125 118.152344 C 139.453125 118.515625 140.144531 118.839844 140.847656 119.132812 C 141.554688 119.425781 142.269531 119.683594 143 119.90625 C 143.730469 120.128906 144.472656 120.3125 145.21875 120.464844 C 145.96875 120.613281 146.722656 120.726562 147.480469 120.800781 C 148.242188 120.875 149 120.914062 149.765625 120.914062 C 150.527344 120.914062 151.289062 120.875 152.046875 120.800781 C 152.808594 120.726562 153.5625 120.613281 154.308594 120.464844 C 155.058594 120.3125 155.796875 120.128906 156.527344 119.90625 C 157.257812 119.683594 157.976562 119.425781 158.679688 119.132812 C 159.386719 118.839844 160.074219 118.515625 160.746094 118.152344 C 161.421875 117.792969 162.074219 117.398438 162.707031 116.972656 C 163.34375 116.550781 163.953125 116.09375 164.542969 115.609375 C 165.132812 115.121094 165.699219 114.609375 166.238281 114.066406 C 166.777344 113.527344 167.289062 112.960938 167.773438 112.367188 C 168.257812 111.777344 168.710938 111.164062 169.136719 110.527344 C 169.558594 109.890625 169.953125 109.234375 170.3125 108.558594 C 170.671875 107.882812 170.996094 107.195312 171.289062 106.488281 C 171.582031 105.777344 171.839844 105.058594 172.058594 104.328125 C 172.28125 103.59375 172.464844 102.851562 172.613281 102.101562 C 172.765625 101.351562 172.875 100.59375 172.949219 99.832031 C 173.023438 99.070312 173.0625 98.308594 173.0625 97.542969 C 173.0625 96.777344 173.023438 96.015625 172.949219 95.253906 C 172.875 94.492188 172.765625 93.734375 172.613281 92.984375 C 172.464844 92.234375 172.28125 91.492188 172.058594 90.757812 C 171.839844 90.027344 171.582031 89.308594 171.289062 88.601562 C 170.996094 87.894531 170.671875 87.203125 170.3125 86.527344 C 169.953125 85.851562 169.558594 85.195312 169.136719 84.558594 C 168.710938 83.921875 168.257812 83.308594 167.773438 82.71875 C 167.289062 82.125 166.777344 81.558594 166.238281 81.019531 C 165.699219 80.476562 165.132812 79.964844 164.542969 79.476562 C 163.953125 78.992188 163.34375 78.539062 162.707031 78.113281 C 162.074219 77.6875 161.421875 77.292969 160.746094 76.933594 C 160.074219 76.574219 159.386719 76.246094 158.679688 75.953125 C 157.976562 75.660156 157.257812 75.402344 156.527344 75.179688 C 155.796875 74.957031 155.058594 74.773438 154.308594 74.621094 C 153.5625 74.472656 152.808594 74.363281 152.046875 74.285156 C 151.289062 74.210938 150.527344 74.175781 149.765625 74.175781 Z M 149.765625 74.175781 "/>
<path style=" stroke:none;fill-rule:nonzero;fill:rgb(0%,0%,0%);fill-opacity:0.298;" d="M 208.011719 97.542969 C 208.011719 129.804688 149.765625 202.707031 149.765625 202.707031 C 149.765625 202.707031 91.519531 129.804688 91.519531 97.542969 C 91.519531 65.28125 117.601562 39.121094 149.765625 39.121094 C 181.925781 39.121094 208.011719 65.28125 208.011719 97.542969 Z M 208.011719 97.542969 "/>
</g>
</svg>
