<?xml version="1.0" encoding="UTF-8"?>
<svg xmlns="http://www.w3.org/2000/svg" xmlns:xlink="http://www.w3.org/1999/xlink" width="300pt" height="299.999988pt" viewBox="0 0 300 299.999988" version="1.2">
<defs>
<clipPath id="clip1">
  <path d="M 76 78 L 255.113281 78 L 255.113281 185 L 76 185 Z M 76 78 "/>
</clipPath>
<clipPath id="clip2">
  <path d="M 76 78 L 255.113281 78 L 255.113281 172 L 76 172 Z M 76 78 "/>
</clipPath>
<clipPath id="clip3">
  <path d="M 76 61 L 255.113281 61 L 255.113281 154 L 76 154 Z M 76 61 "/>
</clipPath>
<clipPath id="clip4">
  <path d="M 87 55.078125 L 232 55.078125 L 232 207 L 87 207 Z M 87 55.078125 "/>
</clipPath>
</defs>
<g id="surface1">
<g clip-path="url(#clip1)" clip-rule="nonzero">
<path style=" stroke:none;fill-rule:nonzero;fill:rgb(8.239746%,21.179199%,27.839661%);fill-opacity:1;" d="M 255.019531 140.460938 L 81.429688 78.902344 L 76.847656 92.199219 L 141.617188 184.242188 L 250.292969 153.703125 L 255.019531 140.460938 "/>
</g>
<g clip-path="url(#clip2)" clip-rule="nonzero">
<path style=" stroke:none;fill-rule:nonzero;fill:rgb(8.239746%,21.179199%,27.839661%);fill-opacity:1;" d="M 255.019531 140.460938 L 81.429688 78.902344 L 76.847656 92.199219 L 146.238281 171.289062 L 250.292969 153.703125 L 255.019531 140.460938 "/>
</g>
<g clip-path="url(#clip3)" clip-rule="nonzero">
<path style=" stroke:none;fill-rule:nonzero;fill:rgb(14.509583%,37.249756%,49.01886%);fill-opacity:1;" d="M 250.378906 153.464844 L 76.789062 91.902344 L 81.660156 78.710938 L 185.578125 61.078125 L 255.105469 140.21875 L 250.378906 153.464844 "/>
</g>
<g clip-path="url(#clip4)" clip-rule="nonzero">
<path style=" stroke:none;fill-rule:nonzero;fill:rgb(100%,100%,100%);fill-opacity:1;" d="M 187.359375 206.15625 L 231.195312 93.292969 L 132.183594 55.085938 L 87.019531 171.585938 L 187.359375 206.15625 "/>
</g>
<path style=" stroke:none;fill-rule:nonzero;fill:rgb(10.5896%,27.059937%,35.289001%);fill-opacity:1;" d="M 146.238281 171.289062 L 76.847656 92.199219 L 141.617188 184.242188 L 250.292969 153.703125 L 146.238281 171.289062 "/>
<path style=" stroke:none;fill-rule:nonzero;fill:rgb(11.759949%,29.798889%,39.219666%);fill-opacity:1;" d="M 153.433594 151.132812 L 48.167969 172.089844 L 47.402344 174.246094 C 45.3125 180.097656 48.378906 186.527344 54.253906 188.613281 L 206.582031 242.632812 C 212.453125 244.710938 218.902344 241.652344 220.992188 235.800781 L 221.761719 233.648438 L 153.433594 151.132812 "/>
<path style=" stroke:none;fill-rule:nonzero;fill:rgb(14.509583%,37.249756%,49.01886%);fill-opacity:1;" d="M 148.730469 164.308594 L 48.167969 172.089844 L 47.402344 174.246094 C 45.3125 180.097656 48.378906 186.527344 54.253906 188.613281 L 206.582031 242.632812 C 212.453125 244.710938 218.902344 241.652344 220.992188 235.800781 L 221.761719 233.648438 L 148.730469 164.308594 "/>
<path style=" stroke:none;fill-rule:nonzero;fill:rgb(14.509583%,37.249756%,49.01886%);fill-opacity:1;" d="M 221.761719 233.648438 L 250.292969 153.703125 L 173.445312 175.300781 Z M 221.761719 233.648438 "/>
<path style=" stroke:none;fill-rule:nonzero;fill:rgb(14.509583%,37.249756%,49.01886%);fill-opacity:1;" d="M 76.847656 92.199219 L 77.390625 90.628906 C 77.132812 91.109375 76.894531 91.613281 76.703125 92.148438 L 48.167969 172.089844 L 122.632812 157.269531 L 76.847656 92.199219 "/>
<path style=" stroke:none;fill-rule:nonzero;fill:rgb(8.239746%,21.179199%,27.839661%);fill-opacity:1;" d="M 173.425781 111.5625 L 172.894531 113.367188 L 171.570312 117.875 L 168.734375 127.511719 C 167.597656 128.113281 166.53125 128.511719 165.535156 128.714844 C 164.539062 128.910156 163.46875 128.84375 162.320312 128.507812 C 160.132812 127.867188 158.808594 126.574219 158.351562 124.621094 C 157.890625 122.667969 158.175781 119.949219 159.199219 116.46875 C 159.410156 115.753906 159.640625 115.089844 159.886719 114.460938 C 160.554688 112.753906 161.355469 111.359375 162.296875 110.269531 C 162.574219 109.945312 162.855469 109.636719 163.160156 109.371094 C 163.402344 109.148438 163.65625 108.957031 163.914062 108.78125 C 164.292969 108.519531 164.683594 108.308594 165.082031 108.144531 C 166.265625 107.675781 167.53125 107.632812 168.882812 108.027344 C 169.855469 108.3125 170.699219 108.667969 171.410156 109.105469 C 172.019531 109.480469 172.648438 109.960938 173.300781 110.546875 C 173.410156 110.648438 173.519531 110.742188 173.632812 110.851562 Z M 195.316406 117.960938 C 195.335938 117.636719 195.34375 117.316406 195.355469 116.992188 C 195.375 116.332031 195.375 115.679688 195.347656 115.03125 C 195.328125 114.476562 195.289062 113.921875 195.238281 113.378906 C 194.847656 109.515625 193.777344 105.992188 192.027344 102.800781 C 190.324219 99.621094 187.984375 96.855469 185.015625 94.503906 C 182.042969 92.152344 178.613281 90.410156 174.726562 89.273438 C 170.8125 88.128906 166.898438 87.785156 162.980469 88.246094 C 159.0625 88.707031 155.480469 89.847656 152.230469 91.671875 C 148.902344 93.523438 145.988281 95.984375 143.503906 99.050781 C 143.324219 99.269531 143.15625 99.503906 142.984375 99.730469 C 142.582031 100.257812 142.191406 100.796875 141.828125 101.351562 C 141.648438 101.621094 141.480469 101.898438 141.308594 102.179688 C 140.976562 102.726562 140.65625 103.285156 140.351562 103.859375 C 139.636719 105.230469 139.007812 106.679688 138.476562 108.203125 C 138.300781 108.726562 138.128906 109.257812 137.96875 109.796875 C 136.71875 114.050781 136.265625 118.179688 136.613281 122.183594 C 136.960938 126.183594 138.007812 129.816406 139.765625 133.082031 C 141.53125 136.375 143.933594 139.214844 146.960938 141.609375 C 149.992188 144.003906 153.527344 145.789062 157.574219 146.972656 C 159.984375 147.675781 162.242188 148.203125 164.34375 148.554688 C 166.453125 148.90625 168.601562 149.152344 170.792969 149.289062 L 172.675781 142.878906 C 170.660156 142.886719 168.40625 142.710938 165.90625 142.351562 C 163.410156 141.992188 161.222656 141.542969 159.347656 140.992188 C 156.523438 140.167969 153.980469 138.886719 151.734375 137.152344 C 149.484375 135.417969 147.679688 133.324219 146.3125 130.867188 C 144.957031 128.386719 144.121094 125.535156 143.808594 122.308594 C 143.5 119.085938 143.894531 115.601562 145 111.851562 C 145.15625 111.308594 145.335938 110.785156 145.519531 110.261719 C 146.070312 108.726562 146.734375 107.285156 147.511719 105.949219 C 147.84375 105.378906 148.203125 104.835938 148.578125 104.304688 C 148.769531 104.03125 148.960938 103.757812 149.167969 103.496094 C 149.316406 103.296875 149.472656 103.097656 149.628906 102.902344 C 149.90625 102.5625 150.191406 102.238281 150.476562 101.921875 C 152.328125 99.867188 154.347656 98.257812 156.535156 97.09375 C 159.007812 95.785156 161.667969 94.949219 164.523438 94.585938 C 167.375 94.21875 170.207031 94.449219 173.011719 95.269531 C 175.949219 96.128906 178.542969 97.390625 180.789062 99.046875 C 183.035156 100.710938 184.820312 102.761719 186.140625 105.207031 C 187.363281 107.472656 188.09375 110.070312 188.351562 112.988281 C 188.359375 113.140625 188.378906 113.296875 188.394531 113.457031 C 188.421875 113.953125 188.4375 114.457031 188.4375 114.96875 C 188.4375 115.289062 188.433594 115.617188 188.421875 115.945312 C 188.398438 116.574219 188.34375 117.210938 188.273438 117.859375 C 188.105469 119.347656 187.816406 120.894531 187.398438 122.5 C 187.292969 122.898438 187.183594 123.304688 187.0625 123.710938 C 186.511719 125.585938 185.746094 127.484375 184.761719 129.410156 C 183.773438 131.335938 182.628906 133.054688 181.320312 134.5625 L 175.683594 132.914062 L 179.429688 120.171875 L 180.757812 115.664062 L 181.285156 113.859375 L 182.082031 111.152344 L 183.617188 105.941406 L 175.921875 103.695312 L 175.320312 105.742188 C 174.871094 104.964844 174.167969 104.144531 173.199219 103.273438 C 172.226562 102.40625 171.015625 101.757812 169.550781 101.332031 C 167.855469 100.835938 166.023438 100.730469 164.066406 101.019531 C 162.105469 101.308594 160.316406 101.980469 158.683594 103.035156 C 158.246094 103.316406 157.820312 103.621094 157.40625 103.945312 C 156.835938 104.394531 156.296875 104.898438 155.773438 105.425781 C 155.527344 105.675781 155.277344 105.921875 155.039062 106.191406 C 154.699219 106.582031 154.371094 106.980469 154.046875 107.40625 C 153.957031 107.527344 153.871094 107.65625 153.785156 107.78125 C 152.925781 109.007812 152.183594 110.417969 151.5625 112.027344 C 151.300781 112.695312 151.0625 113.398438 150.847656 114.136719 C 149.367188 119.160156 149.3125 123.480469 150.671875 127.097656 C 152.035156 130.710938 154.515625 133.046875 158.117188 134.097656 C 160.328125 134.746094 162.09375 134.992188 163.410156 134.839844 C 164.726562 134.6875 166.140625 134.375 167.644531 133.90625 L 167.421875 136.636719 L 184.199219 141.542969 C 186.144531 139.835938 188.023438 137.519531 189.84375 134.59375 C 191.667969 131.667969 193.03125 128.664062 193.9375 125.578125 C 194.046875 125.214844 194.132812 124.855469 194.230469 124.496094 C 194.644531 122.921875 194.945312 121.378906 195.132812 119.863281 C 195.210938 119.222656 195.277344 118.589844 195.316406 117.960938 "/>
</g>
</svg>
