<?xml version="1.0" encoding="UTF-8"?>
<svg xmlns="http://www.w3.org/2000/svg" xmlns:xlink="http://www.w3.org/1999/xlink" width="300pt" height="299.999988pt" viewBox="0 0 300 299.999988" version="1.2">
<defs>
<clipPath id="clip1">
  <path d="M 51 88 L 218 88 L 218 235.449219 L 51 235.449219 Z M 51 88 "/>
</clipPath>
<clipPath id="clip2">
  <path d="M 74 63.980469 L 90 63.980469 L 90 104 L 74 104 Z M 74 63.980469 "/>
</clipPath>
<clipPath id="clip3">
  <path d="M 179 63.980469 L 195 63.980469 L 195 104 L 179 104 Z M 179 63.980469 "/>
</clipPath>
<clipPath id="clip4">
  <path d="M 186 159 L 248.453125 159 L 248.453125 221 L 186 221 Z M 186 159 "/>
</clipPath>
<clipPath id="clip5">
  <path d="M 97 76 L 248.453125 76 L 248.453125 235.449219 L 97 235.449219 Z M 97 76 "/>
</clipPath>
</defs>
<g id="surface1">
<g clip-path="url(#clip1)" clip-rule="nonzero">
<path style=" stroke:none;fill-rule:nonzero;fill:rgb(66.668701%,78.039551%,83.139038%);fill-opacity:1;" d="M 217.597656 226.3125 C 217.597656 231.328125 213.539062 235.386719 208.535156 235.386719 L 60.109375 235.386719 C 55.101562 235.386719 51.042969 231.328125 51.042969 226.3125 L 51.042969 97.4375 C 51.042969 92.429688 55.101562 88.367188 60.109375 88.367188 L 208.535156 88.367188 C 213.539062 88.367188 217.597656 92.429688 217.597656 97.4375 L 217.597656 226.3125 "/>
</g>
<path style=" stroke:none;fill-rule:nonzero;fill:rgb(90.19928%,92.549133%,93.328857%);fill-opacity:1;" d="M 217.597656 216.597656 C 217.597656 221.605469 213.539062 225.667969 208.535156 225.667969 L 60.109375 225.667969 C 55.101562 225.667969 51.042969 221.605469 51.042969 216.597656 L 51.042969 87.714844 C 51.042969 82.707031 55.101562 78.648438 60.109375 78.648438 L 208.535156 78.648438 C 213.539062 78.648438 217.597656 82.707031 217.597656 87.714844 L 217.597656 216.597656 "/>
<path style=" stroke:none;fill-rule:nonzero;fill:rgb(26.669312%,70.979309%,78.42865%);fill-opacity:1;" d="M 217.597656 122.75 L 217.597656 87.714844 C 217.597656 82.707031 213.539062 78.648438 208.535156 78.648438 L 60.109375 78.648438 C 55.101562 78.648438 51.042969 82.707031 51.042969 87.714844 L 51.042969 122.75 L 217.597656 122.75 "/>
<path style=" stroke:none;fill-rule:nonzero;fill:rgb(65.879822%,88.238525%,88.238525%);fill-opacity:1;" d="M 84.894531 146.296875 L 66.890625 146.296875 L 66.890625 133.757812 L 84.894531 133.757812 L 84.894531 146.296875 "/>
<path style=" stroke:none;fill-rule:nonzero;fill:rgb(65.879822%,88.238525%,88.238525%);fill-opacity:1;" d="M 114.105469 146.296875 L 96.109375 146.296875 L 96.109375 133.757812 L 114.105469 133.757812 L 114.105469 146.296875 "/>
<path style=" stroke:none;fill-rule:nonzero;fill:rgb(65.879822%,88.238525%,88.238525%);fill-opacity:1;" d="M 143.320312 146.296875 L 125.324219 146.296875 L 125.324219 133.757812 L 143.320312 133.757812 L 143.320312 146.296875 "/>
<path style=" stroke:none;fill-rule:nonzero;fill:rgb(65.879822%,88.238525%,88.238525%);fill-opacity:1;" d="M 172.539062 146.296875 L 154.535156 146.296875 L 154.535156 133.757812 L 172.539062 133.757812 L 172.539062 146.296875 "/>
<path style=" stroke:none;fill-rule:nonzero;fill:rgb(65.879822%,88.238525%,88.238525%);fill-opacity:1;" d="M 201.753906 146.296875 L 183.746094 146.296875 L 183.746094 133.757812 L 201.753906 133.757812 L 201.753906 146.296875 "/>
<path style=" stroke:none;fill-rule:nonzero;fill:rgb(65.879822%,88.238525%,88.238525%);fill-opacity:1;" d="M 84.894531 166.945312 L 66.890625 166.945312 L 66.890625 154.402344 L 84.894531 154.402344 L 84.894531 166.945312 "/>
<path style=" stroke:none;fill-rule:nonzero;fill:rgb(65.879822%,88.238525%,88.238525%);fill-opacity:1;" d="M 114.105469 166.945312 L 96.109375 166.945312 L 96.109375 154.402344 L 114.105469 154.402344 L 114.105469 166.945312 "/>
<path style=" stroke:none;fill-rule:nonzero;fill:rgb(26.669312%,70.979309%,78.42865%);fill-opacity:1;" d="M 143.320312 166.945312 L 125.324219 166.945312 L 125.324219 154.402344 L 143.320312 154.402344 L 143.320312 166.945312 "/>
<path style=" stroke:none;fill-rule:nonzero;fill:rgb(65.879822%,88.238525%,88.238525%);fill-opacity:1;" d="M 172.539062 166.945312 L 154.535156 166.945312 L 154.535156 154.402344 L 172.539062 154.402344 L 172.539062 166.945312 "/>
<path style=" stroke:none;fill-rule:nonzero;fill:rgb(65.879822%,88.238525%,88.238525%);fill-opacity:1;" d="M 201.753906 166.945312 L 183.746094 166.945312 L 183.746094 154.402344 L 201.753906 154.402344 L 201.753906 166.945312 "/>
<path style=" stroke:none;fill-rule:nonzero;fill:rgb(65.879822%,88.238525%,88.238525%);fill-opacity:1;" d="M 84.894531 187.597656 L 66.890625 187.597656 L 66.890625 175.058594 L 84.894531 175.058594 L 84.894531 187.597656 "/>
<path style=" stroke:none;fill-rule:nonzero;fill:rgb(65.879822%,88.238525%,88.238525%);fill-opacity:1;" d="M 114.105469 187.597656 L 96.109375 187.597656 L 96.109375 175.058594 L 114.105469 175.058594 L 114.105469 187.597656 "/>
<path style=" stroke:none;fill-rule:nonzero;fill:rgb(65.879822%,88.238525%,88.238525%);fill-opacity:1;" d="M 143.320312 187.597656 L 125.324219 187.597656 L 125.324219 175.058594 L 143.320312 175.058594 L 143.320312 187.597656 "/>
<path style=" stroke:none;fill-rule:nonzero;fill:rgb(65.879822%,88.238525%,88.238525%);fill-opacity:1;" d="M 172.539062 187.597656 L 154.535156 187.597656 L 154.535156 175.058594 L 172.539062 175.058594 L 172.539062 187.597656 "/>
<path style=" stroke:none;fill-rule:nonzero;fill:rgb(65.879822%,88.238525%,88.238525%);fill-opacity:1;" d="M 201.753906 187.597656 L 183.746094 187.597656 L 183.746094 175.058594 L 201.753906 175.058594 L 201.753906 187.597656 "/>
<path style=" stroke:none;fill-rule:nonzero;fill:rgb(65.879822%,88.238525%,88.238525%);fill-opacity:1;" d="M 84.894531 208.246094 L 66.890625 208.246094 L 66.890625 195.703125 L 84.894531 195.703125 L 84.894531 208.246094 "/>
<path style=" stroke:none;fill-rule:nonzero;fill:rgb(65.879822%,88.238525%,88.238525%);fill-opacity:1;" d="M 114.105469 208.246094 L 96.109375 208.246094 L 96.109375 195.703125 L 114.105469 195.703125 L 114.105469 208.246094 "/>
<path style=" stroke:none;fill-rule:nonzero;fill:rgb(65.879822%,88.238525%,88.238525%);fill-opacity:1;" d="M 143.320312 208.246094 L 125.324219 208.246094 L 125.324219 195.703125 L 143.320312 195.703125 L 143.320312 208.246094 "/>
<path style=" stroke:none;fill-rule:nonzero;fill:rgb(65.879822%,88.238525%,88.238525%);fill-opacity:1;" d="M 172.539062 208.246094 L 154.535156 208.246094 L 154.535156 195.703125 L 172.539062 195.703125 L 172.539062 208.246094 "/>
<path style=" stroke:none;fill-rule:nonzero;fill:rgb(65.879822%,88.238525%,88.238525%);fill-opacity:1;" d="M 201.753906 208.246094 L 183.746094 208.246094 L 183.746094 195.703125 L 201.753906 195.703125 L 201.753906 208.246094 "/>
<g clip-path="url(#clip2)" clip-rule="nonzero">
<path style=" stroke:none;fill-rule:nonzero;fill:rgb(66.668701%,78.039551%,83.139038%);fill-opacity:1;" d="M 89.238281 95.785156 C 89.238281 99.898438 85.910156 103.230469 81.796875 103.230469 C 77.695312 103.230469 74.367188 99.898438 74.367188 95.785156 L 74.367188 71.390625 C 74.367188 67.285156 77.695312 63.957031 81.796875 63.957031 C 85.910156 63.957031 89.238281 67.285156 89.238281 71.390625 L 89.238281 95.785156 "/>
</g>
<g clip-path="url(#clip3)" clip-rule="nonzero">
<path style=" stroke:none;fill-rule:nonzero;fill:rgb(66.668701%,78.039551%,83.139038%);fill-opacity:1;" d="M 194.277344 95.785156 C 194.277344 99.898438 190.949219 103.230469 186.84375 103.230469 C 182.738281 103.230469 179.402344 99.898438 179.402344 95.785156 L 179.402344 71.390625 C 179.402344 67.285156 182.738281 63.957031 186.84375 63.957031 C 190.949219 63.957031 194.277344 67.285156 194.277344 71.390625 L 194.277344 95.785156 "/>
</g>
<g clip-path="url(#clip4)" clip-rule="nonzero">
<path style=" stroke:none;fill-rule:nonzero;fill:rgb(84.309387%,15.689087%,18.429565%);fill-opacity:1;" d="M 248.230469 189.945312 C 248.230469 206.871094 234.515625 220.589844 217.597656 220.589844 C 200.683594 220.589844 186.96875 206.871094 186.96875 189.945312 C 186.96875 173.023438 200.683594 159.304688 217.597656 159.304688 C 234.515625 159.304688 248.230469 173.023438 248.230469 189.945312 "/>
</g>
<g clip-path="url(#clip5)" clip-rule="nonzero">
<path style="fill:none;stroke-width:80;stroke-linecap:butt;stroke-linejoin:miter;stroke:rgb(100%,100%,100%);stroke-opacity:1;stroke-miterlimit:10;" d="M 2671.105147 1678.310354 L 2817.285404 1535.207242 L 3104.39236 1814.499004 " transform="matrix(0.0892252,0,0,-0.0892604,-40.056564,339.439424)"/>
</g>
</g>
</svg>
