<?xml version="1.0" encoding="UTF-8"?>
<svg xmlns="http://www.w3.org/2000/svg" xmlns:xlink="http://www.w3.org/1999/xlink" width="300pt" height="299.999988pt" viewBox="0 0 300 299.999988" version="1.2">
<defs>
<clipPath id="clip1">
  <path d="M 228 166 L 251.328125 166 L 251.328125 190 L 228 190 Z M 228 166 "/>
</clipPath>
<clipPath id="clip2">
  <path d="M 159.195312 234 L 183 234 L 183 258.074219 L 159.195312 258.074219 Z M 159.195312 234 "/>
</clipPath>
<clipPath id="clip3">
  <path d="M 148.070312 191.113281 L 166.527344 191.113281 L 166.527344 206.710938 L 148.070312 206.710938 Z M 148.070312 191.113281 "/>
</clipPath>
<clipPath id="clip4">
  <path d="M 149 142 L 170.835938 142 L 170.835938 186 L 149 186 Z M 149 142 "/>
</clipPath>
<clipPath id="clip5">
  <path d="M 111.160156 160.125 L 152 160.125 L 152 206.710938 L 111.160156 206.710938 Z M 111.160156 160.125 "/>
</clipPath>
<clipPath id="clip6">
  <path d="M 49.636719 67 L 90 67 L 90 162 L 49.636719 162 Z M 49.636719 67 "/>
</clipPath>
<clipPath id="clip7">
  <path d="M 111.160156 160.125 L 152 160.125 L 152 206.710938 L 111.160156 206.710938 Z M 111.160156 160.125 "/>
</clipPath>
<clipPath id="clip8">
  <path d="M 49.636719 67 L 90 67 L 90 162 L 49.636719 162 Z M 49.636719 67 "/>
</clipPath>
</defs>
<g id="surface1">
<path style=" stroke:none;fill-rule:nonzero;fill:rgb(6.269836%,5.879211%,5.099487%);fill-opacity:1;" d="M 200.410156 200.105469 C 197.242188 200.105469 194.664062 202.679688 194.664062 205.847656 L 194.664062 214.832031 C 194.664062 218 197.242188 220.574219 200.410156 220.574219 C 203.574219 220.574219 206.152344 218 206.152344 214.832031 L 206.152344 205.847656 C 206.152344 202.679688 203.574219 200.105469 200.410156 200.105469 Z M 200.410156 222.789062 C 196.019531 222.789062 192.449219 219.21875 192.449219 214.832031 L 192.449219 205.847656 C 192.449219 201.457031 196.019531 197.890625 200.410156 197.890625 C 204.792969 197.890625 208.363281 201.457031 208.363281 205.847656 L 208.363281 214.832031 C 208.363281 219.21875 204.792969 222.789062 200.410156 222.789062 "/>
<path style=" stroke:none;fill-rule:nonzero;fill:rgb(6.269836%,5.879211%,5.099487%);fill-opacity:1;" d="M 220.976562 230.441406 L 213.574219 230.441406 C 213.261719 230.441406 212.960938 230.308594 212.753906 230.074219 C 212.542969 229.839844 212.441406 229.527344 212.476562 229.210938 C 212.714844 227.046875 214.085938 225.269531 215.09375 224.125 C 215.398438 223.785156 215.710938 223.449219 216.023438 223.117188 C 216.871094 222.203125 217.671875 221.34375 218.25 220.359375 C 218.871094 219.292969 219.316406 217.730469 218.699219 216.515625 C 218.449219 216.023438 218.019531 215.597656 217.515625 215.363281 C 216.6875 214.96875 215.613281 215.101562 214.953125 215.679688 C 214.855469 215.765625 214.867188 215.78125 214.773438 215.816406 C 214.65625 215.929688 214.285156 216.355469 213.972656 217.472656 C 213.800781 218.0625 213.191406 218.402344 212.597656 218.234375 C 212.011719 218.066406 211.671875 217.457031 211.835938 216.867188 C 212.382812 214.953125 213.175781 214.207031 213.570312 213.945312 C 214.902344 212.835938 216.851562 212.597656 218.464844 213.359375 C 219.414062 213.808594 220.203125 214.574219 220.675781 215.515625 C 221.542969 217.21875 221.347656 219.449219 220.160156 221.476562 C 219.457031 222.675781 218.535156 223.664062 217.640625 224.625 C 217.34375 224.945312 217.046875 225.265625 216.757812 225.589844 C 216.167969 226.257812 215.429688 227.183594 215 228.226562 L 220.976562 228.226562 C 221.589844 228.226562 222.085938 228.722656 222.085938 229.332031 C 222.085938 229.945312 221.589844 230.441406 220.976562 230.441406 "/>
<g clip-path="url(#clip1)" clip-rule="nonzero">
<path style=" stroke:none;fill-rule:nonzero;fill:rgb(6.269836%,5.879211%,5.099487%);fill-opacity:1;" d="M 250.125 189.132812 C 249.617188 189.132812 249.160156 188.78125 249.042969 188.261719 C 247.972656 183.339844 245.535156 178.867188 241.992188 175.320312 C 238.449219 171.777344 233.972656 169.339844 229.050781 168.269531 C 228.453125 168.136719 228.070312 167.546875 228.203125 166.953125 C 228.335938 166.351562 228.921875 165.976562 229.523438 166.105469 C 234.859375 167.265625 239.714844 169.910156 243.558594 173.753906 C 247.402344 177.601562 250.050781 182.453125 251.210938 187.792969 C 251.339844 188.390625 250.960938 188.980469 250.363281 189.109375 C 250.285156 189.128906 250.203125 189.132812 250.125 189.132812 "/>
</g>
<path style=" stroke:none;fill-rule:nonzero;fill:rgb(6.269836%,5.879211%,5.099487%);fill-opacity:1;" d="M 238.203125 188.691406 C 237.695312 188.691406 237.238281 188.335938 237.125 187.820312 C 236.714844 185.941406 235.785156 184.230469 234.433594 182.882812 C 233.082031 181.53125 231.371094 180.601562 229.496094 180.191406 C 228.898438 180.0625 228.515625 179.46875 228.648438 178.871094 C 228.78125 178.277344 229.367188 177.894531 229.964844 178.023438 C 232.261719 178.523438 234.347656 179.664062 236 181.316406 C 237.652344 182.96875 238.789062 185.054688 239.289062 187.347656 C 239.417969 187.945312 239.039062 188.535156 238.441406 188.667969 C 238.363281 188.6875 238.285156 188.691406 238.203125 188.691406 "/>
<g clip-path="url(#clip2)" clip-rule="nonzero">
<path style=" stroke:none;fill-rule:nonzero;fill:rgb(6.269836%,5.879211%,5.099487%);fill-opacity:1;" d="M 181.234375 258.027344 C 181.15625 258.027344 181.078125 258.019531 181 258.003906 C 175.660156 256.839844 170.808594 254.195312 166.960938 250.347656 C 163.117188 246.507812 160.472656 241.652344 159.3125 236.316406 C 159.183594 235.714844 159.558594 235.128906 160.160156 234.996094 C 160.753906 234.863281 161.34375 235.246094 161.476562 235.84375 C 162.546875 240.765625 164.988281 245.242188 168.527344 248.78125 C 172.074219 252.328125 176.546875 254.765625 181.472656 255.835938 C 182.070312 255.964844 182.445312 256.558594 182.316406 257.15625 C 182.207031 257.671875 181.746094 258.027344 181.234375 258.027344 "/>
</g>
<path style=" stroke:none;fill-rule:nonzero;fill:rgb(6.269836%,5.879211%,5.099487%);fill-opacity:1;" d="M 180.792969 246.105469 C 180.714844 246.105469 180.636719 246.101562 180.554688 246.082031 C 178.261719 245.582031 176.175781 244.445312 174.523438 242.792969 C 172.871094 241.140625 171.730469 239.054688 171.230469 236.757812 C 171.101562 236.160156 171.484375 235.570312 172.078125 235.441406 C 172.675781 235.308594 173.269531 235.691406 173.398438 236.289062 C 173.808594 238.164062 174.738281 239.875 176.089844 241.226562 C 177.4375 242.578125 179.148438 243.507812 181.027344 243.917969 C 181.625 244.046875 182.003906 244.632812 181.875 245.234375 C 181.761719 245.75 181.304688 246.105469 180.792969 246.105469 "/>
<path style=" stroke:none;fill-rule:nonzero;fill:rgb(6.269836%,5.879211%,5.099487%);fill-opacity:1;" d="M 205.261719 180.472656 C 187.847656 180.472656 173.683594 194.640625 173.683594 212.054688 C 173.683594 229.464844 187.847656 243.632812 205.261719 243.632812 C 222.671875 243.632812 236.839844 229.464844 236.839844 212.054688 C 236.839844 194.640625 222.671875 180.472656 205.261719 180.472656 Z M 205.261719 245.847656 C 186.625 245.847656 171.464844 230.6875 171.464844 212.054688 C 171.464844 193.417969 186.625 178.257812 205.261719 178.257812 C 223.894531 178.257812 239.054688 193.417969 239.054688 212.054688 C 239.054688 230.6875 223.894531 245.847656 205.261719 245.847656 "/>
<path style=" stroke:none;fill-rule:nonzero;fill:rgb(98.429871%,75.689697%,9.01947%);fill-opacity:1;" d="M 205.261719 192.277344 C 217.238281 192.277344 227.710938 198.832031 233.289062 208.539062 C 231.554688 194.613281 219.652344 183.796875 205.261719 183.796875 C 190.867188 183.796875 178.964844 194.613281 177.230469 208.539062 C 182.8125 198.832031 193.28125 192.277344 205.261719 192.277344 "/>
<path style=" stroke:none;fill-rule:nonzero;fill:rgb(23.529053%,50.588989%,79.60968%);fill-opacity:1;" d="M 54.085938 142.785156 L 68.535156 134.328125 C 68.527344 137.773438 70.960938 142.027344 73.941406 143.761719 C 74.542969 144.109375 75.121094 144.34375 75.65625 144.421875 L 61.207031 152.886719 C 60.667969 152.800781 60.09375 152.574219 59.484375 152.21875 C 56.511719 150.492188 54.078125 146.238281 54.085938 142.785156 "/>
<path style=" stroke:none;fill-rule:nonzero;fill:rgb(23.529053%,50.588989%,79.60968%);fill-opacity:1;" d="M 61.207031 152.886719 L 75.65625 144.421875 L 90.539062 147.359375 L 76.089844 155.816406 L 61.207031 152.886719 "/>
<path style=" stroke:none;fill-rule:nonzero;fill:rgb(23.529053%,50.588989%,79.60968%);fill-opacity:1;" d="M 54.21875 94.269531 L 68.671875 85.8125 L 68.535156 134.328125 L 54.085938 142.785156 L 54.21875 94.269531 "/>
<path style=" stroke:none;fill-rule:nonzero;fill:rgb(41.958618%,74.899292%,79.998779%);fill-opacity:1;" d="M 77.867188 116.550781 C 78.292969 117.535156 78.996094 118.351562 79.710938 118.769531 C 74.894531 121.585938 70.082031 124.410156 65.257812 127.234375 C 64.539062 126.816406 63.832031 126 63.410156 125.007812 C 68.230469 122.191406 73.046875 119.367188 77.867188 116.550781 "/>
<path style=" stroke:none;fill-rule:nonzero;fill:rgb(23.529053%,50.588989%,79.60968%);fill-opacity:1;" d="M 95.804688 146.632812 L 81.34375 155.089844 C 79.902344 155.9375 78.117188 156.210938 76.089844 155.816406 L 90.539062 147.359375 C 92.566406 147.753906 94.351562 147.480469 95.804688 146.632812 "/>
<path style=" stroke:none;fill-rule:nonzero;fill:rgb(41.958618%,74.899292%,79.998779%);fill-opacity:1;" d="M 79.710938 118.769531 C 79.949219 118.90625 80.191406 119.003906 80.421875 119.042969 C 75.609375 121.867188 70.785156 124.683594 65.972656 127.507812 C 65.738281 127.46875 65.5 127.371094 65.257812 127.234375 C 70.082031 124.410156 74.894531 121.585938 79.710938 118.769531 "/>
<path style=" stroke:none;fill-rule:nonzero;fill:rgb(41.958618%,74.899292%,79.998779%);fill-opacity:1;" d="M 80.421875 119.042969 C 80.605469 119.085938 80.785156 119.085938 80.945312 119.050781 C 76.128906 121.875 71.316406 124.691406 66.492188 127.515625 C 66.324219 127.550781 66.148438 127.542969 65.972656 127.507812 C 68.382812 126.097656 70.785156 124.683594 73.199219 123.28125 C 73.476562 123.109375 73.863281 122.894531 74.144531 122.722656 C 74.429688 122.5625 74.808594 122.335938 75.089844 122.175781 C 76.304688 121.457031 77.523438 120.746094 78.734375 120.035156 C 79.238281 119.738281 79.847656 119.148438 80.421875 119.042969 "/>
<path style=" stroke:none;fill-rule:nonzero;fill:rgb(41.958618%,74.899292%,79.998779%);fill-opacity:1;" d="M 78.140625 113.46875 C 77.410156 113.894531 77.265625 115.164062 77.867188 116.550781 C 73.046875 119.367188 68.230469 122.191406 63.410156 125.007812 C 62.816406 123.628906 62.960938 122.351562 63.6875 121.933594 C 68.023438 119.390625 73.804688 116.011719 78.140625 113.46875 "/>
<path style=" stroke:none;fill-rule:nonzero;fill:rgb(41.958618%,74.899292%,79.998779%);fill-opacity:1;" d="M 80.945312 119.050781 C 81.070312 119.027344 82.273438 118.785156 83.699219 117.953125 L 69.25 126.410156 C 67.824219 127.25 66.613281 127.492188 66.492188 127.515625 C 68.902344 126.105469 71.316406 124.691406 73.71875 123.28125 C 74.285156 122.949219 75.046875 122.507812 75.609375 122.175781 C 75.890625 122.015625 76.265625 121.796875 76.546875 121.625 C 77.097656 121.3125 77.828125 120.882812 78.371094 120.5625 C 78.902344 120.253906 79.589844 119.84375 80.117188 119.535156 C 80.367188 119.390625 80.679688 119.148438 80.945312 119.050781 "/>
<path style=" stroke:none;fill-rule:nonzero;fill:rgb(79.998779%,6.669617%,39.608765%);fill-opacity:1;" d="M 63.6875 121.933594 L 78.140625 113.46875 C 78.242188 113.410156 78.355469 113.363281 78.484375 113.339844 C 78.507812 113.339844 79.445312 113.136719 80.558594 112.484375 L 66.109375 120.949219 C 64.996094 121.59375 64.058594 121.796875 64.035156 121.804688 C 63.90625 121.828125 63.792969 121.867188 63.6875 121.933594 "/>
<path style=" stroke:none;fill-rule:nonzero;fill:rgb(41.958618%,74.899292%,79.998779%);fill-opacity:1;" d="M 95.804688 146.632812 L 81.34375 155.089844 C 83.769531 153.671875 85.230469 150.636719 85.238281 146.480469 L 99.695312 138.015625 C 99.679688 142.179688 98.222656 145.214844 95.804688 146.632812 "/>
<path style=" stroke:none;fill-rule:nonzero;fill:rgb(41.958618%,74.899292%,79.998779%);fill-opacity:1;" d="M 83.5625 107.40625 C 83.714844 107.496094 83.875 107.59375 84.019531 107.691406 L 69.570312 116.15625 C 69.417969 116.050781 69.265625 115.953125 69.113281 115.863281 C 66.484375 114.339844 63.230469 114.429688 62.070312 114.636719 C 61.695312 114.710938 61.261719 114.597656 60.84375 114.355469 C 60.125 113.9375 59.417969 113.121094 58.996094 112.136719 C 58.402344 110.75 58.546875 109.472656 59.273438 109.054688 L 73.726562 100.589844 C 72.996094 101.015625 72.859375 102.285156 73.445312 103.671875 C 73.871094 104.664062 74.574219 105.472656 75.296875 105.890625 C 75.722656 106.132812 76.144531 106.246094 76.523438 106.179688 C 77.683594 105.964844 80.945312 105.882812 83.5625 107.40625 "/>
<path style=" stroke:none;fill-rule:nonzero;fill:rgb(41.958618%,74.899292%,79.998779%);fill-opacity:1;" d="M 84.019531 107.691406 C 83.5 110.25 81.90625 111.699219 80.558594 112.484375 L 66.109375 120.949219 C 67.453125 120.15625 69.046875 118.714844 69.570312 116.15625 C 73.902344 113.613281 79.6875 110.230469 84.019531 107.691406 "/>
<path style=" stroke:none;fill-rule:nonzero;fill:rgb(79.998779%,6.669617%,39.608765%);fill-opacity:1;" d="M 84.195312 105.914062 C 84.195312 106.5625 84.132812 107.148438 84.019531 107.691406 L 69.570312 116.15625 C 69.679688 115.613281 69.746094 115.015625 69.746094 114.371094 C 74.558594 111.554688 79.382812 108.730469 84.195312 105.914062 "/>
<path style=" stroke:none;fill-rule:nonzero;fill:rgb(79.998779%,6.669617%,39.608765%);fill-opacity:1;" d="M 83.699219 117.953125 L 69.25 126.410156 C 71.332031 125.191406 73.878906 122.714844 74.160156 117.839844 C 74.175781 117.550781 74.191406 117.261719 74.191406 116.960938 C 74.191406 115.542969 73.199219 113.816406 71.980469 113.105469 L 86.429688 104.640625 C 87.65625 105.351562 88.648438 107.085938 88.640625 108.496094 C 88.640625 108.804688 88.632812 109.09375 88.617188 109.375 C 88.328125 114.25 85.78125 116.734375 83.699219 117.953125 "/>
<path style=" stroke:none;fill-rule:nonzero;fill:rgb(79.998779%,6.669617%,39.608765%);fill-opacity:1;" d="M 88.914062 109.152344 C 88.800781 109.230469 88.699219 109.304688 88.617188 109.375 L 74.160156 117.839844 C 74.246094 117.769531 74.34375 117.6875 74.464844 117.609375 C 74.574219 117.527344 74.710938 117.4375 74.863281 117.347656 L 89.316406 108.882812 C 89.164062 108.972656 89.035156 109.0625 88.914062 109.152344 "/>
<path style=" stroke:none;fill-rule:nonzero;fill:rgb(41.958618%,74.899292%,79.998779%);fill-opacity:1;" d="M 90.796875 132.949219 C 91.382812 133.285156 91.957031 133.359375 92.382812 133.109375 L 77.921875 141.574219 C 77.5 141.824219 76.921875 141.75 76.34375 141.414062 C 75.921875 141.171875 75.488281 140.773438 75.113281 140.265625 C 74.09375 138.878906 73.824219 137.121094 74.511719 136.335938 C 77.003906 133.464844 75.753906 123.984375 74.464844 117.609375 L 88.914062 109.152344 C 90.210938 115.527344 91.460938 125.007812 88.960938 127.871094 C 88.273438 128.664062 88.546875 130.414062 89.5625 131.800781 C 89.949219 132.308594 90.378906 132.707031 90.796875 132.949219 "/>
<path style=" stroke:none;fill-rule:nonzero;fill:rgb(79.998779%,6.669617%,39.608765%);fill-opacity:1;" d="M 92.648438 132.882812 C 92.566406 132.972656 92.480469 133.054688 92.382812 133.109375 L 77.921875 141.574219 C 78.027344 141.507812 78.117188 141.4375 78.195312 141.339844 C 79.535156 139.808594 80.160156 137.273438 80.335938 134.351562 C 83.058594 132.753906 85.78125 131.15625 88.511719 129.566406 C 90.605469 128.339844 92.695312 127.113281 94.785156 125.886719 C 94.609375 128.816406 93.992188 131.351562 92.648438 132.882812 "/>
<path style=" stroke:none;fill-rule:nonzero;fill:rgb(23.529053%,50.588989%,79.60968%);fill-opacity:1;" d="M 98.960938 152.074219 L 84.5 160.539062 C 87.738281 158.640625 89.667969 154.605469 89.683594 149.0625 L 104.140625 140.597656 C 104.125 146.148438 102.1875 150.183594 98.960938 152.074219 "/>
<path style=" stroke:none;fill-rule:nonzero;fill:rgb(79.998779%,6.669617%,39.608765%);fill-opacity:1;" d="M 84.84375 104.488281 C 84.445312 104.710938 84.195312 105.214844 84.195312 105.914062 C 79.382812 108.730469 74.558594 111.554688 69.746094 114.371094 C 69.746094 113.667969 69.992188 113.175781 70.394531 112.945312 C 74.726562 110.402344 80.503906 107.019531 84.84375 104.488281 "/>
<path style=" stroke:none;fill-rule:nonzero;fill:rgb(79.998779%,6.669617%,39.608765%);fill-opacity:1;" d="M 83.5625 102.25 C 84.277344 102.664062 84.988281 103.15625 85.6875 103.753906 L 71.234375 112.210938 C 70.53125 111.621094 69.824219 111.121094 69.113281 110.707031 C 64.632812 108.109375 60.238281 108.804688 59.621094 108.925781 C 59.492188 108.949219 59.378906 108.988281 59.273438 109.054688 L 73.726562 100.589844 C 73.832031 100.53125 73.941406 100.484375 74.070312 100.460938 C 74.6875 100.347656 79.09375 99.644531 83.5625 102.25 "/>
<path style=" stroke:none;fill-rule:nonzero;fill:rgb(79.998779%,6.669617%,39.608765%);fill-opacity:1;" d="M 70.386719 112.945312 L 84.84375 104.488281 C 85.246094 104.246094 85.804688 104.277344 86.429688 104.640625 L 71.980469 113.105469 C 71.355469 112.742188 70.792969 112.710938 70.386719 112.945312 "/>
<path style=" stroke:none;fill-rule:nonzero;fill:rgb(41.958618%,74.899292%,79.998779%);fill-opacity:1;" d="M 86.152344 103.460938 C 85.980469 103.558594 85.820312 103.65625 85.6875 103.753906 L 71.234375 112.210938 C 71.371094 112.121094 71.523438 112.015625 71.691406 111.917969 C 76.035156 109.386719 81.808594 105.996094 86.152344 103.460938 "/>
<path style=" stroke:none;fill-rule:nonzero;fill:rgb(79.998779%,6.669617%,39.608765%);fill-opacity:1;" d="M 71.980469 113.105469 C 73.199219 113.816406 74.191406 115.542969 74.191406 116.960938 C 74.191406 117.261719 74.175781 117.550781 74.160156 117.839844 C 73.679688 126.054688 66.789062 127.460938 66.492188 127.515625 C 66.117188 127.589844 65.683594 127.476562 65.257812 127.234375 C 64.539062 126.816406 63.832031 126 63.410156 125.007812 C 62.734375 123.433594 63.015625 121.996094 64.035156 121.804688 C 64.082031 121.796875 68.617188 120.828125 69.570312 116.15625 C 69.679688 115.613281 69.746094 115.015625 69.746094 114.371094 C 69.746094 112.960938 70.746094 112.386719 71.980469 113.105469 "/>
<path style=" stroke:none;fill-rule:nonzero;fill:rgb(79.998779%,6.669617%,39.608765%);fill-opacity:1;" d="M 92.703125 107.941406 C 93.609375 111.894531 95.171875 119.753906 94.785156 125.886719 C 93.632812 126.574219 92.472656 127.25 91.308594 127.929688 C 87.648438 130.066406 83.996094 132.207031 80.335938 134.351562 C 80.710938 128.210938 79.15625 120.359375 78.253906 116.40625 L 92.703125 107.941406 "/>
<path style=" stroke:none;fill-rule:nonzero;fill:rgb(79.998779%,6.669617%,39.608765%);fill-opacity:1;" d="M 78.253906 116.40625 C 79.589844 122.238281 82.34375 136.578125 78.195312 141.339844 C 77.773438 141.839844 77.058594 141.832031 76.34375 141.414062 C 75.921875 141.171875 75.488281 140.773438 75.113281 140.265625 C 74.09375 138.878906 73.824219 137.121094 74.511719 136.335938 C 77.003906 133.464844 75.753906 123.984375 74.464844 117.609375 C 75.136719 117.132812 76.371094 116.503906 78.253906 116.40625 "/>
<path style=" stroke:none;fill-rule:nonzero;fill:rgb(79.998779%,6.669617%,39.608765%);fill-opacity:1;" d="M 89.316406 108.882812 C 90.035156 108.464844 91.148438 108.019531 92.703125 107.941406 L 78.253906 116.40625 C 76.699219 116.484375 75.585938 116.929688 74.863281 117.347656 C 79.199219 114.808594 84.980469 111.425781 89.316406 108.882812 "/>
<path style=" stroke:none;fill-rule:nonzero;fill:rgb(41.958618%,74.899292%,79.998779%);fill-opacity:1;" d="M 79.796875 87.894531 C 74.976562 90.71875 70.160156 93.535156 65.339844 96.359375 C 64.371094 95.789062 63.480469 94.511719 63.214844 93.222656 C 62.992188 92.171875 63.242188 91.375 63.777344 91.058594 L 78.234375 82.59375 C 77.691406 82.910156 77.449219 83.714844 77.667969 84.757812 C 77.933594 86.054688 78.820312 87.332031 79.796875 87.894531 "/>
<path style=" stroke:none;fill-rule:nonzero;fill:rgb(41.958618%,74.899292%,79.998779%);fill-opacity:1;" d="M 92.703125 107.941406 C 93.59375 107.890625 94.625 107.964844 95.820312 108.230469 L 81.367188 116.695312 C 80.175781 116.429688 79.140625 116.355469 78.253906 116.40625 C 82.585938 113.863281 87.898438 109.386719 92.703125 107.941406 "/>
<path style=" stroke:none;fill-rule:nonzero;fill:rgb(41.958618%,74.899292%,79.998779%);fill-opacity:1;" d="M 95.820312 108.230469 C 95.9375 108.28125 96.058594 108.3125 96.179688 108.335938 L 81.730469 116.800781 C 81.609375 116.777344 81.488281 116.734375 81.367188 116.695312 C 86.183594 113.878906 90.988281 111.0625 95.804688 108.246094 C 90.988281 111.0625 86.183594 113.878906 81.367188 116.695312 C 86.191406 113.871094 91.003906 111.054688 95.820312 108.230469 "/>
<path style=" stroke:none;fill-rule:nonzero;fill:rgb(41.958618%,74.899292%,79.998779%);fill-opacity:1;" d="M 96.179688 108.335938 C 97.390625 108.632812 98.527344 109.039062 99.777344 109.617188 C 94.953125 112.441406 90.140625 115.257812 85.316406 118.082031 C 84.066406 117.496094 82.929688 117.089844 81.730469 116.800781 C 85.980469 114.308594 90.234375 111.820312 94.496094 109.328125 C 95.003906 109.03125 95.675781 108.632812 96.179688 108.335938 "/>
<path style=" stroke:none;fill-rule:nonzero;fill:rgb(79.998779%,6.669617%,39.608765%);fill-opacity:1;" d="M 81.730469 116.800781 C 81.609375 116.777344 81.488281 116.734375 81.367188 116.695312 C 81.542969 116.734375 81.730469 116.777344 81.90625 116.824219 C 81.847656 116.816406 81.792969 116.808594 81.730469 116.800781 "/>
<path style=" stroke:none;fill-rule:nonzero;fill:rgb(79.998779%,6.669617%,39.608765%);fill-opacity:1;" d="M 81.367188 116.695312 L 95.820312 108.230469 C 95.996094 108.269531 96.179688 108.3125 96.363281 108.359375 L 81.90625 116.824219 C 81.730469 116.777344 81.542969 116.734375 81.367188 116.695312 "/>
<path style=" stroke:none;fill-rule:nonzero;fill:rgb(79.998779%,6.669617%,39.608765%);fill-opacity:1;" d="M 71.691406 111.917969 L 86.152344 103.460938 C 87.433594 102.710938 89.523438 101.953125 92.542969 102.234375 C 93.808594 102.355469 95.234375 102.65625 96.835938 103.21875 C 97.765625 103.542969 98.742188 103.945312 99.785156 104.453125 C 100.496094 104.808594 101.234375 105.195312 102.003906 105.648438 C 102.851562 106.140625 103.589844 106.359375 104.230469 106.375 C 104.78125 106.390625 105.253906 106.253906 105.679688 106.011719 L 91.230469 114.46875 C 90.804688 114.71875 90.324219 114.847656 89.777344 114.839844 C 89.136719 114.824219 88.402344 114.597656 87.550781 114.105469 C 86.785156 113.660156 86.046875 113.265625 85.332031 112.917969 C 84.292969 112.410156 83.308594 112 82.386719 111.675781 C 80.785156 111.121094 79.359375 110.820312 78.09375 110.699219 C 75.0625 110.417969 72.980469 111.167969 71.691406 111.917969 "/>
<path style=" stroke:none;fill-rule:nonzero;fill:rgb(41.958618%,74.899292%,79.998779%);fill-opacity:1;" d="M 90.355469 97.183594 C 91.148438 98.628906 91.902344 100.308594 92.542969 102.234375 L 78.09375 110.699219 C 77.441406 108.761719 76.699219 107.09375 75.898438 105.640625 C 80.71875 102.824219 85.535156 100 90.355469 97.183594 "/>
<path style=" stroke:none;fill-rule:nonzero;fill:rgb(41.958618%,74.899292%,79.998779%);fill-opacity:1;" d="M 83.003906 89.308594 C 85.070312 90.511719 87.953125 92.835938 90.355469 97.183594 C 85.535156 100 80.71875 102.824219 75.898438 105.640625 C 73.5 101.292969 70.609375 98.96875 68.550781 97.773438 C 67.214844 96.988281 66.21875 96.683594 65.925781 96.601562 C 65.730469 96.554688 65.53125 96.464844 65.339844 96.359375 C 70.160156 93.535156 74.976562 90.71875 79.796875 87.894531 C 79.992188 88.007812 80.183594 88.089844 80.375 88.144531 C 80.671875 88.226562 81.664062 88.535156 83.003906 89.308594 "/>
<path style=" stroke:none;fill-rule:nonzero;fill:rgb(79.998779%,6.669617%,39.608765%);fill-opacity:1;" d="M 79.214844 82.496094 C 80.238281 82.761719 81.519531 83.289062 82.929688 84.109375 L 68.480469 92.566406 C 67.070312 91.753906 65.789062 91.226562 64.761719 90.960938 C 64.378906 90.855469 64.042969 90.898438 63.777344 91.058594 L 78.234375 82.59375 C 78.492188 82.441406 78.828125 82.402344 79.214844 82.496094 "/>
<path style=" stroke:none;fill-rule:nonzero;fill:rgb(41.958618%,74.899292%,79.998779%);fill-opacity:1;" d="M 85.316406 118.082031 L 99.777344 109.617188 L 99.695312 138.015625 L 85.238281 146.480469 L 85.316406 118.082031 "/>
<path style=" stroke:none;fill-rule:nonzero;fill:rgb(23.529053%,50.588989%,79.60968%);fill-opacity:1;" d="M 101.996094 110.789062 C 97.171875 113.613281 92.359375 116.429688 87.535156 119.253906 C 86.757812 118.800781 86.023438 118.414062 85.316406 118.082031 L 99.777344 109.617188 C 100.472656 109.957031 101.21875 110.335938 101.996094 110.789062 "/>
<path style=" stroke:none;fill-rule:nonzero;fill:rgb(23.529053%,50.588989%,79.60968%);fill-opacity:1;" d="M 62.703125 75.613281 L 77.15625 67.148438 C 71.875 70.238281 68.695312 76.839844 68.671875 85.8125 L 54.21875 94.269531 C 54.246094 85.296875 57.425781 78.703125 62.703125 75.613281 "/>
<path style=" stroke:none;fill-rule:nonzero;fill:rgb(23.529053%,50.588989%,79.60968%);fill-opacity:1;" d="M 116.902344 169.339844 L 131.363281 160.875 C 132.570312 166.308594 135.695312 171.988281 139.886719 176.054688 L 125.433594 184.511719 C 121.246094 180.453125 118.121094 174.773438 116.902344 169.339844 "/>
<path style=" stroke:none;fill-rule:nonzero;fill:rgb(23.529053%,50.588989%,79.60968%);fill-opacity:1;" d="M 131.363281 160.875 C 126.539062 163.691406 121.726562 166.515625 116.902344 169.339844 C 114.988281 166.492188 113.304688 163.457031 111.914062 160.34375 L 126.371094 151.878906 C 127.765625 155 129.449219 158.027344 131.363281 160.875 "/>
<path style=" stroke:none;fill-rule:nonzero;fill:rgb(23.529053%,50.588989%,79.60968%);fill-opacity:1;" d="M 104.214844 111.8125 C 99.398438 114.636719 94.585938 117.453125 89.761719 120.277344 C 89.074219 120.054688 88.328125 119.714844 87.535156 119.253906 C 92.359375 116.429688 97.171875 113.613281 101.996094 110.789062 C 102.789062 111.257812 103.523438 111.585938 104.214844 111.8125 "/>
<path style=" stroke:none;fill-rule:nonzero;fill:rgb(23.529053%,50.588989%,79.60968%);fill-opacity:1;" d="M 89.761719 120.277344 L 104.214844 111.8125 L 104.140625 140.597656 L 89.683594 149.0625 L 89.761719 120.277344 "/>
<path style=" stroke:none;fill-rule:nonzero;fill:rgb(79.998779%,6.669617%,39.608765%);fill-opacity:1;" d="M 68.480469 92.566406 C 73.085938 95.253906 79.101562 101.113281 82.386719 111.675781 C 80.785156 111.121094 79.359375 110.820312 78.09375 110.699219 C 75.511719 102.96875 71.300781 99.371094 68.550781 97.773438 C 67.214844 96.988281 66.21875 96.683594 65.925781 96.601562 C 65.730469 96.554688 65.53125 96.464844 65.339844 96.359375 C 64.371094 95.789062 63.480469 94.511719 63.214844 93.222656 C 62.886719 91.664062 63.585938 90.65625 64.761719 90.960938 C 65.789062 91.226562 67.070312 91.753906 68.480469 92.566406 "/>
<path style=" stroke:none;fill-rule:nonzero;fill:rgb(79.998779%,6.669617%,39.608765%);fill-opacity:1;" d="M 82.929688 84.109375 C 87.535156 86.789062 93.558594 92.648438 96.835938 103.21875 C 92.582031 105.707031 88.328125 108.199219 84.074219 110.691406 L 82.386719 111.675781 C 79.101562 101.113281 73.085938 95.253906 68.480469 92.566406 C 72.8125 90.035156 78.597656 86.652344 82.929688 84.109375 "/>
<path style=" stroke:none;fill-rule:nonzero;fill:rgb(41.958618%,74.899292%,79.998779%);fill-opacity:1;" d="M 85.359375 104.082031 L 99.808594 95.617188 L 99.785156 104.453125 L 85.332031 112.917969 L 85.359375 104.082031 "/>
<path style=" stroke:none;fill-rule:nonzero;fill:rgb(23.529053%,50.588989%,79.60968%);fill-opacity:1;" d="M 125.433594 184.511719 L 139.886719 176.054688 L 154.71875 190.425781 L 140.269531 198.882812 L 125.433594 184.511719 "/>
<path style=" stroke:none;fill-rule:nonzero;fill:rgb(41.958618%,74.899292%,79.998779%);fill-opacity:1;" d="M 131.363281 160.875 C 135.488281 167.027344 140.6875 172.277344 146.332031 175.554688 C 144.164062 176.828125 141.992188 178.097656 139.820312 179.371094 C 137.730469 180.589844 135.648438 181.808594 133.566406 183.027344 L 131.882812 184.019531 C 126.234375 180.734375 121.035156 175.480469 116.902344 169.339844 C 121.246094 166.800781 127.019531 163.417969 131.363281 160.875 "/>
<path style=" stroke:none;fill-rule:nonzero;fill:rgb(41.958618%,74.899292%,79.998779%);fill-opacity:1;" d="M 100.457031 94.191406 C 100.066406 94.414062 99.816406 94.917969 99.808594 95.617188 L 85.359375 104.082031 C 85.359375 103.375 85.605469 102.882812 86.007812 102.648438 C 90.339844 100.113281 96.125 96.722656 100.457031 94.191406 "/>
<path style=" stroke:none;fill-rule:nonzero;fill:rgb(23.529053%,50.588989%,79.60968%);fill-opacity:1;" d="M 89.804688 106.664062 L 104.253906 98.207031 L 104.230469 106.375 L 89.777344 114.839844 L 89.804688 106.664062 "/>
<path style=" stroke:none;fill-rule:nonzero;fill:rgb(41.958618%,74.899292%,79.998779%);fill-opacity:1;" d="M 87.601562 97.660156 L 102.050781 89.195312 L 102.035156 94.34375 L 87.585938 102.800781 L 87.601562 97.660156 "/>
<path style=" stroke:none;fill-rule:nonzero;fill:rgb(23.529053%,50.588989%,79.60968%);fill-opacity:1;" d="M 86.007812 102.648438 L 100.457031 94.191406 C 100.867188 93.949219 101.425781 93.980469 102.035156 94.34375 L 87.585938 102.800781 C 86.96875 102.445312 86.40625 102.414062 86.007812 102.648438 "/>
<path style=" stroke:none;fill-rule:nonzero;fill:rgb(23.529053%,50.588989%,79.60968%);fill-opacity:1;" d="M 87.585938 102.800781 L 102.035156 94.34375 C 103.261719 95.054688 104.261719 96.789062 104.253906 98.207031 L 89.804688 106.664062 C 89.8125 105.246094 88.808594 103.511719 87.585938 102.800781 "/>
<path style=" stroke:none;fill-rule:nonzero;fill:rgb(23.529053%,50.588989%,79.60968%);fill-opacity:1;" d="M 87.585938 102.800781 C 88.808594 103.511719 89.8125 105.246094 89.804688 106.664062 L 89.777344 114.839844 C 89.136719 114.824219 88.402344 114.597656 87.550781 114.105469 C 86.785156 113.660156 86.046875 113.265625 85.332031 112.917969 L 85.359375 104.082031 C 85.367188 102.664062 86.359375 102.089844 87.585938 102.800781 "/>
<path style=" stroke:none;fill-rule:nonzero;fill:rgb(23.529053%,50.588989%,79.60968%);fill-opacity:1;" d="M 160.296875 192.121094 L 145.84375 200.578125 C 144.859375 201.160156 143.488281 201.078125 141.984375 200.199219 C 141.398438 199.867188 140.832031 199.425781 140.269531 198.882812 L 154.71875 190.425781 C 155.28125 190.960938 155.859375 191.402344 156.433594 191.742188 C 157.941406 192.621094 159.3125 192.695312 160.296875 192.121094 "/>
<path style=" stroke:none;fill-rule:nonzero;fill:rgb(41.958618%,74.899292%,79.998779%);fill-opacity:1;" d="M 62.703125 75.613281 L 77.15625 67.148438 C 80.039062 65.460938 83.546875 64.816406 87.519531 65.40625 L 73.0625 73.871094 C 69.097656 73.28125 65.585938 73.917969 62.703125 75.613281 "/>
<path style=" stroke:none;fill-rule:nonzero;fill:rgb(23.529053%,50.588989%,79.60968%);fill-opacity:1;" d="M 59.523438 70.125 L 73.972656 61.660156 C 77.347656 59.691406 81.417969 59 85.949219 59.675781 L 71.5 68.140625 C 66.957031 67.464844 62.894531 68.148438 59.523438 70.125 "/>
<path style=" stroke:none;fill-rule:nonzero;fill:rgb(41.958618%,74.899292%,79.998779%);fill-opacity:1;" d="M 99.839844 85.328125 C 99.832031 86.742188 100.824219 88.484375 102.050781 89.195312 L 87.601562 97.660156 C 86.375 96.941406 85.382812 95.207031 85.390625 93.785156 C 90.203125 90.96875 95.027344 88.144531 99.839844 85.328125 C 95.027344 88.144531 90.203125 90.96875 85.390625 93.785156 C 85.390625 93.085938 85.636719 92.59375 86.039062 92.359375 L 100.488281 83.894531 C 100.089844 84.128906 99.839844 84.628906 99.839844 85.328125 "/>
<path style=" stroke:none;fill-rule:nonzero;fill:rgb(41.958618%,74.899292%,79.998779%);fill-opacity:1;" d="M 161.882812 188.621094 C 161.882812 190.339844 161.273438 191.546875 160.296875 192.121094 L 145.84375 200.578125 C 146.820312 200.003906 147.421875 198.796875 147.429688 197.078125 C 151.765625 194.535156 157.546875 191.152344 161.882812 188.621094 "/>
<path style=" stroke:none;fill-rule:nonzero;fill:rgb(41.958618%,74.899292%,79.998779%);fill-opacity:1;" d="M 87.632812 87.363281 L 102.082031 78.90625 L 102.066406 84.046875 L 87.617188 92.511719 L 87.632812 87.363281 "/>
<path style=" stroke:none;fill-rule:nonzero;fill:rgb(23.529053%,50.588989%,79.60968%);fill-opacity:1;" d="M 86.039062 92.359375 L 100.488281 83.894531 C 100.890625 83.660156 101.449219 83.691406 102.066406 84.046875 L 87.617188 92.511719 C 87 92.15625 86.4375 92.125 86.039062 92.359375 "/>
<path style=" stroke:none;fill-rule:nonzero;fill:rgb(79.998779%,6.669617%,39.608765%);fill-opacity:1;" d="M 108.714844 96.972656 C 105.984375 98.570312 103.261719 100.167969 100.539062 101.757812 C 99.976562 102.089844 99.222656 102.535156 98.664062 102.863281 C 98.109375 103.179688 97.382812 103.613281 96.828125 103.929688 C 96.308594 104.238281 95.609375 104.648438 95.089844 104.953125 C 94.84375 105.101562 94.546875 105.4375 94.257812 105.4375 C 94.265625 104.738281 94.503906 104.246094 94.90625 104.011719 L 109.355469 95.554688 C 108.957031 95.78125 108.714844 96.28125 108.714844 96.972656 "/>
<path style=" stroke:none;fill-rule:nonzero;fill:rgb(23.529053%,50.588989%,79.60968%);fill-opacity:1;" d="M 103.636719 89.347656 L 89.179688 97.8125 C 89.578125 97.570312 89.828125 97.078125 89.835938 96.375 C 89.835938 94.957031 88.835938 93.222656 87.617188 92.511719 L 102.066406 84.046875 C 103.292969 84.765625 104.285156 86.5 104.285156 87.910156 C 104.285156 88.621094 104.039062 89.113281 103.636719 89.347656 "/>
<path style=" stroke:none;fill-rule:nonzero;fill:rgb(23.529053%,50.588989%,79.60968%);fill-opacity:1;" d="M 87.617188 92.511719 C 88.835938 93.222656 89.835938 94.957031 89.835938 96.375 C 89.828125 97.789062 88.824219 98.371094 87.601562 97.660156 C 86.375 96.941406 85.382812 95.207031 85.390625 93.785156 C 85.390625 92.375 86.390625 91.800781 87.617188 92.511719 "/>
<path style=" stroke:none;fill-rule:nonzero;fill:rgb(41.958618%,74.899292%,79.998779%);fill-opacity:1;" d="M 85.414062 83.496094 L 99.871094 75.042969 C 99.863281 76.453125 100.859375 78.195312 102.082031 78.90625 L 87.632812 87.363281 C 86.40625 86.652344 85.414062 84.917969 85.414062 83.496094 "/>
<path style=" stroke:none;fill-rule:nonzero;fill:rgb(23.529053%,50.588989%,79.60968%);fill-opacity:1;" d="M 103.660156 79.058594 L 89.210938 87.515625 C 89.609375 87.28125 89.859375 86.789062 89.859375 86.082031 L 104.308594 77.625 C 104.308594 78.324219 104.0625 78.824219 103.660156 79.058594 "/>
<path style=" stroke:none;fill-rule:nonzero;fill:rgb(41.958618%,74.899292%,79.998779%);fill-opacity:1;" d="M 73.0625 73.871094 L 87.519531 65.40625 L 99.886719 67.222656 L 85.4375 75.679688 L 73.0625 73.871094 "/>
<path style=" stroke:none;fill-rule:nonzero;fill:rgb(41.958618%,74.899292%,79.998779%);fill-opacity:1;" d="M 85.4375 75.679688 L 99.886719 67.222656 L 99.871094 75.042969 L 85.414062 83.496094 L 85.4375 75.679688 "/>
<path style=" stroke:none;fill-rule:nonzero;fill:rgb(23.529053%,50.588989%,79.60968%);fill-opacity:1;" d="M 71.5 68.140625 L 85.949219 59.675781 L 101.347656 61.9375 L 86.894531 70.394531 L 71.5 68.140625 "/>
<path style=" stroke:none;fill-rule:nonzero;fill:rgb(23.529053%,50.588989%,79.60968%);fill-opacity:1;" d="M 89.890625 74.558594 L 104.351562 66.101562 L 104.308594 77.625 L 89.859375 86.082031 L 89.890625 74.558594 "/>
<path style=" stroke:none;fill-rule:nonzero;fill:rgb(23.529053%,50.588989%,79.60968%);fill-opacity:1;" d="M 86.894531 70.394531 L 101.347656 61.9375 C 101.59375 61.96875 101.859375 62.074219 102.117188 62.21875 C 102.5625 62.484375 103.019531 62.90625 103.398438 63.4375 L 88.945312 71.894531 C 88.5625 71.363281 88.113281 70.949219 87.664062 70.683594 C 87.398438 70.53125 87.144531 70.433594 86.894531 70.394531 "/>
<path style=" stroke:none;fill-rule:nonzero;fill:rgb(23.529053%,50.588989%,79.60968%);fill-opacity:1;" d="M 88.945312 71.894531 L 103.398438 63.4375 C 103.988281 64.242188 104.351562 65.253906 104.351562 66.101562 L 89.890625 74.558594 C 89.898438 73.710938 89.539062 72.699219 88.945312 71.894531 "/>
<path style=" stroke:none;fill-rule:nonzero;fill:rgb(79.998779%,6.669617%,39.608765%);fill-opacity:1;" d="M 98.839844 59.144531 L 113.296875 50.6875 L 113.160156 97 L 98.710938 105.453125 L 98.839844 59.144531 "/>
<path style=" stroke:none;fill-rule:nonzero;fill:rgb(79.998779%,6.669617%,39.608765%);fill-opacity:1;" d="M 94.90625 104.011719 L 109.355469 95.554688 C 109.765625 95.3125 110.328125 95.351562 110.941406 95.707031 L 96.484375 104.164062 C 95.867188 103.808594 95.304688 103.777344 94.90625 104.011719 "/>
<g clip-path="url(#clip3)" clip-rule="nonzero">
<path style=" stroke:none;fill-rule:nonzero;fill:rgb(23.529053%,50.588989%,79.60968%);fill-opacity:1;" d="M 163.445312 197.578125 L 148.992188 206.035156 C 150.761719 205 151.867188 202.796875 151.875 199.660156 L 166.328125 191.203125 C 166.320312 194.332031 165.222656 196.535156 163.445312 197.578125 "/>
</g>
<path style=" stroke:none;fill-rule:nonzero;fill:rgb(79.998779%,6.669617%,39.608765%);fill-opacity:1;" d="M 113.027344 102.066406 C 112.65625 105.777344 111.457031 109.957031 108.765625 111.53125 L 94.304688 119.996094 C 97.003906 118.414062 98.207031 114.234375 98.574219 110.53125 C 98.664062 109.660156 98.703125 108.8125 98.703125 108.027344 C 98.710938 106.609375 97.71875 104.882812 96.484375 104.164062 L 110.941406 95.707031 C 112.167969 96.425781 113.160156 98.144531 113.152344 99.574219 C 113.152344 100.347656 113.113281 101.195312 113.027344 102.066406 "/>
<path style=" stroke:none;fill-rule:nonzero;fill:rgb(79.998779%,6.669617%,39.608765%);fill-opacity:1;" d="M 96.484375 104.164062 C 97.71875 104.882812 98.710938 106.609375 98.703125 108.027344 C 98.703125 108.8125 98.664062 109.660156 98.574219 110.53125 C 98.046875 115.890625 95.761719 122.230469 89.761719 120.277344 C 89.074219 120.054688 88.328125 119.714844 87.535156 119.253906 C 86.757812 118.800781 86.023438 118.414062 85.316406 118.082031 C 84.066406 117.496094 82.929688 117.089844 81.90625 116.824219 C 81.730469 116.777344 81.542969 116.734375 81.367188 116.695312 C 80.175781 116.429688 79.140625 116.355469 78.253906 116.40625 C 76.371094 116.503906 75.136719 117.132812 74.464844 117.609375 C 74.34375 117.6875 74.246094 117.769531 74.160156 117.839844 C 74.175781 117.550781 74.191406 117.261719 74.191406 116.960938 C 74.191406 115.542969 73.199219 113.816406 71.980469 113.105469 C 70.746094 112.386719 69.746094 112.960938 69.746094 114.371094 C 69.746094 115.015625 69.679688 115.613281 69.570312 116.15625 C 69.417969 116.050781 69.265625 115.953125 69.113281 115.863281 C 66.484375 114.339844 63.230469 114.429688 62.070312 114.636719 C 61.695312 114.710938 61.261719 114.597656 60.84375 114.355469 C 60.125 113.9375 59.417969 113.121094 58.996094 112.136719 C 58.320312 110.546875 58.59375 109.117188 59.621094 108.925781 C 60.238281 108.804688 64.632812 108.109375 69.113281 110.707031 C 69.824219 111.121094 70.53125 111.621094 71.234375 112.210938 C 72.445312 111.386719 74.671875 110.378906 78.09375 110.699219 C 79.359375 110.820312 80.785156 111.121094 82.386719 111.675781 C 83.308594 112 84.292969 112.410156 85.332031 112.917969 C 86.046875 113.265625 86.785156 113.660156 87.550781 114.105469 C 88.402344 114.597656 89.136719 114.824219 89.777344 114.839844 C 94.105469 114.945312 94.257812 105.722656 94.257812 105.445312 C 94.265625 104.019531 95.257812 103.453125 96.484375 104.164062 "/>
<path style=" stroke:none;fill-rule:nonzero;fill:rgb(23.529053%,50.588989%,79.60968%);fill-opacity:1;" d="M 117.800781 131.171875 L 132.25 122.714844 C 128.664062 124.8125 126.425781 129.285156 126.410156 135.625 C 126.378906 148.394531 135.328125 164 146.351562 170.414062 L 131.890625 178.871094 C 120.867188 172.457031 111.921875 156.851562 111.960938 144.082031 C 111.976562 137.742188 114.210938 133.277344 117.800781 131.171875 "/>
<path style=" stroke:none;fill-rule:nonzero;fill:rgb(80.778503%,80.389404%,79.60968%);fill-opacity:1;" d="M 131.539062 145.671875 C 126.714844 148.488281 121.902344 151.3125 117.078125 154.136719 C 116.636719 152.476562 116.390625 150.820312 116.398438 149.238281 C 116.40625 145.722656 117.648438 143.238281 119.640625 142.066406 L 134.101562 133.601562 C 132.097656 134.773438 130.855469 137.257812 130.847656 140.785156 C 130.847656 142.363281 131.089844 144.019531 131.539062 145.671875 "/>
<path style=" stroke:none;fill-rule:nonzero;fill:rgb(80.778503%,80.389404%,79.60968%);fill-opacity:1;" d="M 141.929688 160.101562 C 145.011719 161.902344 147.808594 162.0625 149.835938 160.875 L 135.382812 169.339844 C 133.355469 170.519531 130.554688 170.359375 127.46875 168.566406 C 122.703125 165.789062 118.640625 159.941406 117.078125 154.128906 C 121.902344 151.3125 126.714844 148.488281 131.539062 145.671875 C 133.101562 151.476562 137.160156 157.332031 141.929688 160.101562 "/>
<path style=" stroke:none;fill-rule:nonzero;fill:rgb(78.42865%,46.269226%,10.5896%);fill-opacity:1;" d="M 141.9375 154.960938 C 143.792969 156.035156 145.46875 156.140625 146.6875 155.421875 L 132.234375 163.886719 C 131.015625 164.597656 129.335938 164.5 127.484375 163.417969 C 123.816406 161.28125 120.828125 156.082031 120.84375 151.832031 C 120.851562 149.714844 121.597656 148.222656 122.789062 147.519531 L 137.242188 139.054688 C 136.046875 139.765625 135.304688 141.25 135.296875 143.375 C 135.285156 147.617188 138.265625 152.824219 141.9375 154.960938 "/>
<path style=" stroke:none;fill-rule:nonzero;fill:rgb(79.998779%,6.669617%,39.608765%);fill-opacity:1;" d="M 124.257812 122.488281 C 123.847656 122.917969 123.070312 123.183594 122.566406 123.480469 C 122.03125 123.789062 121.308594 124.207031 120.773438 124.523438 C 117.121094 126.667969 113.457031 128.808594 109.796875 130.953125 C 110.4375 129.734375 111.191406 128.679688 112.054688 127.773438 L 126.507812 119.308594 C 125.640625 120.214844 124.890625 121.28125 124.257812 122.488281 "/>
<path style=" stroke:none;fill-rule:nonzero;fill:rgb(79.998779%,6.669617%,39.608765%);fill-opacity:1;" d="M 117.601562 102.15625 C 117.601562 102.9375 117.640625 103.824219 117.71875 104.792969 L 103.269531 113.257812 C 103.179688 112.289062 103.148438 111.394531 103.148438 110.621094 C 107.972656 107.796875 112.785156 104.980469 117.601562 102.15625 "/>
<path style=" stroke:none;fill-rule:nonzero;fill:rgb(41.958618%,74.899292%,79.998779%);fill-opacity:1;" d="M 147.464844 186.585938 L 161.914062 178.121094 L 161.882812 188.621094 L 147.429688 197.078125 L 147.464844 186.585938 "/>
<path style=" stroke:none;fill-rule:nonzero;fill:rgb(41.958618%,74.899292%,79.998779%);fill-opacity:1;" d="M 146.332031 175.554688 C 152.238281 178.992188 157.667969 179.710938 161.914062 178.121094 L 147.464844 186.585938 C 143.21875 188.175781 137.785156 187.457031 131.882812 184.019531 C 136.214844 181.476562 142 178.097656 146.332031 175.554688 "/>
<path style=" stroke:none;fill-rule:nonzero;fill:rgb(23.529053%,50.588989%,79.60968%);fill-opacity:1;" d="M 161.914062 178.121094 C 162.546875 177.886719 163.148438 177.597656 163.722656 177.257812 L 149.273438 185.722656 C 148.695312 186.0625 148.089844 186.351562 147.464844 186.585938 C 151.796875 184.042969 157.582031 180.664062 161.914062 178.121094 "/>
<path style=" stroke:none;fill-rule:nonzero;fill:rgb(23.529053%,50.588989%,79.60968%);fill-opacity:1;" d="M 160.578125 171.800781 L 146.125 180.265625 C 142.480469 182.398438 137.441406 182.097656 131.890625 178.871094 L 146.351562 170.414062 C 151.902344 173.640625 156.941406 173.933594 160.578125 171.800781 "/>
<path style=" stroke:none;fill-rule:nonzero;fill:rgb(80.778503%,80.389404%,79.60968%);fill-opacity:1;" d="M 161.199219 171.40625 C 161 171.542969 160.792969 171.679688 160.578125 171.800781 L 146.125 180.265625 C 146.332031 180.136719 146.542969 180.007812 146.75 179.863281 C 151.566406 177.046875 156.386719 174.222656 161.199219 171.40625 "/>
<path style=" stroke:none;fill-rule:nonzero;fill:rgb(80.778503%,80.389404%,79.60968%);fill-opacity:1;" d="M 161.199219 171.40625 C 161.136719 171.449219 161.050781 171.496094 160.984375 171.527344 C 160.425781 171.859375 159.871094 172.191406 159.3125 172.511719 C 158.679688 172.882812 158.046875 173.246094 157.414062 173.617188 C 153.863281 175.699219 150.308594 177.78125 146.75 179.863281 C 147.382812 179.421875 147.976562 178.902344 148.503906 178.296875 C 153.328125 175.472656 158.140625 172.65625 162.964844 169.839844 C 162.425781 170.4375 161.84375 170.964844 161.199219 171.40625 "/>
<path style=" stroke:none;fill-rule:nonzero;fill:rgb(80.778503%,80.389404%,79.60968%);fill-opacity:1;" d="M 163.019531 169.769531 C 163.003906 169.792969 162.980469 169.816406 162.964844 169.839844 C 158.140625 172.65625 153.328125 175.472656 148.503906 178.296875 C 148.527344 178.273438 148.542969 178.257812 148.570312 178.234375 C 153.382812 175.410156 158.207031 172.585938 163.019531 169.769531 "/>
<path style=" stroke:none;fill-rule:nonzero;fill:rgb(23.529053%,50.588989%,79.60968%);fill-opacity:1;" d="M 151.917969 183.609375 L 166.375 175.152344 L 166.328125 191.203125 L 151.875 199.660156 L 151.917969 183.609375 "/>
<path style=" stroke:none;fill-rule:nonzero;fill:rgb(80.778503%,80.389404%,79.60968%);fill-opacity:1;" d="M 155.273438 162.714844 C 157.125 163.789062 158.804688 163.894531 160.023438 163.175781 L 145.566406 171.640625 C 144.355469 172.351562 142.671875 172.253906 140.824219 171.171875 C 145.15625 168.640625 150.941406 165.25 155.273438 162.714844 "/>
<path style=" stroke:none;fill-rule:nonzero;fill:rgb(78.42865%,46.269226%,10.5896%);fill-opacity:1;" d="M 151.574219 159.261719 C 151.09375 159.941406 150.507812 160.480469 149.835938 160.875 L 135.382812 169.339844 C 136.054688 168.945312 136.640625 168.40625 137.121094 167.71875 C 141.457031 165.1875 147.238281 161.796875 151.574219 159.261719 "/>
<path style=" stroke:none;fill-rule:nonzero;fill:rgb(80.778503%,80.389404%,79.60968%);fill-opacity:1;" d="M 151.574219 159.261719 C 152.636719 160.699219 153.902344 161.917969 155.273438 162.714844 C 151.019531 165.210938 146.765625 167.695312 142.511719 170.1875 L 140.824219 171.171875 C 139.453125 170.382812 138.179688 169.15625 137.121094 167.71875 C 141.457031 165.1875 147.238281 161.796875 151.574219 159.261719 "/>
<path style=" stroke:none;fill-rule:nonzero;fill:rgb(35.289001%,14.898682%,56.469727%);fill-opacity:1;" d="M 156.875 157.730469 L 142.425781 166.1875 C 142.015625 166.421875 141.457031 166.386719 140.839844 166.03125 L 155.289062 157.566406 C 155.90625 157.929688 156.46875 157.964844 156.875 157.730469 "/>
<path style=" stroke:none;fill-rule:nonzero;fill:rgb(78.42865%,62.348938%,36.468506%);fill-opacity:1;" d="M 148.632812 151.128906 C 148.625 153.234375 147.878906 154.726562 146.6875 155.421875 L 132.234375 163.886719 C 133.429688 163.183594 134.171875 161.699219 134.179688 159.585938 C 134.179688 157.269531 133.308594 154.679688 131.914062 152.453125 C 136.738281 149.636719 141.550781 146.8125 146.375 143.996094 C 147.757812 146.222656 148.640625 148.8125 148.632812 151.128906 "/>
<path style=" stroke:none;fill-rule:nonzero;fill:rgb(78.42865%,46.269226%,10.5896%);fill-opacity:1;" d="M 148.632812 151.128906 C 148.625 153.792969 149.792969 156.832031 151.574219 159.261719 L 137.121094 167.71875 C 135.34375 165.296875 134.171875 162.257812 134.179688 159.585938 C 138.515625 157.050781 144.300781 153.664062 148.632812 151.128906 "/>
<path style=" stroke:none;fill-rule:nonzero;fill:rgb(35.289001%,14.898682%,56.469727%);fill-opacity:1;" d="M 139.277344 160.730469 L 153.726562 152.273438 C 153.328125 152.507812 153.078125 153 153.078125 153.710938 C 153.070312 155.132812 154.0625 156.859375 155.289062 157.566406 L 140.839844 166.03125 C 139.613281 165.324219 138.621094 163.585938 138.621094 162.167969 C 138.628906 161.464844 138.875 160.964844 139.277344 160.730469 "/>
<path style=" stroke:none;fill-rule:nonzero;fill:rgb(63.139343%,48.629761%,77.249146%);fill-opacity:1;" d="M 153.726562 152.273438 C 154.128906 152.03125 154.6875 152.066406 155.304688 152.425781 C 151.042969 154.914062 146.789062 157.40625 142.535156 159.898438 L 140.847656 160.882812 C 140.238281 160.53125 139.675781 160.496094 139.277344 160.730469 C 143.609375 158.199219 149.394531 154.808594 153.726562 152.273438 "/>
<path style=" stroke:none;fill-rule:nonzero;fill:rgb(63.139343%,48.629761%,77.249146%);fill-opacity:1;" d="M 157.523438 156.292969 C 157.515625 156.996094 157.277344 157.496094 156.875 157.730469 L 142.425781 166.1875 C 142.816406 165.953125 143.066406 165.460938 143.066406 164.757812 C 143.074219 163.335938 142.078125 161.601562 140.847656 160.882812 L 155.304688 152.425781 C 156.53125 153.136719 157.523438 154.878906 157.523438 156.292969 "/>
<path style=" stroke:none;fill-rule:nonzero;fill:rgb(35.289001%,14.898682%,56.469727%);fill-opacity:1;" d="M 160.023438 163.175781 L 145.566406 171.640625 C 146.765625 170.9375 147.511719 169.453125 147.511719 167.339844 C 147.527344 163.078125 144.546875 157.882812 140.863281 155.746094 L 155.320312 147.28125 C 159 149.417969 161.976562 154.621094 161.96875 158.882812 C 161.960938 160.988281 161.21875 162.480469 160.023438 163.175781 "/>
<path style=" stroke:none;fill-rule:nonzero;fill:rgb(80.778503%,80.389404%,79.60968%);fill-opacity:1;" d="M 163.019531 169.769531 C 162.964844 169.816406 162.890625 169.851562 162.820312 169.882812 C 162.753906 169.921875 162.683594 169.960938 162.617188 170.003906 C 162.128906 170.292969 161.472656 170.671875 160.976562 170.964844 C 160.71875 171.117188 160.375 171.320312 160.121094 171.464844 C 156.265625 173.722656 152.421875 175.972656 148.570312 178.234375 C 150.699219 175.789062 151.949219 172.09375 151.964844 167.347656 C 156.789062 164.53125 161.601562 161.707031 166.414062 158.890625 C 166.40625 163.636719 165.160156 167.324219 163.019531 169.769531 "/>
<path style=" stroke:none;fill-rule:nonzero;fill:rgb(78.42865%,62.348938%,36.468506%);fill-opacity:1;" d="M 137.242188 139.054688 C 138.460938 138.355469 140.132812 138.453125 141.984375 139.523438 L 127.53125 147.980469 C 125.683594 146.90625 124 146.8125 122.789062 147.519531 C 127.125 144.980469 132.90625 141.597656 137.242188 139.054688 "/>
<path style=" stroke:none;fill-rule:nonzero;fill:rgb(80.778503%,80.389404%,79.60968%);fill-opacity:1;" d="M 138.089844 134.335938 C 138.652344 134.003906 139.21875 133.675781 139.78125 133.34375 C 135.449219 135.886719 129.664062 139.273438 125.328125 141.808594 C 129.582031 139.316406 133.835938 136.820312 138.089844 134.335938 "/>
<path style=" stroke:none;fill-rule:nonzero;fill:rgb(78.42865%,62.348938%,36.468506%);fill-opacity:1;" d="M 146.375 143.996094 C 141.550781 146.8125 136.738281 149.636719 131.914062 152.453125 C 130.746094 150.578125 129.207031 148.957031 127.53125 147.980469 L 141.984375 139.523438 C 143.667969 140.5 145.195312 142.113281 146.375 143.996094 "/>
<path style=" stroke:none;fill-rule:nonzero;fill:rgb(78.42865%,46.269226%,10.5896%);fill-opacity:1;" d="M 150.578125 146.820312 C 149.386719 147.519531 148.640625 149.007812 148.632812 151.128906 L 134.179688 159.585938 C 134.179688 157.472656 134.925781 155.976562 136.128906 155.277344 C 140.460938 152.742188 146.246094 149.351562 150.578125 146.820312 "/>
<path style=" stroke:none;fill-rule:nonzero;fill:rgb(78.42865%,46.269226%,10.5896%);fill-opacity:1;" d="M 151.09375 145.1875 C 151.277344 145.601562 151.453125 146.011719 151.613281 146.433594 C 146.789062 149.25 141.976562 152.074219 137.152344 154.898438 C 136.992188 154.476562 136.824219 154.066406 136.640625 153.644531 C 135.792969 151.734375 134.695312 149.886719 133.429688 148.222656 C 132.324219 146.777344 131.097656 145.480469 129.785156 144.40625 C 129.054688 143.808594 128.308594 143.285156 127.539062 142.839844 C 126.789062 142.398438 126.042969 142.058594 125.328125 141.808594 C 123.136719 141.050781 121.164062 141.179688 119.640625 142.066406 L 134.101562 133.601562 C 135.625 132.714844 137.585938 132.585938 139.78125 133.34375 C 140.492188 133.59375 141.238281 133.941406 142 134.375 C 142.761719 134.828125 143.515625 135.351562 144.234375 135.941406 C 145.546875 137.023438 146.78125 138.320312 147.878906 139.765625 C 149.144531 141.421875 150.242188 143.269531 151.09375 145.1875 "/>
<path style=" stroke:none;fill-rule:nonzero;fill:rgb(80.778503%,80.389404%,79.60968%);fill-opacity:1;" d="M 138.089844 134.335938 C 133.835938 136.820312 129.582031 139.316406 125.328125 141.808594 C 125.320312 141.71875 125.320312 141.628906 125.320312 141.550781 C 125.328125 139.4375 126.074219 137.949219 127.269531 137.25 L 141.726562 128.785156 C 140.527344 129.484375 139.78125 130.980469 139.78125 133.085938 C 139.78125 133.171875 139.78125 133.261719 139.78125 133.34375 C 139.21875 133.675781 138.652344 134.003906 138.089844 134.335938 "/>
<path style=" stroke:none;fill-rule:nonzero;fill:rgb(35.289001%,14.898682%,56.469727%);fill-opacity:1;" d="M 144.21875 135.675781 C 144.21875 135.765625 144.226562 135.851562 144.234375 135.941406 L 129.785156 144.40625 C 129.777344 144.308594 129.769531 144.222656 129.769531 144.132812 C 129.769531 143.429688 130.015625 142.929688 130.417969 142.703125 L 144.867188 134.238281 C 144.476562 134.472656 144.226562 134.972656 144.21875 135.675781 "/>
<path style=" stroke:none;fill-rule:nonzero;fill:rgb(35.289001%,14.898682%,56.469727%);fill-opacity:1;" d="M 147.878906 139.765625 C 147.925781 139.742188 147.976562 139.71875 148.015625 139.695312 L 133.566406 148.160156 C 133.523438 148.183594 133.476562 148.207031 133.429688 148.222656 C 137.761719 145.691406 143.378906 141.984375 147.878906 139.765625 "/>
<path style=" stroke:none;fill-rule:nonzero;fill:rgb(63.139343%,48.629761%,77.249146%);fill-opacity:1;" d="M 148.664062 138.257812 C 148.664062 138.96875 148.417969 139.460938 148.015625 139.695312 L 133.566406 148.160156 C 133.964844 147.925781 134.214844 147.425781 134.214844 146.722656 C 139.035156 143.898438 143.851562 141.082031 148.664062 138.257812 "/>
<path style=" stroke:none;fill-rule:nonzero;fill:rgb(63.139343%,48.629761%,77.249146%);fill-opacity:1;" d="M 144.867188 134.238281 C 145.277344 134.003906 145.835938 134.039062 146.445312 134.390625 L 131.996094 142.855469 C 131.378906 142.503906 130.816406 142.460938 130.417969 142.703125 C 134.75 140.160156 140.535156 136.78125 144.867188 134.238281 "/>
<path style=" stroke:none;fill-rule:nonzero;fill:rgb(63.139343%,48.629761%,77.249146%);fill-opacity:1;" d="M 146.445312 134.390625 C 147.679688 135.109375 148.671875 136.835938 148.664062 138.257812 C 143.851562 141.082031 139.035156 143.898438 134.214844 146.722656 C 134.222656 145.300781 133.226562 143.566406 131.996094 142.855469 C 136.328125 140.316406 142.113281 136.933594 146.445312 134.390625 "/>
<path style=" stroke:none;fill-rule:nonzero;fill:rgb(35.289001%,14.898682%,56.469727%);fill-opacity:1;" d="M 153.109375 140.839844 C 153.109375 142.960938 152.367188 144.445312 151.164062 145.148438 L 136.714844 153.605469 C 137.90625 152.910156 138.652344 151.417969 138.660156 149.304688 C 138.675781 145.050781 135.6875 139.847656 132.011719 137.707031 L 146.460938 129.242188 C 150.148438 131.390625 153.125 136.585938 153.109375 140.839844 "/>
<path style=" stroke:none;fill-rule:nonzero;fill:rgb(80.778503%,80.389404%,79.60968%);fill-opacity:1;" d="M 151.09375 145.1875 C 151.117188 145.171875 151.140625 145.164062 151.164062 145.148438 L 136.714844 153.605469 C 136.6875 153.621094 136.664062 153.636719 136.640625 153.644531 C 140.972656 151.113281 146.726562 147.675781 151.09375 145.1875 "/>
<path style=" stroke:none;fill-rule:nonzero;fill:rgb(63.139343%,48.629761%,77.249146%);fill-opacity:1;" d="M 140.847656 160.882812 C 142.078125 161.601562 143.074219 163.335938 143.066406 164.757812 C 143.066406 166.171875 142.0625 166.75 140.839844 166.03125 C 139.613281 165.324219 138.621094 163.585938 138.621094 162.167969 C 138.628906 160.753906 139.628906 160.175781 140.847656 160.882812 "/>
<path style=" stroke:none;fill-rule:nonzero;fill:rgb(63.139343%,48.629761%,77.249146%);fill-opacity:1;" d="M 131.996094 142.855469 C 133.226562 143.566406 134.222656 145.300781 134.214844 146.722656 C 134.214844 147.503906 133.910156 148.03125 133.429688 148.222656 C 132.324219 146.777344 131.097656 145.480469 129.785156 144.40625 C 129.777344 144.308594 129.769531 144.222656 129.769531 144.132812 C 129.777344 142.71875 130.769531 142.140625 131.996094 142.855469 "/>
<path style=" stroke:none;fill-rule:nonzero;fill:rgb(35.289001%,14.898682%,56.469727%);fill-opacity:1;" d="M 136.128906 155.277344 L 150.578125 146.820312 C 150.890625 146.632812 151.234375 146.503906 151.613281 146.433594 C 152.671875 146.222656 153.953125 146.480469 155.320312 147.28125 L 140.863281 155.746094 C 139.492188 154.945312 138.21875 154.6875 137.152344 154.898438 C 136.785156 154.960938 136.441406 155.097656 136.128906 155.277344 "/>
<path style=" stroke:none;fill-rule:nonzero;fill:rgb(35.289001%,14.898682%,56.469727%);fill-opacity:1;" d="M 127.269531 137.25 L 141.726562 128.785156 C 142.9375 128.074219 144.621094 128.171875 146.460938 129.242188 L 132.011719 137.707031 C 130.160156 136.636719 128.484375 136.539062 127.269531 137.25 "/>
<path style=" stroke:none;fill-rule:nonzero;fill:rgb(35.289001%,14.898682%,56.469727%);fill-opacity:1;" d="M 132.011719 137.707031 C 135.6875 139.847656 138.675781 145.050781 138.660156 149.304688 C 138.652344 151.460938 137.882812 152.96875 136.640625 153.644531 C 135.792969 151.734375 134.695312 149.886719 133.429688 148.222656 C 133.910156 148.03125 134.214844 147.503906 134.214844 146.722656 C 134.222656 145.300781 133.226562 143.566406 131.996094 142.855469 C 130.769531 142.140625 129.777344 142.71875 129.769531 144.132812 C 129.769531 144.222656 129.777344 144.308594 129.785156 144.40625 C 129.054688 143.808594 128.308594 143.285156 127.539062 142.839844 C 126.789062 142.398438 126.042969 142.058594 125.328125 141.808594 C 125.320312 141.71875 125.320312 141.628906 125.320312 141.550781 C 125.339844 137.296875 128.332031 135.570312 132.011719 137.707031 "/>
<path style=" stroke:none;fill-rule:nonzero;fill:rgb(80.778503%,80.389404%,79.60968%);fill-opacity:1;" d="M 132.25 122.714844 C 135.894531 120.578125 140.925781 120.875 146.476562 124.105469 L 132.027344 132.558594 C 126.476562 129.339844 121.4375 129.042969 117.800781 131.171875 C 122.132812 128.640625 127.917969 125.25 132.25 122.714844 "/>
<path style=" stroke:none;fill-rule:nonzero;fill:rgb(79.998779%,6.669617%,39.608765%);fill-opacity:1;" d="M 107.59375 113.195312 L 122.046875 104.738281 C 122.046875 105.179688 122.109375 114.257812 126.460938 119.253906 C 126.476562 119.269531 126.492188 119.292969 126.507812 119.308594 L 112.054688 127.773438 C 112.039062 127.757812 112.023438 127.734375 112.007812 127.71875 C 107.660156 122.722656 107.59375 113.636719 107.59375 113.195312 "/>
<path style=" stroke:none;fill-rule:nonzero;fill:rgb(23.529053%,50.588989%,79.60968%);fill-opacity:1;" d="M 129.109375 117.253906 C 128.15625 117.808594 127.292969 118.496094 126.507812 119.308594 L 112.054688 127.773438 C 112.839844 126.960938 113.707031 126.273438 114.652344 125.71875 C 118.992188 123.175781 124.769531 119.792969 129.109375 117.253906 "/>
<path style=" stroke:none;fill-rule:nonzero;fill:rgb(79.998779%,6.669617%,39.608765%);fill-opacity:1;" d="M 118.25 100.71875 C 117.847656 100.953125 117.609375 101.453125 117.601562 102.15625 C 112.785156 104.980469 107.972656 107.796875 103.148438 110.621094 C 103.148438 109.910156 103.398438 109.417969 103.796875 109.183594 C 108.132812 106.640625 113.914062 103.261719 118.25 100.71875 "/>
<path style=" stroke:none;fill-rule:nonzero;fill:rgb(79.998779%,6.669617%,39.608765%);fill-opacity:1;" d="M 98.710938 105.453125 L 113.160156 97 L 117.609375 99.582031 L 103.15625 108.039062 L 98.710938 105.453125 "/>
<path style=" stroke:none;fill-rule:nonzero;fill:rgb(79.219055%,45.098877%,53.729248%);fill-opacity:1;" d="M 103.285156 61.734375 L 117.742188 53.269531 L 117.609375 99.582031 L 103.15625 108.039062 L 103.285156 61.734375 "/>
<path style=" stroke:none;fill-rule:nonzero;fill:rgb(79.998779%,6.669617%,39.608765%);fill-opacity:1;" d="M 107.730469 64.316406 L 122.183594 55.859375 L 122.046875 104.738281 L 107.59375 113.195312 L 107.730469 64.316406 "/>
<path style=" stroke:none;fill-rule:nonzero;fill:rgb(79.998779%,6.669617%,39.608765%);fill-opacity:1;" d="M 103.796875 109.183594 L 118.25 100.71875 C 118.648438 100.484375 119.210938 100.515625 119.828125 100.878906 L 105.375 109.335938 C 104.757812 108.980469 104.199219 108.949219 103.796875 109.183594 "/>
<path style=" stroke:none;fill-rule:nonzero;fill:rgb(79.998779%,6.669617%,39.608765%);fill-opacity:1;" d="M 105.375 109.335938 L 119.828125 100.878906 C 121.050781 101.589844 122.046875 103.308594 122.046875 104.738281 L 107.59375 113.195312 C 107.59375 111.773438 106.601562 110.054688 105.375 109.335938 "/>
<path style=" stroke:none;fill-rule:nonzero;fill:rgb(23.529053%,50.588989%,79.60968%);fill-opacity:1;" d="M 116.550781 93.785156 L 131.007812 85.320312 L 130.921875 116.398438 L 116.46875 124.855469 L 116.550781 93.785156 "/>
<path style=" stroke:none;fill-rule:nonzero;fill:rgb(23.529053%,50.588989%,79.60968%);fill-opacity:1;" d="M 114.652344 125.71875 L 129.109375 117.253906 C 129.679688 116.921875 130.289062 116.632812 130.921875 116.398438 C 135.160156 114.808594 140.589844 115.527344 146.492188 118.957031 C 152.171875 122.265625 157.402344 127.566406 161.554688 133.753906 C 163.4375 136.570312 165.085938 139.558594 166.464844 142.640625 L 152.011719 151.097656 C 150.636719 148.023438 148.976562 145.027344 147.101562 142.21875 C 142.953125 136.03125 137.722656 130.730469 132.042969 127.421875 C 126.140625 123.984375 120.707031 123.265625 116.46875 124.855469 C 115.835938 125.089844 115.230469 125.378906 114.652344 125.71875 "/>
<path style=" stroke:none;fill-rule:nonzero;fill:rgb(41.958618%,74.899292%,79.998779%);fill-opacity:1;" d="M 116.550781 93.785156 L 131.007812 85.320312 L 143.363281 97.886719 L 128.902344 106.351562 L 116.550781 93.785156 "/>
<path style=" stroke:none;fill-rule:nonzero;fill:rgb(78.42865%,46.269226%,10.5896%);fill-opacity:1;" d="M 134.179688 159.585938 C 134.171875 162.257812 135.34375 165.296875 137.121094 167.71875 C 135.191406 170.453125 131.585938 170.957031 127.46875 168.566406 C 121.339844 165 116.375 156.332031 116.398438 149.238281 C 116.414062 143.027344 120.25 140.050781 125.328125 141.808594 C 126.042969 142.058594 126.789062 142.398438 127.539062 142.839844 C 128.308594 143.285156 129.054688 143.808594 129.785156 144.40625 C 131.097656 145.480469 132.324219 146.777344 133.429688 148.222656 C 134.695312 149.886719 135.792969 151.734375 136.640625 153.644531 C 136.824219 154.066406 136.992188 154.476562 137.152344 154.898438 C 135.367188 155.242188 134.191406 156.914062 134.179688 159.585938 C 134.191406 155.324219 131.210938 150.121094 127.53125 147.980469 C 123.855469 145.851562 120.851562 147.570312 120.84375 151.832031 C 120.828125 156.082031 123.816406 161.28125 127.484375 163.417969 C 131.160156 165.566406 134.164062 163.839844 134.179688 159.585938 "/>
<path style=" stroke:none;fill-rule:nonzero;fill:rgb(41.958618%,74.899292%,79.998779%);fill-opacity:1;" d="M 128.902344 106.351562 L 143.363281 97.886719 C 152.894531 107.585938 159.75 121.328125 161.554688 133.753906 L 147.101562 142.21875 C 145.300781 129.792969 138.441406 116.042969 128.902344 106.351562 "/>
<path style=" stroke:none;fill-rule:nonzero;fill:rgb(23.529053%,50.588989%,79.60968%);fill-opacity:1;" d="M 116.46875 124.855469 C 114.796875 125.484375 113.3125 126.460938 112.054688 127.773438 L 112.121094 87.484375 C 112.121094 86.644531 112.480469 86.0625 113.082031 85.925781 C 113.457031 85.847656 113.90625 85.949219 114.355469 86.210938 C 114.621094 86.363281 114.875 86.5625 115.132812 86.824219 L 130.480469 102.4375 C 143.394531 115.566406 152.035156 135.109375 152.011719 151.097656 C 150.636719 148.023438 148.976562 145.027344 147.101562 142.21875 C 145.300781 129.792969 138.441406 116.042969 128.902344 106.351562 L 116.550781 93.785156 L 116.46875 124.855469 "/>
<path style=" stroke:none;fill-rule:nonzero;fill:rgb(23.529053%,50.588989%,79.60968%);fill-opacity:1;" d="M 131.890625 178.871094 C 120.867188 172.457031 111.921875 156.851562 111.960938 144.082031 C 112 131.308594 121.003906 126.152344 132.027344 132.558594 C 143.058594 138.984375 152.003906 154.582031 151.964844 167.347656 C 151.933594 180.121094 142.929688 185.285156 131.890625 178.871094 Z M 152.011719 151.097656 C 150.636719 148.023438 148.976562 145.027344 147.101562 142.21875 C 142.953125 136.03125 137.722656 130.730469 132.042969 127.421875 C 126.140625 123.984375 120.707031 123.265625 116.46875 124.855469 C 114.796875 125.484375 113.3125 126.460938 112.054688 127.773438 C 111.191406 128.679688 110.4375 129.734375 109.796875 130.953125 C 108.347656 133.722656 107.523438 137.265625 107.515625 141.492188 C 107.5 147.546875 109.132812 154.113281 111.914062 160.34375 C 113.304688 163.457031 114.988281 166.492188 116.902344 169.339844 C 121.035156 175.480469 126.234375 180.734375 131.882812 184.019531 C 137.785156 187.457031 143.21875 188.175781 147.464844 186.585938 C 149.152344 185.949219 150.652344 184.949219 151.917969 183.609375 C 154.730469 180.628906 156.394531 175.984375 156.410156 169.9375 C 156.425781 163.894531 154.800781 157.324219 152.011719 151.097656 "/>
<path style=" stroke:none;fill-rule:nonzero;fill:rgb(78.42865%,62.348938%,36.468506%);fill-opacity:1;" d="M 134.179688 159.585938 C 134.191406 156.261719 132.371094 152.355469 129.816406 149.789062 C 129.816406 149.78125 129.816406 149.78125 129.816406 149.78125 C 129.71875 149.683594 129.617188 149.585938 129.519531 149.492188 C 128.886719 148.902344 128.222656 148.386719 127.53125 147.980469 C 125.632812 146.882812 123.921875 146.804688 122.703125 147.578125 C 122.589844 147.652344 122.484375 147.722656 122.382812 147.804688 C 121.429688 148.585938 120.851562 149.964844 120.84375 151.832031 C 120.84375 152.152344 120.859375 152.484375 120.890625 152.824219 C 120.890625 152.839844 120.890625 152.847656 120.898438 152.863281 C 120.917969 153.058594 120.941406 153.242188 120.972656 153.429688 C 120.972656 153.453125 120.980469 153.476562 120.980469 153.492188 C 121.050781 153.953125 121.15625 154.40625 121.285156 154.863281 C 121.332031 155.050781 121.390625 155.226562 121.445312 155.414062 C 121.5 155.574219 121.558594 155.734375 121.613281 155.898438 C 121.675781 156.082031 121.75 156.269531 121.820312 156.445312 C 121.871094 156.566406 121.917969 156.6875 121.972656 156.800781 C 122.132812 157.171875 122.300781 157.535156 122.496094 157.890625 C 122.605469 158.109375 122.726562 158.328125 122.855469 158.542969 C 122.894531 158.609375 122.925781 158.664062 122.96875 158.730469 C 123 158.777344 123.03125 158.835938 123.054688 158.882812 C 123.3125 159.285156 123.582031 159.691406 123.863281 160.070312 C 123.9375 160.160156 124 160.246094 124.0625 160.328125 C 124.375 160.722656 124.695312 161.101562 125.042969 161.457031 C 125.042969 161.464844 125.050781 161.464844 125.050781 161.464844 C 125.121094 161.546875 125.203125 161.617188 125.273438 161.699219 C 125.328125 161.746094 125.378906 161.796875 125.425781 161.84375 C 126.074219 162.464844 126.765625 163.007812 127.484375 163.417969 C 131.160156 165.566406 134.164062 163.839844 134.179688 159.585938 "/>
<path style=" stroke:none;fill-rule:nonzero;fill:rgb(80.778503%,80.389404%,79.60968%);fill-opacity:1;" d="M 152.011719 151.097656 C 154.046875 155.648438 155.464844 160.367188 156.074219 164.945312 C 159.519531 162.925781 162.972656 160.910156 166.414062 158.890625 C 166.433594 154.277344 165.269531 149.296875 163.269531 144.511719 L 152.011719 151.097656 "/>
<g clip-path="url(#clip4)" clip-rule="nonzero">
<path style=" stroke:none;fill-rule:nonzero;fill:rgb(23.529053%,50.588989%,79.60968%);fill-opacity:1;" d="M 163.722656 177.257812 L 149.273438 185.722656 C 150.234375 185.15625 151.125 184.449219 151.917969 183.609375 C 154.730469 180.628906 156.394531 175.984375 156.410156 169.9375 C 156.425781 163.894531 154.800781 157.324219 152.011719 151.097656 L 166.464844 142.640625 C 169.25 148.867188 170.878906 155.429688 170.863281 161.472656 C 170.847656 167.527344 169.1875 172.171875 166.375 175.152344 C 165.574219 175.992188 164.695312 176.691406 163.722656 177.257812 "/>
</g>
<g clip-path="url(#clip5)" clip-rule="nonzero">
<path style=" stroke:none;fill-rule:nonzero;fill:rgb(23.529053%,50.588989%,79.60968%);fill-opacity:1;" d="M 147.464844 186.585938 C 149.152344 185.949219 150.652344 184.949219 151.917969 183.609375 L 151.875 199.660156 C 151.859375 205.96875 147.414062 208.519531 141.96875 205.347656 C 140.910156 204.734375 139.851562 203.917969 138.851562 202.941406 L 124.007812 188.570312 C 116.742188 181.535156 111.878906 170.851562 111.914062 161.980469 L 111.914062 160.34375 C 113.304688 163.457031 114.988281 166.492188 116.902344 169.339844 C 118.121094 174.773438 121.246094 180.453125 125.433594 184.511719 L 140.269531 198.882812 C 140.832031 199.425781 141.398438 199.867188 141.984375 200.199219 C 144.980469 201.941406 147.421875 200.539062 147.429688 197.078125 L 147.464844 186.585938 "/>
</g>
<path style=" stroke:none;fill-rule:nonzero;fill:rgb(41.958618%,74.899292%,79.998779%);fill-opacity:1;" d="M 131.882812 184.019531 C 137.785156 187.457031 143.21875 188.175781 147.464844 186.585938 L 147.429688 197.078125 C 147.421875 200.539062 144.980469 201.941406 141.984375 200.199219 C 141.398438 199.867188 140.832031 199.425781 140.269531 198.882812 L 125.433594 184.511719 C 121.246094 180.453125 118.121094 174.773438 116.902344 169.339844 C 121.035156 175.480469 126.234375 180.734375 131.882812 184.019531 "/>
<path style=" stroke:none;fill-rule:nonzero;fill:rgb(41.958618%,74.899292%,79.998779%);fill-opacity:1;" d="M 85.4375 75.679688 L 85.414062 83.496094 C 85.414062 84.917969 86.40625 86.652344 87.632812 87.363281 L 87.617188 92.511719 C 86.390625 91.800781 85.390625 92.375 85.390625 93.785156 C 85.382812 95.207031 86.375 96.941406 87.601562 97.660156 L 87.585938 102.800781 C 86.359375 102.089844 85.367188 102.664062 85.359375 104.082031 L 85.332031 112.917969 C 84.292969 112.410156 83.308594 112 82.386719 111.675781 C 79.101562 101.113281 73.085938 95.253906 68.480469 92.566406 C 67.070312 91.753906 65.789062 91.226562 64.761719 90.960938 C 63.585938 90.65625 62.886719 91.664062 63.214844 93.222656 C 63.480469 94.511719 64.371094 95.789062 65.339844 96.359375 C 65.53125 96.464844 65.730469 96.554688 65.925781 96.601562 C 66.21875 96.683594 67.214844 96.988281 68.550781 97.773438 C 71.300781 99.371094 75.511719 102.96875 78.09375 110.699219 C 74.671875 110.378906 72.445312 111.386719 71.234375 112.210938 C 70.53125 111.621094 69.824219 111.121094 69.113281 110.707031 C 64.632812 108.109375 60.238281 108.804688 59.621094 108.925781 C 58.59375 109.117188 58.320312 110.546875 58.996094 112.136719 C 59.417969 113.121094 60.125 113.9375 60.84375 114.355469 C 61.261719 114.597656 61.695312 114.710938 62.070312 114.636719 C 63.230469 114.429688 66.484375 114.339844 69.113281 115.863281 C 69.265625 115.953125 69.417969 116.050781 69.570312 116.15625 C 68.617188 120.828125 64.082031 121.796875 64.035156 121.804688 C 63.015625 121.996094 62.734375 123.433594 63.410156 125.007812 C 63.832031 126 64.539062 126.816406 65.257812 127.234375 C 65.683594 127.476562 66.117188 127.589844 66.492188 127.515625 C 66.789062 127.460938 73.679688 126.054688 74.160156 117.839844 C 74.246094 117.769531 74.34375 117.6875 74.464844 117.609375 C 75.753906 123.984375 77.003906 133.464844 74.511719 136.335938 C 73.824219 137.121094 74.09375 138.878906 75.113281 140.265625 C 75.488281 140.773438 75.921875 141.171875 76.34375 141.414062 C 77.058594 141.832031 77.773438 141.839844 78.195312 141.339844 C 82.34375 136.578125 79.589844 122.238281 78.253906 116.40625 C 79.140625 116.355469 80.175781 116.429688 81.367188 116.695312 C 81.488281 116.734375 81.609375 116.777344 81.730469 116.800781 C 82.929688 117.089844 84.066406 117.496094 85.316406 118.082031 L 85.238281 146.480469 C 85.222656 153.113281 81.527344 156.875 76.089844 155.816406 L 61.207031 152.886719 C 60.667969 152.800781 60.09375 152.574219 59.484375 152.21875 C 56.511719 150.492188 54.078125 146.238281 54.085938 142.785156 L 54.21875 94.269531 C 54.261719 80.398438 61.832031 72.199219 73.0625 73.871094 L 85.4375 75.679688 "/>
<path style=" stroke:none;fill-rule:nonzero;fill:rgb(79.998779%,6.669617%,39.608765%);fill-opacity:1;" d="M 105.375 109.335938 C 106.601562 110.054688 107.59375 111.773438 107.59375 113.195312 C 107.59375 113.636719 107.660156 122.722656 112.007812 127.71875 C 112.023438 127.734375 112.039062 127.757812 112.054688 127.773438 C 111.191406 128.679688 110.4375 129.734375 109.796875 130.953125 C 105.449219 125.765625 103.703125 118.382812 103.269531 113.257812 C 103.179688 112.289062 103.148438 111.394531 103.148438 110.621094 C 103.15625 109.191406 104.148438 108.625 105.375 109.335938 "/>
<g clip-path="url(#clip6)" clip-rule="nonzero">
<path style=" stroke:none;fill-rule:nonzero;fill:rgb(23.529053%,50.588989%,79.60968%);fill-opacity:1;" d="M 88.945312 71.894531 C 89.539062 72.699219 89.898438 73.710938 89.890625 74.558594 L 89.859375 86.082031 C 89.859375 87.5 88.851562 88.082031 87.632812 87.363281 C 86.40625 86.652344 85.414062 84.917969 85.414062 83.496094 L 85.4375 75.679688 L 73.0625 73.871094 C 61.832031 72.199219 54.261719 80.398438 54.21875 94.269531 L 54.085938 142.785156 C 54.078125 146.238281 56.511719 150.492188 59.484375 152.21875 C 60.09375 152.574219 60.667969 152.800781 61.207031 152.886719 L 76.089844 155.816406 C 81.527344 156.875 85.222656 153.113281 85.238281 146.480469 L 85.316406 118.082031 C 86.023438 118.414062 86.757812 118.800781 87.535156 119.253906 C 88.328125 119.714844 89.074219 120.054688 89.761719 120.277344 L 89.683594 149.0625 C 89.660156 157.914062 84.75 162.917969 77.476562 161.496094 L 62.609375 158.601562 C 61.605469 158.398438 60.539062 157.988281 59.476562 157.367188 C 54.027344 154.203125 49.621094 146.503906 49.636719 140.203125 L 49.773438 91.6875 C 49.796875 83.78125 51.859375 77.390625 55.765625 73.160156 C 59.675781 68.941406 65.113281 67.179688 71.5 68.140625 L 86.894531 70.394531 C 87.144531 70.433594 87.398438 70.53125 87.664062 70.683594 C 88.113281 70.949219 88.5625 71.363281 88.945312 71.894531 "/>
</g>
<path style=" stroke:none;fill-rule:nonzero;fill:rgb(35.289001%,14.898682%,56.469727%);fill-opacity:1;" d="M 140.839844 166.03125 C 142.0625 166.75 143.066406 166.171875 143.066406 164.757812 C 143.074219 163.335938 142.078125 161.601562 140.847656 160.882812 C 139.628906 160.175781 138.628906 160.753906 138.621094 162.167969 C 138.621094 163.585938 139.613281 165.324219 140.839844 166.03125 Z M 140.863281 155.746094 C 144.546875 157.882812 147.527344 163.078125 147.511719 167.339844 C 147.503906 171.59375 144.5 173.320312 140.824219 171.171875 C 139.453125 170.382812 138.179688 169.15625 137.121094 167.71875 C 135.34375 165.296875 134.171875 162.257812 134.179688 159.585938 C 134.191406 156.914062 135.367188 155.242188 137.152344 154.898438 C 138.21875 154.6875 139.492188 154.945312 140.863281 155.746094 "/>
<path style=" stroke:none;fill-rule:nonzero;fill:rgb(23.529053%,50.588989%,79.60968%);fill-opacity:1;" d="M 112.769531 86.046875 L 127.21875 77.582031 C 127.316406 77.535156 127.421875 77.484375 127.53125 77.460938 C 127.917969 77.390625 128.359375 77.484375 128.804688 77.746094 C 129.070312 77.898438 129.335938 78.109375 129.582031 78.359375 L 115.132812 86.824219 C 114.875 86.5625 114.621094 86.363281 114.355469 86.210938 C 113.90625 85.949219 113.457031 85.847656 113.082031 85.925781 C 112.96875 85.949219 112.867188 85.992188 112.769531 86.046875 "/>
<path style=" stroke:none;fill-rule:nonzero;fill:rgb(79.998779%,6.669617%,39.608765%);fill-opacity:1;" d="M 95.042969 55.125 L 109.5 46.667969 C 109.902344 46.433594 110.460938 46.46875 111.078125 46.820312 C 112.304688 47.539062 113.296875 49.265625 113.296875 50.6875 L 98.839844 59.144531 C 98.847656 57.730469 97.855469 55.996094 96.621094 55.285156 C 96.003906 54.921875 95.449219 54.890625 95.042969 55.125 "/>
<path style=" stroke:none;fill-rule:nonzero;fill:rgb(79.219055%,45.098877%,53.729248%);fill-opacity:1;" d="M 103.285156 61.734375 L 103.15625 108.039062 L 98.710938 105.453125 L 98.839844 59.144531 L 103.285156 61.734375 "/>
<path style=" stroke:none;fill-rule:nonzero;fill:rgb(79.219055%,45.098877%,53.729248%);fill-opacity:1;" d="M 98.839844 59.144531 L 113.296875 50.6875 L 117.742188 53.269531 L 103.285156 61.734375 L 98.839844 59.144531 "/>
<path style=" stroke:none;fill-rule:nonzero;fill:rgb(79.998779%,6.669617%,39.608765%);fill-opacity:1;" d="M 103.933594 60.296875 L 118.386719 51.839844 C 118.792969 51.597656 119.355469 51.632812 119.972656 51.996094 L 105.511719 60.453125 C 104.894531 60.097656 104.335938 60.0625 103.933594 60.296875 "/>
<path style=" stroke:none;fill-rule:nonzero;fill:rgb(23.529053%,50.588989%,79.60968%);fill-opacity:1;" d="M 115.132812 86.824219 L 129.582031 78.359375 L 144.933594 93.972656 L 130.480469 102.4375 L 115.132812 86.824219 "/>
<path style=" stroke:none;fill-rule:nonzero;fill:rgb(79.998779%,6.669617%,39.608765%);fill-opacity:1;" d="M 105.511719 60.453125 L 119.972656 51.996094 C 121.195312 52.710938 122.191406 54.441406 122.183594 55.859375 L 107.730469 64.316406 C 107.738281 62.894531 106.746094 61.167969 105.511719 60.453125 "/>
<path style=" stroke:none;fill-rule:nonzero;fill:rgb(79.998779%,6.669617%,39.608765%);fill-opacity:1;" d="M 105.511719 60.453125 C 106.746094 61.167969 107.738281 62.894531 107.730469 64.316406 L 107.59375 113.195312 C 107.59375 111.773438 106.601562 110.054688 105.375 109.335938 C 104.148438 108.625 103.15625 109.191406 103.148438 110.621094 C 103.148438 111.394531 103.179688 112.289062 103.269531 113.257812 L 98.574219 110.53125 C 98.664062 109.660156 98.703125 108.8125 98.703125 108.027344 C 98.710938 106.609375 97.71875 104.882812 96.492188 104.171875 C 95.257812 103.453125 94.265625 104.019531 94.257812 105.4375 L 94.402344 56.5625 C 94.402344 55.140625 95.402344 54.570312 96.621094 55.285156 C 97.855469 55.996094 98.847656 57.730469 98.839844 59.144531 L 98.710938 105.453125 L 103.15625 108.039062 L 103.285156 61.734375 C 103.292969 60.3125 104.285156 59.742188 105.511719 60.453125 "/>
<path style=" stroke:none;fill-rule:nonzero;fill:rgb(41.958618%,74.899292%,79.998779%);fill-opacity:1;" d="M 147.101562 142.21875 C 142.953125 136.03125 137.722656 130.730469 132.042969 127.421875 C 126.140625 123.984375 120.707031 123.265625 116.46875 124.855469 L 116.550781 93.785156 L 128.902344 106.351562 C 138.441406 116.042969 145.300781 129.792969 147.101562 142.21875 "/>
<path style=" stroke:none;fill-rule:nonzero;fill:rgb(23.529053%,50.588989%,79.60968%);fill-opacity:1;" d="M 130.480469 102.4375 L 144.933594 93.972656 C 157.84375 107.101562 166.488281 126.644531 166.464844 142.640625 L 152.011719 151.097656 C 152.035156 135.109375 143.394531 115.566406 130.480469 102.4375 "/>
<path style=" stroke:none;fill-rule:nonzero;fill:rgb(65.098572%,88.62915%,94.509888%);fill-opacity:1;" d="M 131.929688 183.921875 C 137.835938 187.351562 143.265625 188.078125 147.503906 186.488281 L 147.480469 196.980469 C 147.464844 200.441406 145.019531 201.84375 142.03125 200.101562 C 141.445312 199.761719 140.871094 199.328125 140.316406 198.785156 L 125.480469 184.414062 C 121.292969 180.347656 118.160156 174.667969 116.949219 169.238281 C 121.085938 175.386719 126.285156 180.636719 131.929688 183.921875 "/>
<path style=" stroke:none;fill-rule:nonzero;fill:rgb(36.859131%,70.588684%,90.979004%);fill-opacity:1;" d="M 116.511719 124.757812 C 114.84375 125.378906 113.363281 126.363281 112.105469 127.679688 L 112.167969 87.386719 C 112.167969 86.546875 112.527344 85.96875 113.128906 85.828125 C 113.507812 85.75 113.953125 85.847656 114.402344 86.113281 C 114.667969 86.265625 114.925781 86.46875 115.179688 86.726562 L 130.527344 102.339844 C 143.433594 115.460938 152.085938 135.011719 152.0625 151 C 150.683594 147.925781 149.023438 144.929688 147.144531 142.113281 C 145.347656 129.695312 138.492188 115.945312 128.949219 106.246094 L 116.597656 93.679688 L 116.511719 124.757812 "/>
<path style=" stroke:none;fill-rule:nonzero;fill:rgb(93.728638%,16.468811%,59.609985%);fill-opacity:1;" d="M 105.425781 109.238281 C 106.648438 109.957031 107.644531 111.675781 107.644531 113.097656 C 107.644531 113.539062 107.707031 122.628906 112.054688 127.613281 C 112.074219 127.636719 112.089844 127.652344 112.105469 127.679688 C 111.238281 128.582031 110.476562 129.640625 109.84375 130.851562 C 105.496094 125.660156 103.75 118.285156 103.308594 113.160156 C 103.230469 112.183594 103.195312 111.296875 103.195312 110.515625 C 103.195312 109.09375 104.199219 108.53125 105.425781 109.238281 "/>
<path style=" stroke:none;fill-rule:nonzero;fill:rgb(97.648621%,65.879822%,7.449341%);fill-opacity:1;" d="M 134.222656 159.488281 C 134.222656 162.152344 135.390625 165.195312 137.167969 167.621094 C 135.238281 170.359375 131.632812 170.867188 127.523438 168.46875 C 121.398438 164.910156 116.421875 156.238281 116.445312 149.144531 C 116.460938 142.929688 120.308594 139.960938 125.378906 141.710938 C 126.089844 141.960938 126.835938 142.300781 127.597656 142.746094 C 128.359375 143.1875 129.101562 143.710938 129.824219 144.300781 C 131.144531 145.382812 132.378906 146.683594 133.476562 148.125 C 134.742188 149.78125 135.839844 151.636719 136.6875 153.550781 C 136.875 153.960938 137.050781 154.378906 137.210938 154.792969 C 135.414062 155.148438 134.230469 156.816406 134.222656 159.488281 C 134.238281 155.226562 131.257812 150.023438 127.582031 147.894531 C 123.902344 145.746094 120.898438 147.472656 120.890625 151.734375 C 120.875 155.976562 123.863281 161.183594 127.539062 163.320312 C 131.210938 165.460938 134.214844 163.742188 134.222656 159.488281 "/>
<path style=" stroke:none;fill-rule:nonzero;fill:rgb(98.429871%,82.348633%,56.079102%);fill-opacity:1;" d="M 127.582031 147.894531 C 131.257812 150.023438 134.238281 155.226562 134.222656 159.488281 C 134.214844 163.742188 131.210938 165.460938 127.539062 163.320312 C 123.863281 161.183594 120.875 155.976562 120.890625 151.734375 C 120.898438 147.472656 123.902344 145.746094 127.582031 147.894531 "/>
<g clip-path="url(#clip7)" clip-rule="nonzero">
<path style=" stroke:none;fill-rule:nonzero;fill:rgb(36.859131%,70.588684%,90.979004%);fill-opacity:1;" d="M 147.503906 186.488281 C 149.203125 185.851562 150.699219 184.851562 151.964844 183.511719 L 151.925781 199.5625 C 151.902344 205.863281 147.464844 208.414062 142.015625 205.25 C 140.957031 204.628906 139.902344 203.824219 138.898438 202.835938 L 124.054688 188.472656 C 116.789062 181.4375 111.9375 170.753906 111.960938 161.886719 L 111.960938 160.238281 C 113.355469 163.363281 115.035156 166.394531 116.949219 169.238281 C 118.160156 174.667969 121.292969 180.347656 125.480469 184.414062 L 140.316406 198.785156 C 140.871094 199.328125 141.445312 199.761719 142.03125 200.101562 C 145.019531 201.84375 147.464844 200.441406 147.480469 196.980469 L 147.503906 186.488281 "/>
</g>
<path style=" stroke:none;fill-rule:nonzero;fill:rgb(82.749939%,69.799805%,87.059021%);fill-opacity:1;" d="M 140.902344 160.789062 C 142.128906 161.496094 143.121094 163.242188 143.113281 164.660156 C 143.113281 166.074219 142.113281 166.644531 140.886719 165.9375 C 139.660156 165.226562 138.667969 163.492188 138.667969 162.070312 C 138.675781 160.660156 139.675781 160.078125 140.902344 160.789062 "/>
<path style=" stroke:none;fill-rule:nonzero;fill:rgb(82.749939%,69.799805%,87.059021%);fill-opacity:1;" d="M 132.050781 142.761719 C 133.277344 143.46875 134.261719 145.207031 134.261719 146.617188 C 134.261719 147.410156 133.957031 147.933594 133.476562 148.125 C 132.378906 146.683594 131.144531 145.382812 129.824219 144.300781 C 129.816406 144.214844 129.816406 144.125 129.816406 144.035156 C 129.824219 142.613281 130.824219 142.050781 132.050781 142.761719 "/>
<path style=" stroke:none;fill-rule:nonzero;fill:rgb(49.01886%,24.708557%,63.919067%);fill-opacity:1;" d="M 140.886719 165.9375 C 142.113281 166.644531 143.113281 166.074219 143.113281 164.660156 C 143.121094 163.242188 142.128906 161.496094 140.902344 160.789062 C 139.675781 160.078125 138.675781 160.660156 138.667969 162.070312 C 138.667969 163.492188 139.660156 165.226562 140.886719 165.9375 Z M 140.917969 155.648438 C 144.585938 157.777344 147.574219 162.984375 147.558594 167.242188 C 147.550781 171.496094 144.546875 173.214844 140.871094 171.078125 C 139.5 170.285156 138.226562 169.058594 137.167969 167.621094 C 135.390625 165.195312 134.222656 162.152344 134.222656 159.488281 C 134.230469 156.816406 135.414062 155.148438 137.210938 154.792969 C 138.265625 154.589844 139.546875 154.847656 140.917969 155.648438 "/>
<path style=" stroke:none;fill-rule:nonzero;fill:rgb(36.859131%,70.588684%,90.979004%);fill-opacity:1;" d="M 131.945312 178.78125 C 142.96875 185.191406 151.972656 180.015625 152.011719 167.25 C 152.046875 154.484375 143.105469 138.878906 132.074219 132.472656 C 121.042969 126.054688 112.039062 131.214844 112.007812 143.988281 C 111.96875 156.753906 120.917969 172.359375 131.945312 178.78125 Z M 152.0625 151 C 154.847656 157.230469 156.476562 163.789062 156.457031 169.839844 C 156.441406 175.886719 154.777344 180.535156 151.964844 183.511719 C 150.699219 184.851562 149.203125 185.851562 147.503906 186.488281 C 143.265625 188.078125 137.835938 187.351562 131.929688 183.921875 C 126.285156 180.636719 121.085938 175.386719 116.949219 169.238281 C 115.035156 166.394531 113.355469 163.363281 111.960938 160.238281 C 109.171875 154.007812 107.546875 147.441406 107.5625 141.398438 C 107.570312 137.167969 108.394531 133.617188 109.84375 130.851562 C 110.476562 129.640625 111.238281 128.582031 112.105469 127.679688 C 113.363281 126.363281 114.84375 125.378906 116.511719 124.757812 C 120.757812 123.167969 126.1875 123.886719 132.089844 127.324219 C 137.769531 130.625 143 135.925781 147.144531 142.113281 C 149.023438 144.929688 150.683594 147.925781 152.0625 151 "/>
<path style=" stroke:none;fill-rule:nonzero;fill:rgb(49.01886%,24.708557%,63.919067%);fill-opacity:1;" d="M 132.066406 137.613281 C 135.734375 139.75 138.714844 144.957031 138.707031 149.207031 C 138.699219 151.363281 137.929688 152.863281 136.6875 153.550781 C 135.839844 151.636719 134.742188 149.78125 133.476562 148.125 C 133.957031 147.933594 134.261719 147.410156 134.261719 146.617188 C 134.261719 145.207031 133.277344 143.46875 132.050781 142.761719 C 130.824219 142.050781 129.824219 142.613281 129.816406 144.035156 C 129.816406 144.125 129.816406 144.214844 129.824219 144.300781 C 129.101562 143.710938 128.359375 143.1875 127.597656 142.746094 C 126.835938 142.300781 126.089844 141.960938 125.378906 141.710938 C 125.371094 141.621094 125.371094 141.535156 125.371094 141.453125 C 125.386719 137.199219 128.382812 135.472656 132.066406 137.613281 "/>
<path style=" stroke:none;fill-rule:nonzero;fill:rgb(100%,100%,100%);fill-opacity:1;" d="M 140.871094 171.078125 C 144.546875 173.214844 147.550781 171.496094 147.558594 167.242188 C 147.574219 162.984375 144.585938 157.777344 140.917969 155.648438 C 139.546875 154.847656 138.265625 154.589844 137.210938 154.792969 C 137.050781 154.378906 136.875 153.960938 136.6875 153.550781 C 137.929688 152.863281 138.699219 151.363281 138.707031 149.207031 C 138.714844 144.957031 135.734375 139.75 132.066406 137.613281 C 128.382812 135.472656 125.386719 137.199219 125.371094 141.453125 C 125.371094 141.535156 125.371094 141.621094 125.378906 141.710938 C 120.308594 139.960938 116.460938 142.929688 116.445312 149.144531 C 116.421875 156.238281 121.398438 164.910156 127.523438 168.46875 C 131.632812 170.867188 135.238281 170.359375 137.167969 167.621094 C 138.226562 169.058594 139.5 170.285156 140.871094 171.078125 Z M 132.074219 132.472656 C 143.105469 138.878906 152.046875 154.484375 152.011719 167.25 C 151.972656 180.015625 142.96875 185.191406 131.945312 178.78125 C 120.917969 172.359375 111.96875 156.753906 112.007812 143.988281 C 112.039062 131.214844 121.042969 126.054688 132.074219 132.472656 "/>
<path style=" stroke:none;fill-rule:nonzero;fill:rgb(93.728638%,16.468811%,59.609985%);fill-opacity:1;" d="M 105.566406 60.363281 C 106.792969 61.074219 107.777344 62.800781 107.777344 64.21875 L 107.644531 113.097656 C 107.644531 111.675781 106.648438 109.957031 105.433594 109.238281 C 104.199219 108.53125 103.195312 109.09375 103.195312 110.515625 C 103.195312 111.296875 103.230469 112.183594 103.308594 113.160156 L 98.621094 110.433594 C 98.710938 109.5625 98.75 108.714844 98.75 107.933594 C 98.757812 106.503906 97.765625 104.785156 96.539062 104.074219 C 95.316406 103.363281 94.3125 103.929688 94.304688 105.34375 L 94.441406 56.464844 C 94.449219 55.042969 95.449219 54.472656 96.675781 55.191406 C 97.902344 55.898438 98.894531 57.636719 98.886719 59.046875 L 98.757812 105.359375 L 103.203125 107.941406 L 103.332031 61.636719 C 103.339844 60.21875 104.335938 59.644531 105.566406 60.363281 "/>
<path style=" stroke:none;fill-rule:nonzero;fill:rgb(65.098572%,88.62915%,94.509888%);fill-opacity:1;" d="M 147.144531 142.113281 C 143 135.925781 137.769531 130.625 132.089844 127.324219 C 126.1875 123.886719 120.757812 123.167969 116.511719 124.757812 L 116.597656 93.679688 L 128.949219 106.246094 C 138.492188 115.945312 145.347656 129.695312 147.144531 142.113281 "/>
<path style=" stroke:none;fill-rule:nonzero;fill:rgb(93.728638%,16.468811%,59.609985%);fill-opacity:1;" d="M 72.019531 113 C 73.246094 113.71875 74.246094 115.445312 74.238281 116.867188 C 74.238281 117.164062 74.230469 117.453125 74.214844 117.738281 C 73.734375 125.960938 66.84375 127.363281 66.539062 127.414062 C 66.164062 127.492188 65.730469 127.378906 65.308594 127.128906 C 64.585938 126.710938 63.882812 125.902344 63.457031 124.910156 C 62.785156 123.328125 63.0625 121.902344 64.082031 121.699219 C 64.128906 121.691406 68.664062 120.730469 69.617188 116.058594 C 69.730469 115.519531 69.792969 114.921875 69.792969 114.273438 C 69.792969 112.863281 70.800781 112.289062 72.019531 113 "/>
<path style=" stroke:none;fill-rule:nonzero;fill:rgb(93.728638%,16.468811%,59.609985%);fill-opacity:1;" d="M 78.292969 116.300781 C 79.636719 122.144531 82.394531 136.480469 78.242188 141.242188 C 77.820312 141.734375 77.105469 141.726562 76.394531 141.316406 C 75.96875 141.066406 75.542969 140.679688 75.167969 140.171875 C 74.152344 138.78125 73.878906 137.03125 74.558594 136.238281 C 77.058594 133.375 75.808594 123.894531 74.511719 117.511719 C 75.183594 117.035156 76.410156 116.40625 78.292969 116.300781 "/>
<path style=" stroke:none;fill-rule:nonzero;fill:rgb(93.728638%,16.468811%,59.609985%);fill-opacity:1;" d="M 81.777344 116.703125 C 81.65625 116.679688 81.535156 116.648438 81.417969 116.597656 C 81.59375 116.640625 81.769531 116.679688 81.953125 116.726562 C 81.898438 116.71875 81.832031 116.710938 81.777344 116.703125 "/>
<path style=" stroke:none;fill-rule:nonzero;fill:rgb(36.859131%,70.588684%,90.979004%);fill-opacity:1;" d="M 87.640625 102.710938 C 88.859375 103.414062 89.851562 105.148438 89.851562 106.570312 L 89.828125 114.742188 C 89.1875 114.726562 88.449219 114.5 87.609375 114.007812 C 86.839844 113.566406 86.09375 113.167969 85.382812 112.824219 L 85.40625 103.976562 C 85.414062 102.566406 86.414062 101.992188 87.640625 102.710938 "/>
<path style=" stroke:none;fill-rule:nonzero;fill:rgb(36.859131%,70.588684%,90.979004%);fill-opacity:1;" d="M 87.664062 92.414062 C 88.882812 93.125 89.882812 94.859375 89.875 96.28125 C 89.875 97.691406 88.875 98.273438 87.65625 97.5625 C 86.429688 96.851562 85.429688 95.109375 85.4375 93.691406 C 85.4375 92.277344 86.445312 91.703125 87.664062 92.414062 "/>
<path style=" stroke:none;fill-rule:nonzero;fill:rgb(65.098572%,88.62915%,94.509888%);fill-opacity:1;" d="M 85.484375 75.582031 L 85.460938 83.402344 C 85.460938 84.8125 86.453125 86.554688 87.679688 87.265625 L 87.664062 92.414062 C 86.445312 91.703125 85.4375 92.277344 85.4375 93.691406 C 85.429688 95.109375 86.429688 96.851562 87.65625 97.5625 L 87.640625 102.710938 C 86.414062 101.992188 85.414062 102.566406 85.40625 103.976562 L 85.382812 112.824219 C 84.339844 112.3125 83.363281 111.902344 82.433594 111.578125 C 79.15625 101.015625 73.132812 95.148438 68.527344 92.472656 C 67.117188 91.648438 65.835938 91.132812 64.808594 90.867188 C 63.632812 90.558594 62.945312 91.566406 63.257812 93.117188 C 63.519531 94.414062 64.417969 95.691406 65.394531 96.265625 C 65.585938 96.375 65.78125 96.457031 65.980469 96.507812 C 66.269531 96.585938 67.261719 96.894531 68.597656 97.667969 C 71.347656 99.273438 75.5625 102.863281 78.140625 110.601562 C 74.71875 110.28125 72.492188 111.28125 71.273438 112.113281 C 70.578125 111.515625 69.875 111.023438 69.160156 110.613281 C 64.683594 108.011719 60.285156 108.707031 59.667969 108.820312 C 58.640625 109.015625 58.363281 110.449219 59.042969 112.03125 C 59.46875 113.023438 60.171875 113.839844 60.894531 114.257812 C 61.308594 114.5 61.742188 114.613281 62.117188 114.542969 C 63.28125 114.332031 66.53125 114.242188 69.160156 115.769531 C 69.3125 115.855469 69.464844 115.953125 69.617188 116.058594 C 68.664062 120.730469 64.128906 121.691406 64.082031 121.699219 C 63.0625 121.902344 62.785156 123.328125 63.457031 124.910156 C 63.882812 125.902344 64.585938 126.710938 65.308594 127.128906 C 65.730469 127.378906 66.164062 127.492188 66.539062 127.414062 C 66.84375 127.363281 73.734375 125.960938 74.214844 117.738281 C 74.296875 117.671875 74.398438 117.589844 74.511719 117.511719 C 75.808594 123.894531 77.058594 133.375 74.558594 136.238281 C 73.878906 137.03125 74.152344 138.78125 75.167969 140.171875 C 75.542969 140.679688 75.96875 141.066406 76.394531 141.316406 C 77.105469 141.726562 77.820312 141.734375 78.242188 141.242188 C 82.394531 136.480469 79.636719 122.144531 78.292969 116.300781 C 79.1875 116.261719 80.222656 116.332031 81.417969 116.597656 C 81.535156 116.648438 81.65625 116.679688 81.777344 116.703125 C 82.976562 116.996094 84.117188 117.398438 85.367188 117.988281 L 85.285156 146.375 C 85.269531 153.015625 81.585938 156.785156 76.128906 155.71875 L 61.246094 152.789062 C 60.710938 152.703125 60.132812 152.46875 59.53125 152.121094 C 56.550781 150.386719 54.125 146.132812 54.132812 142.6875 L 54.269531 94.175781 C 54.308594 80.300781 61.878906 72.105469 73.109375 73.773438 L 85.484375 75.582031 "/>
<g clip-path="url(#clip8)" clip-rule="nonzero">
<path style=" stroke:none;fill-rule:nonzero;fill:rgb(36.859131%,70.588684%,90.979004%);fill-opacity:1;" d="M 88.996094 71.796875 C 89.59375 72.613281 89.949219 73.613281 89.941406 74.460938 L 89.90625 85.984375 C 89.90625 87.402344 88.898438 87.976562 87.679688 87.265625 C 86.453125 86.554688 85.460938 84.8125 85.460938 83.402344 L 85.484375 75.582031 L 73.109375 73.773438 C 61.878906 72.105469 54.308594 80.300781 54.269531 94.175781 L 54.132812 142.6875 C 54.125 146.132812 56.550781 150.386719 59.53125 152.121094 C 60.132812 152.46875 60.710938 152.703125 61.246094 152.789062 L 76.128906 155.71875 C 81.585938 156.785156 85.269531 153.015625 85.285156 146.375 L 85.367188 117.988281 C 86.070312 118.316406 86.816406 118.707031 87.59375 119.15625 C 88.386719 119.617188 89.121094 119.957031 89.8125 120.183594 L 89.730469 148.964844 C 89.707031 157.816406 84.796875 162.820312 77.523438 161.402344 L 62.65625 158.503906 C 61.65625 158.300781 60.589844 157.890625 59.515625 157.269531 C 54.078125 154.097656 49.671875 146.40625 49.6875 140.097656 L 49.824219 91.589844 C 49.847656 83.683594 51.90625 77.292969 55.816406 73.0625 C 59.730469 68.84375 65.164062 67.085938 71.546875 68.042969 L 86.953125 70.296875 C 87.191406 70.335938 87.457031 70.433594 87.710938 70.585938 C 88.160156 70.84375 88.609375 71.265625 88.996094 71.796875 "/>
</g>
<path style=" stroke:none;fill-rule:nonzero;fill:rgb(97.24884%,65.098572%,74.508667%);fill-opacity:1;" d="M 103.332031 61.636719 L 103.203125 107.941406 L 98.757812 105.359375 L 98.886719 59.046875 L 103.332031 61.636719 "/>
<path style=" stroke:none;fill-rule:nonzero;fill:rgb(93.728638%,16.468811%,59.609985%);fill-opacity:1;" d="M 96.539062 104.074219 C 97.765625 104.785156 98.757812 106.503906 98.75 107.933594 C 98.75 108.714844 98.710938 109.5625 98.621094 110.433594 C 98.09375 115.785156 95.804688 122.144531 89.8125 120.183594 C 89.121094 119.957031 88.386719 119.617188 87.59375 119.15625 C 86.816406 118.707031 86.070312 118.316406 85.367188 117.988281 C 84.117188 117.398438 82.976562 116.996094 81.953125 116.726562 C 81.769531 116.679688 81.59375 116.640625 81.417969 116.597656 C 80.222656 116.332031 79.1875 116.261719 78.292969 116.300781 C 76.410156 116.40625 75.183594 117.035156 74.511719 117.511719 C 74.398438 117.589844 74.296875 117.671875 74.214844 117.738281 C 74.230469 117.453125 74.238281 117.164062 74.238281 116.867188 C 74.246094 115.445312 73.246094 113.71875 72.019531 113 C 70.800781 112.289062 69.792969 112.863281 69.792969 114.273438 C 69.792969 114.921875 69.730469 115.519531 69.617188 116.058594 C 69.464844 115.953125 69.3125 115.855469 69.160156 115.769531 C 66.53125 114.242188 63.28125 114.332031 62.117188 114.542969 C 61.742188 114.613281 61.308594 114.5 60.894531 114.257812 C 60.171875 113.839844 59.46875 113.023438 59.042969 112.03125 C 58.363281 110.449219 58.640625 109.015625 59.667969 108.820312 C 60.285156 108.707031 64.683594 108.011719 69.160156 110.613281 C 69.875 111.023438 70.578125 111.515625 71.273438 112.113281 C 72.492188 111.28125 74.71875 110.28125 78.140625 110.601562 C 79.40625 110.722656 80.832031 111.023438 82.433594 111.578125 C 83.363281 111.902344 84.339844 112.3125 85.382812 112.824219 C 86.09375 113.167969 86.839844 113.566406 87.609375 114.007812 C 88.449219 114.5 89.1875 114.726562 89.828125 114.742188 C 94.191406 114.855469 94.304688 105.453125 94.304688 105.34375 C 94.3125 103.929688 95.316406 103.363281 96.539062 104.074219 "/>
<path style=" stroke:none;fill-rule:nonzero;fill:rgb(93.728638%,16.468811%,59.609985%);fill-opacity:1;" d="M 68.527344 92.472656 C 73.132812 95.148438 79.15625 101.015625 82.433594 111.578125 C 80.832031 111.023438 79.40625 110.722656 78.140625 110.601562 C 75.5625 102.863281 71.347656 99.273438 68.597656 97.667969 C 67.261719 96.894531 66.269531 96.585938 65.980469 96.507812 C 65.78125 96.457031 65.585938 96.375 65.394531 96.265625 C 64.417969 95.691406 63.519531 94.414062 63.257812 93.117188 C 62.945312 91.566406 63.632812 90.558594 64.808594 90.867188 C 65.835938 91.132812 67.117188 91.65625 68.527344 92.472656 "/>
</g>
</svg>
