<?xml version="1.0" encoding="UTF-8"?>
<svg xmlns="http://www.w3.org/2000/svg" xmlns:xlink="http://www.w3.org/1999/xlink" width="300pt" height="299.999988pt" viewBox="0 0 300 299.999988" version="1.2">
<defs>
<clipPath id="clip1">
  <path d="M 108.351562 173 L 191.566406 173 L 191.566406 257.367188 L 108.351562 257.367188 Z M 108.351562 173 "/>
</clipPath>
</defs>
<g id="surface1">
<g clip-path="url(#clip1)" clip-rule="nonzero">
<path style=" stroke:none;fill-rule:nonzero;fill:rgb(25.099182%,74.899292%,73.728943%);fill-opacity:1;" d="M 191.578125 215.46875 C 191.578125 192.40625 172.941406 173.714844 149.957031 173.714844 C 126.964844 173.714844 108.335938 192.40625 108.335938 215.46875 C 108.335938 238.523438 126.964844 257.226562 149.957031 257.226562 C 172.941406 257.226562 191.578125 238.523438 191.578125 215.46875 "/>
</g>
<path style=" stroke:none;fill-rule:nonzero;fill:rgb(25.099182%,74.899292%,73.728943%);fill-opacity:1;" d="M 169.203125 62.03125 C 169.203125 51.660156 160.824219 43.242188 150.472656 43.242188 L 149.4375 43.242188 C 139.085938 43.242188 130.707031 51.660156 130.707031 62.03125 L 130.707031 196.679688 C 130.707031 207.054688 139.085938 215.46875 149.4375 215.46875 L 150.472656 215.46875 C 160.824219 215.46875 169.203125 207.054688 169.203125 196.679688 L 169.203125 62.03125 "/>
<path style=" stroke:none;fill-rule:nonzero;fill:rgb(89.7995%,96.859741%,99.21875%);fill-opacity:1;" d="M 149.4375 206.59375 C 143.988281 206.59375 139.550781 202.144531 139.550781 196.679688 L 139.550781 62.03125 C 139.550781 56.5625 143.988281 52.121094 149.4375 52.121094 L 150.472656 52.121094 C 155.929688 52.121094 160.359375 56.5625 160.359375 62.03125 L 160.359375 196.679688 C 160.359375 202.144531 155.929688 206.59375 150.472656 206.59375 L 149.4375 206.59375 "/>
<path style=" stroke:none;fill-rule:nonzero;fill:rgb(89.7995%,96.859741%,99.21875%);fill-opacity:1;" d="M 178.566406 215.46875 C 178.566406 199.609375 165.757812 186.761719 149.957031 186.761719 C 134.15625 186.761719 121.339844 199.609375 121.339844 215.46875 C 121.339844 231.316406 134.15625 244.171875 149.957031 244.171875 C 165.757812 244.171875 178.566406 231.316406 178.566406 215.46875 "/>
<path style=" stroke:none;fill-rule:nonzero;fill:rgb(93.728638%,16.468811%,26.669312%);fill-opacity:1;" d="M 143.980469 151.207031 L 143.980469 196.679688 C 143.980469 199.695312 146.429688 202.160156 149.4375 202.160156 L 150.472656 202.160156 C 153.492188 202.160156 155.933594 199.695312 155.933594 196.679688 L 155.933594 151.207031 L 143.980469 151.207031 "/>
<path style=" stroke:none;fill-rule:nonzero;fill:rgb(93.728638%,16.468811%,26.669312%);fill-opacity:1;" d="M 149.957031 239.730469 C 136.621094 239.730469 125.765625 228.847656 125.765625 215.46875 C 125.765625 202.085938 136.621094 191.207031 149.957031 191.207031 C 163.296875 191.207031 174.144531 202.085938 174.144531 215.46875 C 174.144531 228.847656 163.296875 239.730469 149.957031 239.730469 "/>
<path style=" stroke:none;fill-rule:nonzero;fill:rgb(17.248535%,19.60907%,33.729553%);fill-opacity:1;" d="M 150.292969 178.683594 L 160.359375 178.683594 L 160.359375 184.769531 L 150.292969 184.769531 L 150.292969 178.683594 "/>
<path style=" stroke:none;fill-rule:nonzero;fill:rgb(17.248535%,19.60907%,33.729553%);fill-opacity:1;" d="M 150.292969 159.46875 L 160.359375 159.46875 L 160.359375 165.5625 L 150.292969 165.5625 L 150.292969 159.46875 "/>
<path style=" stroke:none;fill-rule:nonzero;fill:rgb(17.248535%,19.60907%,33.729553%);fill-opacity:1;" d="M 150.292969 140.253906 L 160.359375 140.253906 L 160.359375 146.351562 L 150.292969 146.351562 L 150.292969 140.253906 "/>
<path style=" stroke:none;fill-rule:nonzero;fill:rgb(17.248535%,19.60907%,33.729553%);fill-opacity:1;" d="M 150.292969 121.035156 L 160.359375 121.035156 L 160.359375 127.132812 L 150.292969 127.132812 L 150.292969 121.035156 "/>
<path style=" stroke:none;fill-rule:nonzero;fill:rgb(17.248535%,19.60907%,33.729553%);fill-opacity:1;" d="M 150.292969 101.824219 L 160.359375 101.824219 L 160.359375 107.917969 L 150.292969 107.917969 L 150.292969 101.824219 "/>
<path style=" stroke:none;fill-rule:nonzero;fill:rgb(17.248535%,19.60907%,33.729553%);fill-opacity:1;" d="M 150.292969 82.613281 L 160.359375 82.613281 L 160.359375 88.707031 L 150.292969 88.707031 L 150.292969 82.613281 "/>
</g>
</svg>
