<svg width="80" height="78" viewBox="0 0 80 78" fill="none" xmlns="http://www.w3.org/2000/svg">
<path fill-rule="evenodd" clip-rule="evenodd" d="M39.896 0.0878906C18.0107 0.0878906 0.265335 17.8386 0.265335 39.7279C0.265335 57.2332 11.62 72.0919 27.3693 77.3319C29.3533 77.6959 30.0773 76.4719 30.0773 75.4199L30.02 68.6799C18.9987 71.0759 16.6707 63.3679 16.6707 63.3679C14.868 58.7892 12.2747 57.5706 12.2747 57.5706C8.67067 55.1066 12.5453 55.1639 12.5453 55.1639C16.5187 55.4399 18.6133 59.2479 18.6133 59.2479C22.1493 65.3052 27.8893 63.5546 30.1493 62.5399C30.5093 59.9826 31.5293 58.2332 32.6653 57.2426C23.8627 56.2426 14.6133 52.8412 14.6133 37.6546C14.6133 33.3266 16.1547 29.7906 18.692 27.0186C18.2853 26.0132 16.9213 21.9879 19.0827 16.5292C19.0827 16.5292 22.4107 15.4612 29.9787 20.5919C33.14 19.7119 36.5307 19.2746 39.9 19.2586C43.264 19.2746 46.66 19.7119 49.8213 20.5919C57.3893 15.4612 60.712 16.5292 60.712 16.5292C62.8733 21.9879 61.5147 26.0132 61.1027 27.0186C63.644 29.7892 65.176 33.3252 65.176 37.6546C65.176 52.8786 55.9107 56.2279 47.0827 57.2119C48.504 58.4306 49.776 60.8519 49.776 64.5506L49.724 75.4199C49.724 76.4826 50.4373 77.7119 52.448 77.3266C68.188 72.0719 79.532 57.2332 79.532 39.7279C79.532 17.8372 61.7867 0.0878906 39.896 0.0878906Z" fill="white"/>
</svg>
