<svg xmlns="http://www.w3.org/2000/svg" width="100" height="100" viewBox="0 0 75 75"  xmlns:v="https://vecta.io/nano"><defs><clipPath id="A"><path d="M8.449 9h59.25v58.699H8.449zm0 0"/></clipPath></defs><g clip-path="url(#A)"><path d="M38.172 9.066c-16.414 0-29.723 13.313-29.723 29.73 0 13.129 8.516 24.273 20.328 28.203 1.488.273 2.031-.645 2.031-1.434l-.043-5.055c-8.266 1.797-10.012-3.984-10.012-3.984-1.352-3.434-3.297-4.348-3.297-4.348-2.703-1.848.203-1.805.203-1.805 2.98.207 4.551 3.063 4.551 3.063 2.652 4.543 6.957 3.23 8.652 2.469.27-1.918 1.035-3.23 1.887-3.973-6.602-.75-13.539-3.301-13.539-14.691 0-3.246 1.156-5.898 3.059-7.977-.305-.754-1.328-3.773.293-7.867 0 0 2.496-.801 8.172 3.047 2.371-.66 4.914-.988 7.441-1 2.523.012 5.07.34 7.441 1 5.676-3.848 8.168-3.047 8.168-3.047 1.621 4.094.602 7.113.293 7.867 1.906 2.078 3.055 4.73 3.055 7.977 0 11.418-6.949 13.93-13.57 14.668 1.066.914 2.02 2.73 2.02 5.504l-.039 8.152c0 .797.535 1.719 2.043 1.43 11.805-3.941 20.313-15.07 20.313-28.199 0-16.418-13.309-29.73-29.727-29.73zm0 0" fill-rule="evenodd" fill="rgb(0%,0%,0%)"/></g></svg>