<svg width="83" height="82" viewBox="0 0 83 82" fill="none" xmlns="http://www.w3.org/2000/svg">
<path d="M76.0733 0.379883H6.68797C3.36531 0.379883 0.677307 2.96788 0.677307 6.15588V75.2546C0.677307 78.4479 3.37064 81.0306 6.68797 81.0306H76.0733C79.4013 81.0306 82.0946 78.4426 82.0946 75.2546V6.15588C82.0946 2.96788 79.3973 0.379883 76.0733 0.379883V0.379883ZM25.3546 67.8959H13.0573V31.4785H25.3546V67.8959ZM19.2093 26.5052H19.1266C15.0013 26.5052 12.3293 23.7026 12.3293 20.2132C12.3293 16.6399 15.084 13.9212 19.288 13.9212C23.492 13.9212 26.0853 16.6399 26.168 20.2132C26.168 23.7079 23.496 26.5052 19.2093 26.5052ZM69.6986 67.8959H57.4013V48.4119C57.4013 43.5159 55.62 40.1772 51.172 40.1772C47.776 40.1772 45.7506 42.4279 44.86 44.6039C44.5373 45.3799 44.4586 46.4639 44.4586 47.5572V67.8959H32.1613V31.4732H44.4586V36.6292C46.0946 34.1506 49.016 30.6186 55.5426 30.6186C63.6306 30.6186 69.704 35.8212 69.704 47.0092L69.6986 67.8959Z" fill="white"/>
</svg>
