<svg width="90" height="65" viewBox="0 0 90 65" fill="none" xmlns="http://www.w3.org/2000/svg">
<path d="M86.432 3.11469L86.172 2.89069C84.5058 1.58188 82.4468 0.873457 80.328 0.880026H9.67201C7.54504 0.854945 5.47677 1.5774 3.82801 2.92136H3.66668C2.52525 3.81646 1.60545 4.96256 0.978678 6.27069C0.348146 7.57238 0.0256018 9.0017 0.0360108 10.448V55.084C0.0360108 55.7094 0.0986775 56.3347 0.218678 56.948C0.343089 57.5638 0.527985 58.1659 0.770678 58.7454C1.01047 59.3245 1.30892 59.8776 1.66134 60.396C2.01088 60.9176 2.41201 61.4027 2.85868 61.844C3.30668 62.292 3.79068 62.688 4.31734 63.0374C4.84401 63.3867 5.40134 63.6774 5.98401 63.9227C6.56668 64.168 7.17201 64.344 7.79068 64.464C8.40969 64.5874 9.03949 64.6486 9.67068 64.6467H80.3267C80.9579 64.6486 81.5877 64.5874 82.2067 64.464C82.8267 64.344 83.4307 64.1614 84.0133 63.9227C84.596 63.684 85.1533 63.3867 85.68 63.0374C86.2067 62.688 86.6907 62.292 87.1387 61.844C87.5853 61.4027 87.9865 60.9176 88.336 60.396C88.6884 59.8776 88.9869 59.3245 89.2267 58.7454C89.4694 58.1659 89.6543 57.5638 89.7787 56.948C89.8987 56.3334 89.9613 55.708 89.9613 55.084V10.448C89.9507 9.02669 89.6387 7.67203 89.0187 6.39069C88.4113 5.11923 87.527 3.99986 86.4307 3.11469H86.432ZM6.45868 10.448C6.44268 10.36 6.44268 10.276 6.45868 10.1934L30.5787 26.8027L6.45868 53.204V10.448ZM45 28.8747L13.5267 7.26003H76.4747L45 28.8747ZM35.9733 30.4374L43.1707 35.38C43.7173 35.76 44.3267 35.948 44.9987 35.948C45.6707 35.948 46.28 35.76 46.8267 35.38L53.8 30.5987L79.4933 58.2707H10.5053L35.9733 30.4374ZM59.1293 26.932L83.5413 10.192C83.5573 10.276 83.5573 10.3587 83.5413 10.4467V53.264L59.1293 26.932Z" fill="white"/>
</svg>
