<svg width="76" height="82" viewBox="0 0 76 82" fill="none" xmlns="http://www.w3.org/2000/svg">
<path d="M52.156 60.036L52.0733 60.0827C50.6827 60.916 50.172 62.728 50.9333 64.1293L52.72 67.436C53.48 68.8373 55.22 69.296 56.6053 68.4627L56.6933 68.416C58.0787 67.5827 58.5893 65.7707 57.8293 64.364L56.0427 61.0613C55.2827 59.66 53.5427 59.1973 52.1573 60.0347L52.156 60.036ZM33.1093 10.188L33.2027 10.1613C34.7333 9.68265 35.6453 8.03065 35.2387 6.47332L34.28 2.79598C34.1905 2.42986 34.0267 2.08606 33.7986 1.78599C33.5706 1.48592 33.2832 1.236 32.9544 1.05177C32.6256 0.867546 32.2624 0.752961 31.8874 0.71515C31.5124 0.677338 31.1336 0.717107 30.7747 0.831984L30.6813 0.85865C29.1547 1.33732 28.244 2.98398 28.6507 4.54665L29.6093 8.22398C30.016 9.78665 31.5827 10.6667 33.1093 10.188V10.188ZM47.864 10.1253L47.9373 10.1466C49.4533 10.5786 51.0627 9.65198 51.536 8.07865L52.6507 4.37065C53.124 2.79732 52.2813 1.17332 50.7653 0.739983L50.6867 0.71865C49.176 0.28665 47.5667 1.20798 47.0933 2.78132L45.9787 6.48932C45.5053 8.06265 46.348 9.69198 47.864 10.1253ZM60.0613 18.1826L60.124 18.256C61.1453 19.464 62.952 19.548 64.16 18.4493L67.0093 15.8613C68.2173 14.7627 68.364 12.892 67.3427 11.684L67.28 11.616C66.2533 10.408 64.4467 10.324 63.2387 11.4227L60.3947 14.0106C59.1867 15.1093 59.04 16.98 60.0613 18.1826V18.1826ZM65.9627 31.8853L65.9733 31.984C66.192 33.588 67.64 34.6613 69.2133 34.3747L72.9067 33.7027C74.4747 33.416 75.5627 31.8853 75.344 30.276L75.3333 30.1826C75.1093 28.5733 73.6613 27.5053 72.0933 27.792L68.4 28.464C66.832 28.7507 65.744 30.2813 65.9627 31.8853ZM63.78 46.864L63.6347 47.2027C63.486 47.5454 63.4067 47.9142 63.4015 48.2878C63.3962 48.6614 63.4651 49.0323 63.6041 49.3791C63.7431 49.7259 63.9495 50.0417 64.2113 50.3082C64.4731 50.5748 64.7851 50.7868 65.1293 50.932L68.5093 52.38C69.9573 52.9947 71.6347 52.328 72.2547 50.8907L72.4 50.552C73.0253 49.1093 72.3533 47.4373 70.9053 46.8173L67.5253 45.3747C66.8311 45.0764 66.0469 45.0657 65.3447 45.3449C64.6426 45.6241 64.0799 46.1704 63.78 46.864V46.864ZM18.5307 72.2907C21.468 75.7853 24.8533 78.6813 28.864 80.504C34.728 82.7907 39.9267 81.3893 44.7653 78.0667C41.8493 69.9573 34.9373 64.16 31.2813 56.4307C31.2393 56.3405 31.2144 56.2433 31.208 56.144C26.348 58.9147 23.1613 59.4253 19.432 52.332C17.0573 47.8107 13.3587 35.2013 13.3533 33.848C13.348 30.7333 14.66 28.8067 17.452 27.5827C18.072 27.312 18.7067 27.0933 19.3427 26.864C19.4 26.8427 19.452 26.8173 19.5147 26.796C18.088 18.108 16.812 9.39998 15.76 0.659983C15.0933 0.763983 14.3693 0.94665 13.5773 1.21198C4.42134 4.29598 0.328004 10.4093 0.0773374 21.4466C-0.130663 30.436 2.02534 38.8787 4.99467 47.108C8.28134 56.228 12.3333 64.9107 18.5307 72.2907V72.2907ZM17.3013 0.56665C18.328 9.12932 19.5773 17.6653 20.968 26.1813C23.9467 24.7173 24.7187 22.812 24.1133 18.9L21.936 6.03065C21.248 2.43732 19.8053 0.70265 17.3 0.56665H17.3013ZM38.952 57.6507C41.5827 61.5 47.3267 70.6773 47.572 71.3693C48.3787 73.62 47.9987 75.64 46.088 77.1093C46.0773 77.12 46.0667 77.1253 46.052 77.136C43.052 69.22 36.328 63.516 32.7293 55.912C32.6413 55.7293 32.5107 55.6093 32.3653 55.5373C35.016 54.34 37.168 55.0427 38.9533 57.652" fill="white"/>
</svg>
