<svg width="100" height="100" viewBox="0 0 100 100" fill="none" xmlns="http://www.w3.org/2000/svg">
<path d="M90.2133 18.0414C87.088 19.896 80.8227 22.4214 77.1347 23.1507C77.0307 23.1774 76.9413 23.2134 76.8373 23.244C73.5827 20.0307 69.1187 18.0414 64.1813 18.0414C54.228 18.0414 46.1547 26.1094 46.1547 36.068C46.1547 36.5894 46.1133 37.5574 46.1547 38.068C32.728 38.068 22.5093 31.0374 15.176 22.0467C14.3787 24.0467 14.0307 27.2134 14.0307 30.1867C14.0307 35.796 18.416 41.3067 25.2493 44.7227C23.9893 45.0507 22.604 45.28 21.1613 45.28C18.8333 45.28 16.3747 44.6707 14.12 42.8107V43.0134C14.12 50.8574 22.4427 56.196 29.844 57.6854C28.3387 58.5707 25.3133 58.6587 23.8333 58.6587C22.792 58.6587 19.1093 58.18 18.1253 57.9974C20.1827 64.424 27.6093 68.0387 34.6827 68.164C29.152 72.508 25.308 74.1174 13.9747 74.1174H10.1147C17.276 78.7107 26.396 82.1334 35.532 82.1334C65.292 82.1334 82.204 59.4507 82.204 38.0654L82.1827 36.2734C82.1827 36.2054 82.204 36.1334 82.204 36.0654C82.204 35.956 82.1733 35.852 82.1733 35.7427L82.1373 34.4254C85.304 32.144 88.044 29.2947 90.216 26.0507C87.3147 27.3374 84.1947 28.2067 80.924 28.5974C84.2627 26.592 89.012 21.8214 90.216 18.04L90.2133 18.0414Z" fill="white"/>
</svg>
