<svg xmlns="http://www.w3.org/2000/svg" width="100" height="100" viewBox="0 0 75 75"  xmlns:v="https://vecta.io/nano"><defs><clipPath id="A"><path d="M7.582 13.531h60v48h-60zm0 0"/></clipPath></defs><g clip-path="url(#A)"><path d="M67.66 13.531c-2.344 1.391-7.043 3.285-9.809 3.832-.078.02-.145.047-.223.07-2.441-2.41-5.789-3.902-9.492-3.902-7.465 0-13.52 6.051-13.52 13.52 0 .391-.031 1.117 0 1.5-10.07 0-17.734-5.273-23.234-12.016-.598 1.5-.859 3.875-.859 6.105 0 4.207 3.289 8.34 8.414 10.902-.945.246-1.984.418-3.066.418-1.746 0-3.59-.457-5.281-1.852v.152c0 5.883 6.242 9.887 11.793 11.004-1.129.664-3.398.73-4.508.73-.781 0-3.543-.359-4.281-.496 1.543 4.82 7.113 7.531 12.418 7.625-4.148 3.258-7.031 4.465-15.531 4.465H7.586c5.371 3.445 12.211 6.012 19.063 6.012 22.32 0 35.004-17.012 35.004-33.051l-.016-1.344c0-.051.016-.105.016-.156 0-.082-.023-.16-.023-.242l-.027-.988c2.375-1.711 4.43-3.848 6.059-6.281-2.176.965-4.516 1.617-6.969 1.91 2.504-1.504 6.066-5.082 6.969-7.918zm0 0" fill="rgb(0%,0%,0%)"/></g></svg>