<svg width="100" height="100" viewBox="0 0 100 100" fill="none" xmlns="http://www.w3.org/2000/svg">
<path d="M14.0413 50.1254C14.0413 64.4067 22.3387 76.7507 34.38 82.5987L17.1667 35.4427C15.1613 39.9267 14.0413 44.8907 14.0413 50.1254ZM74.484 48.2974C74.484 43.8387 72.8853 40.7507 71.5053 38.3494C69.6827 35.3761 67.964 32.8654 67.964 29.8907C67.964 26.5787 70.4747 23.4894 74.0213 23.4894C74.1773 23.4894 74.3333 23.5107 74.4907 23.5161C67.8482 17.4084 59.1503 14.0245 50.1267 14.0374C37.5173 14.0374 26.4293 20.5067 19.976 30.3081L22.304 30.3494C26.08 30.3494 31.9187 29.8907 31.9187 29.8907C33.8613 29.7761 34.0907 32.6361 32.148 32.8641C32.148 32.8641 30.1947 33.0934 28.0173 33.2027L41.1573 72.2907L49.0533 48.6081L43.4333 33.2014C41.4907 33.0921 39.6467 32.8627 39.6467 32.8627C37.704 32.7481 37.9333 29.7747 39.876 29.8894C39.876 29.8894 45.8347 30.3481 49.3813 30.3481C53.152 30.3481 58.996 29.8894 58.996 29.8894C60.944 29.7747 61.1733 32.6347 59.2307 32.8627C59.2307 32.8627 57.272 33.0921 55.1 33.2014L68.1413 71.9881L71.74 59.9614C73.568 55.2734 74.4853 51.3934 74.4853 48.2947L74.484 48.2974ZM50.76 53.2814L39.932 84.7347C43.1667 85.6881 46.5827 86.2041 50.1293 86.2041C54.3267 86.2041 58.364 85.4801 62.1133 84.1627C62.0147 84.0067 61.9253 83.8401 61.8533 83.6627L50.76 53.2814ZM81.7867 32.8121C81.9522 34.0429 82.0342 35.2835 82.032 36.5254C82.032 40.1814 81.344 44.2961 79.2867 49.4427L68.2653 81.3121C78.9947 75.0521 86.2027 63.4321 86.2027 50.1241C86.208 43.8481 84.604 37.9467 81.7867 32.8121Z" fill="white"/>
<path d="M8.06265 50.1254C8.06265 73.3187 26.932 92.1881 50.1253 92.1881C73.3187 92.1881 92.188 73.3187 92.188 50.1254C92.188 26.9321 73.3227 8.06274 50.1253 8.06274C26.928 8.06274 8.06265 26.9267 8.06265 50.1254ZM9.98932 50.1254C9.98932 27.9947 27.9947 9.98941 50.1253 9.98941C72.256 9.98941 90.2613 27.9947 90.2613 50.1254C90.2613 72.2561 72.256 90.2561 50.1253 90.2561C27.9947 90.2561 9.98932 72.2507 9.98932 50.1254Z" fill="white"/>
</svg>
