<svg xmlns="http://www.w3.org/2000/svg" width="100" height="100" viewBox="0 0 75 75"  xmlns:v="https://vecta.io/nano"><defs><clipPath id="A"><path d="M6.047 6.047h63v63h-63zm0 0"/></clipPath></defs><path d="M10.531 37.594c0 10.711 6.223 19.969 15.254 24.355l-12.91-35.367c-1.504 3.363-2.344 7.086-2.344 11.012zm45.332-1.371c0-3.344-1.199-5.66-2.234-7.461-1.367-2.23-2.656-4.113-2.656-6.344 0-2.484 1.883-4.801 4.543-4.801.117 0 .234.016.352.02a26.94 26.94 0 0 0-18.273-7.109c-9.457 0-17.773 4.852-22.613 12.203l1.746.031c2.832 0 7.211-.344 7.211-.344 1.457-.086 1.629 2.059.172 2.23 0 0-1.465.172-3.098.254l9.855 29.316 5.922-17.762-4.215-11.555c-1.457-.082-2.84-.254-2.84-.254-1.457-.086-1.285-2.316.172-2.23 0 0 4.469.344 7.129.344 2.828 0 7.211-.344 7.211-.344 1.461-.086 1.633 2.059.176 2.23 0 0-1.469.172-3.098.254l9.781 29.09 2.699-9.02c1.371-3.516 2.059-6.426 2.059-8.75zM38.07 39.961l-8.121 23.59c2.426.715 4.988 1.102 7.648 1.102 3.148 0 6.176-.543 8.988-1.531-.074-.117-.141-.242-.195-.375zm23.27-15.352a20.62 20.62 0 0 1 .184 2.785c0 2.742-.516 5.828-2.059 9.688l-8.266 23.902c8.047-4.695 13.453-13.41 13.453-23.391.004-4.707-1.199-9.133-3.312-12.984zm0 0" fill="rgb(0%,0%,0%)"/><g clip-path="url(#A)"><path d="M6.047 37.594c0 17.395 14.152 31.547 31.547 31.547s31.547-14.152 31.547-31.547S54.992 6.047 37.594 6.047 6.047 20.195 6.047 37.594zm1.445 0c0-16.598 13.504-30.102 30.102-30.102s30.102 13.504 30.102 30.102-13.504 30.098-30.102 30.098S7.492 54.188 7.492 37.594zm0 0" fill="rgb(0%,0%,0%)"/></g></svg>